<?xml version="1.0" encoding="UTF-8" standalone="no"?>
<svg
   width="55"
   height="55.009998"
   viewBox="0 0 55 55.009998"
   version="1.1"
   id="svg1"
   sodipodi:docname="armor-games.svg"
   inkscape:version="1.4.2 (f4327f4, 2025-05-13)"
   xmlns:inkscape="http://www.inkscape.org/namespaces/inkscape"
   xmlns:sodipodi="http://sodipodi.sourceforge.net/DTD/sodipodi-0.dtd"
   xmlns="http://www.w3.org/2000/svg"
   xmlns:svg="http://www.w3.org/2000/svg">
  <defs
     id="defs1" />
  <sodipodi:namedview
     id="namedview1"
     pagecolor="#ffffff"
     bordercolor="#000000"
     borderopacity="0.25"
     inkscape:showpageshadow="2"
     inkscape:pageopacity="0.0"
     inkscape:pagecheckerboard="0"
     inkscape:deskcolor="#d1d1d1"
     inkscape:zoom="6.804428"
     inkscape:cx="88.986171"
     inkscape:cy="38.210412"
     inkscape:window-width="3840"
     inkscape:window-height="2053"
     inkscape:window-x="-11"
     inkscape:window-y="-11"
     inkscape:window-maximized="1"
     inkscape:current-layer="svg1"
     showguides="true">
    <sodipodi:guide
       position="26.747288,150.53603"
       orientation="0,-1"
       id="guide11"
       inkscape:locked="false" />
  </sodipodi:namedview>
  <path
     d="m 28.009766,25.130859 -1.490235,1.148438 -0.638672,8.441406 h -1.091797 c -0.177587,-0.502214 -0.701252,-0.791841 -1.220703,-0.673828 -0.519451,0.118012 -0.86934,0.605119 -0.8125,1.134766 0.05684,0.529647 0.500541,0.9324 1.033204,0.9375 h 2.93164 v 4.060547 c -0.07841,0.140091 -0.173583,0.271538 -0.28125,0.390625 -0.138942,0.160664 -0.288554,0.310276 -0.449219,0.449218 0,0 0.749354,1.109058 1.46875,0.652344 -0.04576,0.03003 -0.859471,0.610365 0.521485,3.1875 1.397233,-2.589279 0.560564,-3.164468 0.521484,-3.189453 0.719574,0.447711 1.46875,-0.650391 1.46875,-0.650391 -0.160665,-0.138942 -0.312231,-0.288553 -0.451172,-0.449218 -0.107667,-0.119087 -0.200887,-0.250535 -0.279297,-0.390625 v -4.060547 h 2.929688 l 0.06055,0.01172 c 0.532663,-0.0051 0.976366,-0.409806 1.033203,-0.939453 0.05684,-0.529647 -0.291096,-1.016753 -0.810547,-1.134765 -0.519451,-0.118012 -1.045069,0.171614 -1.222656,0.673828 H 30.140625 L 29.5,26.289062 Z"
     style="display:inline;fill:#28170b"
     id="path11" />
  <path
     d="m 22.560547,22.509766 -2.291016,5.880859 7.611328,-5.880859 z"
     style="display:inline;fill:#28170b"
     id="path10" />
  <path
     d="m 28.099609,22.509766 7.611328,5.871093 -2.291015,-5.871093 z"
     style="display:inline;fill:#28170b"
     id="path9" />
  <path
     d="m 27.960937,10.119141 c -0.852033,1.43731 -1.043089,3.174346 -0.521484,4.761718 -0.72,-0.45 -1.859375,0.648438 -1.859375,0.648438 0.160501,0.139118 0.310101,0.290671 0.449219,0.451172 0.3401,0.362765 0.542172,0.833616 0.570312,1.330078 0.02472,0.50737 -0.116008,1.00878 -0.40039,1.429687 -0.422209,0.657294 -1.120853,1.084947 -1.898438,1.160157 -0.211813,0.01133 -0.424993,-0.0094 -0.630859,-0.06055 -0.608297,-0.158651 -1.099289,-0.607133 -1.310547,-1.199219 -0.195038,-0.651796 -0.118405,-1.355848 0.210938,-1.951172 0.08619,-0.168225 0.185386,-0.327321 0.298828,-0.478516 0.09697,-0.131323 0.207667,-0.253326 0.330078,-0.361328 0.174713,-0.147759 0.374398,-0.262763 0.589844,-0.339843 -0.853153,-0.290846 -1.794209,-0.144509 -2.519532,0.390625 0,0 -2.75875,-2.680078 -4.21875,-2.830078 l 5.208985,8.560546 0.05078,0.119141 h 11.269531 l 0.05078,-0.119141 5.208985,-8.560546 c -1.47,0.16 -4.220703,2.830078 -4.220703,2.830078 -0.725323,-0.535134 -1.666379,-0.681471 -2.519532,-0.390625 0.250594,0.07808 0.481867,0.208349 0.679688,0.380859 0.122736,0.107671 0.233468,0.227757 0.330078,0.359375 0.114158,0.150703 0.215341,0.311817 0.300781,0.480469 0.328248,0.59567 0.40288,1.297317 0.208985,1.949218 -0.211258,0.592087 -0.700297,1.042521 -1.308594,1.201172 -0.205915,0.0508 -0.419053,0.06963 -0.63086,0.05859 -0.777584,-0.07521 -1.478181,-0.502862 -1.90039,-1.160156 -0.283071,-0.421513 -0.421728,-0.92248 -0.398438,-1.429688 0.02814,-0.496462 0.22826,-0.967313 0.56836,-1.330078 0.138318,-0.161244 0.289928,-0.310901 0.451172,-0.449219 0,0 -1.141329,-1.11039 -1.861329,-0.65039 l -0.05859,-0.03906 c 0.521605,-1.587372 0.3325,-3.324408 -0.519532,-4.761718 z"
     style="display:inline;fill:#28170b"
     id="path8" />
  <path
     d="M 27.929687,2.4902344 C 23.02578,6.2553938 17.102237,8.4578704 10.929688,8.8105469 V 33.130859 c 0,13.01 14.729999,18.97836 16.999999,19.81836 2.31,-0.82 17,-6.81836 17,-19.81836 V 8.8105469 c -6.172421,-0.3532884 -12.095789,-2.5557001 -17,-6.3203125 z m 0.04102,1.3789062 c 4.6121,3.5572169 10.186138,5.6474814 16,6.0000004 v 22.951172 c 0,12.27 -13.86,17.899218 -16,18.699218 -2.14,-0.8 -16,-6.429219 -16,-18.699218 V 9.869141 C 17.784306,9.515405 23.357998,7.4252703 27.970703,3.8691406 Z"
     style="display:inline;fill:#28170b"
     id="path7" />
  <path
     d="m 46.83,6.98 h -1 C 36.02,6.98 28.62,0.62 28.54,0.55 L 28.42,0.44 27.92,0 27.42,0.44 27.29,0.55 C 27.22,0.61 19.81,6.98 10,6.98 H 9 v 26.16 c 0.1,15.37 18.78,21.81 18.96,21.87 0.18,0.06 18.87,-6.5 18.87,-21.87 z m -1.9,26.15 c 0,13 -14.69,19 -17,19.82 -2.27,-0.84 -17,-6.81 -17,-19.82 V 8.81 c 6.172549,-0.3526765 12.096092,-2.5548406 17,-6.32 4.904211,3.7646124 10.827579,5.9667116 17,6.32 z"
     id="path2"
     style="display:inline;fill:#d4aa00"
     inkscape:label="path2" />
  <path
     d="m 11.97,9.87 v 22.95 c 0,12.27 13.86,17.9 16,18.7 2.14,-0.8 16,-6.43 16,-18.7 V 9.87 c -5.813862,-0.352519 -11.3879,-2.4427831 -16,-6 -4.612705,3.5561297 -10.186397,5.646264 -16,6 z m 20.2,26.25 h -2.93 v 4.06 c 0.07841,0.140091 0.172333,0.270914 0.28,0.39 0.138941,0.160665 0.289335,0.311058 0.45,0.45 0,0 -0.75,1.1 -1.47,0.65 0,0 0.91,0.54 -0.52,3.19 -1.42,-2.65 -0.52,-3.19 -0.52,-3.19 -0.72,0.46 -1.47,-0.65 -1.47,-0.65 0.160665,-0.138942 0.311058,-0.289335 0.45,-0.45 0.107667,-0.119086 0.201591,-0.249909 0.28,-0.39 v -4.06 h -2.93 c -0.532663,-0.0051 -0.977101,-0.40827 -1.033938,-0.937917 -0.05684,-0.529647 0.291937,-1.017931 0.811388,-1.135943 0.519451,-0.118013 1.044963,0.171646 1.22255,0.67386 h 1.09 l 0.64,-8.44 1.49,-1.15 1.49,1.16 0.64,8.44 h 1.09 c 0.177587,-0.502214 0.703099,-0.791872 1.22255,-0.67386 0.519451,0.118012 0.868226,0.606296 0.811388,1.135943 C 33.207101,35.72173 32.762663,36.124893 32.23,36.13 Z m -11.9,-7.73 2.29,-5.88 h 5.32 z m 7.83,-5.88 h 5.32 l 2.29,5.87 z m 0.44,-7.59 c 0.72,-0.46 1.86,0.65 1.86,0.65 -0.161244,0.138318 -0.311682,0.288756 -0.45,0.45 -0.3401,0.362765 -0.54186,0.833538 -0.57,1.33 -0.02329,0.507208 0.116929,1.008487 0.4,1.43 0.422209,0.657294 1.122415,1.084787 1.9,1.16 0.211807,0.01104 0.424085,-0.0092 0.63,-0.06 0.608297,-0.158651 1.098742,-0.607914 1.31,-1.2 0.193895,-0.651901 0.118248,-1.35433 -0.21,-1.95 -0.08544,-0.168652 -0.185842,-0.329297 -0.3,-0.48 -0.09661,-0.131618 -0.207264,-0.252329 -0.33,-0.36 -0.197821,-0.17251 -0.429406,-0.301925 -0.68,-0.38 0.853153,-0.290846 1.794677,-0.145134 2.52,0.39 0,0 2.75,-2.67 4.22,-2.83 l -5.21,8.56 -0.05,0.12 H 22.31 l -0.05,-0.12 -5.21,-8.56 c 1.46,0.15 4.22,2.83 4.22,2.83 0.725323,-0.535134 1.666847,-0.680846 2.52,-0.39 -0.215445,0.07708 -0.415287,0.192241 -0.59,0.34 -0.122411,0.108002 -0.233029,0.228677 -0.33,0.36 -0.113442,0.151195 -0.213804,0.311775 -0.3,0.48 -0.329343,0.595324 -0.405038,1.298204 -0.21,1.95 0.211258,0.592086 0.701703,1.041349 1.31,1.2 0.205866,0.05111 0.418187,0.07133 0.63,0.06 0.777585,-0.07521 1.477791,-0.502706 1.9,-1.16 0.284382,-0.420907 0.424724,-0.92263 0.4,-1.43 -0.02814,-0.496462 -0.2299,-0.967235 -0.57,-1.33 -0.139118,-0.160501 -0.289499,-0.310882 -0.45,-0.45 0,0 1.14,-1.1 1.86,-0.65 -0.521605,-1.587372 -0.332033,-3.32269 0.52,-4.76 0.852032,1.43731 1.041605,3.172628 0.52,4.76 z"
     id="path3"
     sodipodi:nodetypes="cscsccccccccccccccccsscccccccssccccccccccccccccccccccccccccccccccccccccccccc"
     style="display:inline;fill:#d4aa00"
     sodipodi:insensitive="true" />
</svg>
