<?xml version="1.0" encoding="UTF-8" standalone="no"?>
<svg
   width="140.98199"
   height="140.98199"
   viewBox="0 0 37.301 37.301016"
   version="1.1"
   id="svg5"
   sodipodi:docname="Auckland_University_of_Technology.svg"
   inkscape:version="1.4.3 (0d15f75, 2025-12-25)"
   xmlns:inkscape="http://www.inkscape.org/namespaces/inkscape"
   xmlns:sodipodi="http://sodipodi.sourceforge.net/DTD/sodipodi-0.dtd"
   xmlns="http://www.w3.org/2000/svg"
   xmlns:svg="http://www.w3.org/2000/svg">
  <sodipodi:namedview
     id="namedview5"
     pagecolor="#ffffff"
     bordercolor="#000000"
     borderopacity="0.25"
     inkscape:showpageshadow="2"
     inkscape:pageopacity="0.0"
     inkscape:pagecheckerboard="0"
     inkscape:deskcolor="#d1d1d1"
     inkscape:zoom="5.6568543"
     inkscape:cx="62.490561"
     inkscape:cy="28.195883"
     inkscape:window-width="3840"
     inkscape:window-height="2054"
     inkscape:window-x="-11"
     inkscape:window-y="-11"
     inkscape:window-maximized="1"
     inkscape:current-layer="svg5" />
  <defs
     id="defs1">
    <clipPath
       id="A">
      <path
         d="m 42.52,386.285 h 60.214 v 42.7 H 42.52 Z"
         id="path1" />
    </clipPath>
  </defs>
  <path
     d="m 93.814,413.938 c 0,-0.272 -0.11,-0.54 -0.304,-0.732 -0.194,-0.192 -0.46,-0.303 -0.732,-0.303 h -2.525 v -14.768 c 0,-0.273 -0.11,-0.54 -0.305,-0.732 -0.195,-0.192 -0.46,-0.303 -0.732,-0.303 H 85.65 c -0.273,0 -0.54,0.1 -0.732,0.303 -0.192,0.203 -0.304,0.46 -0.304,0.732 v 14.767 h -2.53 c -0.273,0 -0.54,0.112 -0.732,0.303 -0.192,0.191 -0.304,0.46 -0.304,0.733 v 3.208 a 1.04,1.04 0 0 0 1.036,1.036 h 10.693 a 1.04,1.04 0 0 0 0.732,-0.303 c 0.193,-0.193 0.304,-0.46 0.304,-0.733 z M 79.7,401.106 a 1.04,1.04 0 0 0 -0.302,-0.731 l -2.97,-2.972 a 1.03,1.03 0 0 0 -0.733,-0.305 l -4.756,0.002 c -0.275,0 -0.535,0.108 -0.732,0.303 l -2.968,2.972 a 1.03,1.03 0 0 0 -0.304,0.731 v 16.04 c 0,0.272 0.11,0.54 0.304,0.733 a 1.04,1.04 0 0 0 0.733,0.302 h 3.562 a 1.04,1.04 0 0 0 1.036,-1.035 v -14.77 h 1.495 v 14.77 c 0,0.272 0.11,0.54 0.304,0.733 a 1.04,1.04 0 0 0 0.732,0.302 h 3.564 a 1.04,1.04 0 0 0 1.035,-1.035 z m -14.01,-3.618 c -0.197,-0.246 -0.495,-0.4 -0.808,-0.4 l -3.567,10e-4 c -0.498,0 -0.923,0.352 -1.017,0.84 l -0.457,2.365 h -2.47 l -0.456,-2.365 c -0.094,-0.49 -0.52,-0.84 -1.018,-0.84 h -3.424 a 1.04,1.04 0 0 0 -0.809,0.389 c -0.197,0.247 -0.27,0.568 -0.2,0.874 l 4.28,19.01 c 0.106,0.475 0.525,0.81 1.01,0.81 h 3.85 c 0.483,0 0.902,-0.334 1.01,-0.81 l 4.28,-19.01 a 1.04,1.04 0 0 0 -0.202,-0.874 m -23.17,-11.203 h 60.213 v 42.7 H 42.52 Z"
     id="path4"
     style="display:inline;stroke-width:2.83461;stroke-dasharray:none"
     transform="matrix(0.61949264,0,0,-0.61949264,-26.340803,271.28413)" />
  <path
     d="m -8.407,155.803 0.528,-2.825 h 0.017 l 0.53,2.825 z m -0.117,-4.535 -1.5,6.707 h 1.208 l 0.218,-1.13 h 1.475 l 0.218,1.13 h 1.257 l -1.5,-6.707 z m 6.472,5.575 H -3.3 v -5.576 h -1.257 v 5.66 l 1.048,1.048 h 1.677 l 1.048,-1.048 v -5.66 H -2.04 Z m -5.916,-1.406 h 0.194 L -7.871,154.92 Z M 0.412,152.4 H 1.67 v 5.575 H 2.928 V 152.4 h 1.256 v -1.132 H 0.412 Z"
     id="path3"
     style="display:inline;stroke-width:0.999986;stroke-dasharray:none"
     transform="matrix(1.756041,0,0,1.756041,23.786901,-252.76658)" />
</svg>
