<svg data-name="Desmos Logo" xmlns="http://www.w3.org/2000/svg" viewBox="0 0 202 202">
    <path
        d="M98.844 160.544c-18.245 0-29.713-15.704-35.976-24l10.123-10.214c2.722 3.407 12.908 19.15 25.955 19.15a18.68 18.68 0 0 0 11.569-4.347s7.72 6.757 11.823 8.845c0 0-7.676 10.511-23.382 10.566zm90.537-45.073h-.028c-13.677.029-30.177 34.235-52.47 34.235-23.324 0-38.06-34.08-52.589-34.08-15.823 0-30 34.08-52.588 34.08-12.103 0-21.631-8.95-31.706-18.608v26.843A44.06 44.06 0 0 0 44.06 202h113.88A44.06 44.06 0 0 0 202 157.941V121.36c-2.071-2.006-6.828-5.888-12.62-5.888M157.942 0H44.06a43.9 43.9 0 0 0-17.778 3.734c6.871 24.956 22.833 80.109 35.393 102-3.79 3.73-7.15 6.8-11.027 10.619-10.75-16.31-29.822-78.209-37.434-103.754A43.93 43.93 0 0 0 0 44.06v66.385c11.617 9.442 21.08 24.027 31.62 24.027h.086C46.5 134.359 60.353 101 84.294 101c24.412 0 35.177 33.294 52.353 33.294 16.53 0 28.97-33.294 52.353-33.294a27.8 27.8 0 0 1 13 3.213V44.06a44 44 0 0 0-17.49-35.15c-7.371 30.041-24.315 87.99-46.392 121.9a24.96 24.96 0 0 1-12.853-7.486c22.8-34.376 43.62-110.397 46.487-121.115a44 44 0 0 0-13.81-2.208"
        fill="#158f48" />
</svg>