<?xml version="1.0" encoding="UTF-8" standalone="no"?>
<svg
   id="Layer_1"
   data-name="Layer 1"
   viewBox="0 0 100 100"
   version="1.1"
   sodipodi:docname="dust.svg"
   inkscape:version="1.4.2 (f4327f4, 2025-05-13)"
   xmlns:inkscape="http://www.inkscape.org/namespaces/inkscape"
   xmlns:sodipodi="http://sodipodi.sourceforge.net/DTD/sodipodi-0.dtd"
   xmlns="http://www.w3.org/2000/svg"
   xmlns:svg="http://www.w3.org/2000/svg"
   xmlns:rdf="http://www.w3.org/1999/02/22-rdf-syntax-ns#"
   xmlns:cc="http://creativecommons.org/ns#"
   xmlns:dc="http://purl.org/dc/elements/1.1/">
  <sodipodi:namedview
     id="namedview14"
     pagecolor="#ffffff"
     bordercolor="#000000"
     borderopacity="0.25"
     inkscape:showpageshadow="2"
     inkscape:pageopacity="0.0"
     inkscape:pagecheckerboard="0"
     inkscape:deskcolor="#d1d1d1"
     inkscape:zoom="18.14"
     inkscape:cx="49.972437"
     inkscape:cy="50"
     inkscape:window-width="3840"
     inkscape:window-height="2053"
     inkscape:window-x="-11"
     inkscape:window-y="-11"
     inkscape:window-maximized="1"
     inkscape:current-layer="Layer_1" />
  <defs
     id="defs1">
    <style
       id="style1">.cls-1{fill:#895e59;}.cls-2{fill:#6d4945;}</style>
  </defs>
  <title
     id="title1">earth</title>
  <ellipse
     class="cls-1"
     cx="50"
     cy="80.78"
     rx="50"
     ry="12.95"
     id="ellipse1" />
  <path
     class="cls-2"
     d="M74.92,34.6l4.43-4.43C71.1,16.91,61,6.28,50,6.28S28.73,17.08,20.45,30.49l4.1,4.11Z"
     id="path1" />
  <path
     class="cls-1"
     d="m 79.35,30.17 -4.43,4.43 v 0 l -2.26,2.26 2.26,-2.26 H 24.55 l 2.81,2.81 -2.81,-2.81 v 0 l -4.1,-4.11 C 8.05,50.57 0,76.49 0,80.78 c 0,7.15 22.39,12.94 50,12.94 27.61,0 50,-5.79 50,-12.94 0,-4.32 -8.14,-30.49 -20.65,-50.61 z"
     id="path2"
     style="display:inline" />
  <circle
     class="cls-2"
     cx="26.95"
     cy="34.59"
     r="7.68"
     id="circle2" />
  <circle
     class="cls-2"
     cx="42.32"
     cy="34.59"
     r="7.68"
     id="circle3" />
  <circle
     class="cls-2"
     cx="57.68"
     cy="34.59"
     r="7.68"
     id="circle4" />
  <circle
     class="cls-2"
     cx="73.05"
     cy="34.59"
     r="7.68"
     id="circle5" />
  <circle
     class="cls-2"
     cx="22.5"
     cy="46.99"
     r="1.41"
     id="circle6" />
  <circle
     class="cls-2"
     cx="27.54"
     cy="55.29"
     r="1.41"
     id="circle7" />
  <circle
     class="cls-2"
     cx="50.21"
     cy="55.29"
     r="1.41"
     id="circle8" />
  <circle
     class="cls-2"
     cx="72.88"
     cy="55.29"
     r="1.41"
     id="circle9" />
  <circle
     class="cls-2"
     cx="33.56"
     cy="46.99"
     r="1.41"
     id="circle10" />
  <circle
     class="cls-2"
     cx="44.61"
     cy="46.99"
     r="1.41"
     id="circle11" />
  <circle
     class="cls-2"
     cx="55.67"
     cy="46.99"
     r="1.41"
     id="circle12" />
  <circle
     class="cls-2"
     cx="66.72"
     cy="46.99"
     r="1.41"
     id="circle13" />
  <circle
     class="cls-2"
     cx="77.78"
     cy="46.99"
     r="1.41"
     id="circle14" />
  <metadata
     id="metadata14">
    <rdf:RDF>
      <cc:Work
         rdf:about="">
        <dc:title>earth</dc:title>
      </cc:Work>
    </rdf:RDF>
  </metadata>
</svg>
