<?xml version="1.0" encoding="UTF-8" standalone="no"?>
<svg
   width="16.844999"
   height="15.165"
   viewBox="0 0 16.844999 15.165"
   version="1.1"
   xml:space="preserve"
   style="clip-rule:evenodd;fill-rule:evenodd;stroke-linejoin:round;stroke-miterlimit:2"
   id="svg20568"
   sodipodi:docname="emoji-heart-orange.svg"
   inkscape:version="1.4.2 (f4327f4, 2025-05-13)"
   xmlns:inkscape="http://www.inkscape.org/namespaces/inkscape"
   xmlns:sodipodi="http://sodipodi.sourceforge.net/DTD/sodipodi-0.dtd"
   xmlns="http://www.w3.org/2000/svg"
   xmlns:svg="http://www.w3.org/2000/svg"><defs
     id="defs20572" /><sodipodi:namedview
     id="namedview20570"
     pagecolor="#ffffff"
     bordercolor="#eeeeee"
     borderopacity="1"
     inkscape:pageshadow="0"
     inkscape:pageopacity="0"
     inkscape:pagecheckerboard="0"
     inkscape:showpageshadow="2"
     inkscape:deskcolor="#d1d1d1"
     inkscape:zoom="84.582374"
     inkscape:cx="9.2986276"
     inkscape:cy="7.1527905"
     inkscape:window-width="3840"
     inkscape:window-height="2053"
     inkscape:window-x="-11"
     inkscape:window-y="-11"
     inkscape:window-maximized="1"
     inkscape:current-layer="svg20568" /><path
     d="M 0,4.77 C -0.05953335,2.3965131 1.9200476,0.2059443 4.2869532,0.02452155 5.8445029,-0.1817613 7.3871439,0.52943325 8.43,1.665 c 1.049829,-1.1876445 2.665163,-1.86590985 4.250566,-1.62938595 2.266069,0.252249 4.155211,2.32531035 4.163024,4.61115965 0.0666,1.475817 -0.650955,2.8905378 -1.746184,3.850821 C 12.874937,10.720063 10.652468,12.942532 8.43,15.165 6.0074671,12.735049 3.5590506,10.32979 1.1529492,7.8841626 0.41129685,7.028087 -0.00857475,5.9034698 0,4.77 Z"
     style="clip-rule:evenodd;fill-rule:nonzero;stroke-width:15;stroke-linejoin:round;stroke-miterlimit:2"
     id="path17936" /><path
     d="m 0.93,-0.772 c 0.034,0 0.066,0.007 0.096,0.02 0.03,0.013 0.057,0.03 0.079,0.053 0.022,0.022 0.04,0.049 0.053,0.079 0.013,0.03 0.02,0.062 0.02,0.096 0,0.033 -0.007,0.065 -0.019,0.095 -0.013,0.03 -0.031,0.057 -0.054,0.08 L 0.687,0.07 0.268,-0.349 C 0.245,-0.372 0.227,-0.399 0.214,-0.429 0.202,-0.459 0.195,-0.491 0.195,-0.524 c 0,-0.034 0.007,-0.066 0.02,-0.096 0.013,-0.03 0.031,-0.057 0.053,-0.079 0.023,-0.023 0.049,-0.04 0.079,-0.053 0.03,-0.013 0.062,-0.02 0.096,-0.02 0.027,0 0.051,0.003 0.071,0.01 0.021,0.006 0.04,0.015 0.057,0.025 0.017,0.011 0.033,0.024 0.049,0.039 0.016,0.015 0.032,0.031 0.048,0.048 l 0.019,0.018 0.018,-0.018 c 0.016,-0.017 0.032,-0.033 0.048,-0.048 0.015,-0.015 0.032,-0.028 0.049,-0.039 0.017,-0.01 0.036,-0.019 0.057,-0.025 0.02,-0.007 0.044,-0.01 0.071,-0.01 z"
     style="clip-rule:evenodd;fill-rule:nonzero;stroke-linejoin:round;stroke-miterlimit:2;fill:#f7630c"
     id="path17938"
     transform="matrix(15,0,0,15,-1.875,12.63)" /><path
     d="M 0.595,-0.21 C 0.58,-0.21 0.568,-0.216 0.557,-0.226 L 0.382,-0.401 C 0.367,-0.416 0.355,-0.433 0.347,-0.453 0.339,-0.472 0.335,-0.492 0.335,-0.513 v -0.066 c 0,-0.007 0.002,-0.014 0.005,-0.021 0.002,-0.006 0.006,-0.012 0.011,-0.016 0.005,-0.005 0.01,-0.009 0.016,-0.012 0.007,-0.002 0.014,-0.004 0.021,-0.004 0.007,0 0.014,0.002 0.021,0.004 0.006,0.003 0.012,0.007 0.017,0.012 0.004,0.004 0.008,0.01 0.011,0.016 0.003,0.007 0.004,0.014 0.004,0.021 v 0.066 c 0,0.007 0.001,0.013 0.004,0.02 0.002,0.006 0.006,0.012 0.011,0.017 L 0.632,-0.3 c 0.005,0.005 0.008,0.01 0.011,0.017 0.003,0.006 0.004,0.013 0.004,0.02 0,0.007 -0.001,0.014 -0.004,0.02 -0.003,0.006 -0.007,0.012 -0.011,0.017 -0.005,0.005 -0.011,0.009 -0.017,0.011 -0.006,0.003 -0.013,0.005 -0.02,0.005 z"
     style="clip-rule:evenodd;fill-rule:nonzero;stroke-linejoin:round;stroke-miterlimit:2;fill:#f7894a"
     id="path17940"
     transform="matrix(15,0,0,15,-1.875,12.63)" /></svg>
