<?xml version="1.0" encoding="UTF-8" standalone="no"?>
<svg
   width="512"
   height="512"
   viewBox="0 0 64 64"
   version="1.1"
   id="svg3"
   sodipodi:docname="filetype-pdf.svg"
   inkscape:version="1.4.2 (f4327f4, 2025-05-13)"
   xmlns:inkscape="http://www.inkscape.org/namespaces/inkscape"
   xmlns:sodipodi="http://sodipodi.sourceforge.net/DTD/sodipodi-0.dtd"
   xmlns="http://www.w3.org/2000/svg"
   xmlns:svg="http://www.w3.org/2000/svg">
  <defs
     id="defs3" />
  <sodipodi:namedview
     id="namedview3"
     pagecolor="#ffffff"
     bordercolor="#000000"
     borderopacity="0.25"
     inkscape:showpageshadow="2"
     inkscape:pageopacity="0.0"
     inkscape:pagecheckerboard="0"
     inkscape:deskcolor="#d1d1d1"
     inkscape:zoom="2"
     inkscape:cx="254"
     inkscape:cy="49"
     inkscape:window-width="3840"
     inkscape:window-height="2053"
     inkscape:window-x="-11"
     inkscape:window-y="-11"
     inkscape:window-maximized="1"
     inkscape:current-layer="svg3" />
  <path
     style="fill:#ffffff;stroke:none;stroke-width:0.999998"
     d="M 43.356482,1.0016003 V 13.668266 h 12.581251 z"
     id="path1" />
  <path
     style="fill:#ebebda;stroke:#777777;stroke-width:2"
     d="M 43.356482,1.0016003 V 13.668266 H 55.937733 V 63.001599 H 8.2614138 V 1.0016003 H 43.356482 L 55.937733,13.668266"
     id="path2" />
  <path
     style="fill:none;stroke:#c01a1a;stroke-width:4"
     d="m 32.761744,36.334932 c -11.256908,2.666667 -17.878619,6.666666 -19.202961,9.333334 -1.324342,2.666667 -0.662171,5.999999 3.973026,2.666667 C 22.167007,45.001599 30.775231,27.0016 32.761744,13.0016 33.423915,8.3349332 28.126547,5.6682668 28.126547,11.668268 c 0,7.999999 3.973027,22.666665 19.865133,27.333331 5.95954,1.333334 6.621711,-4.666666 0,-4.666666 -6.621711,0 -15.229936,1.999999 -15.229936,1.999999 z"
     id="path3" />
</svg>
