<svg width="48" height="66" viewBox="0 0 48 66" xmlns="http://www.w3.org/2000/svg">
  <g fill="none" fill-rule="evenodd">
    <path d="M29.583 0H4.438A4.45 4.45 0 0 0 0 4.438v56.208a4.45 4.45 0 0 0 4.438 4.437h38.458a4.45 4.45 0 0 0 4.437-4.437V17.75L36.98 10.354z" fill="#f4b400" fill-rule="nonzero" mask="url(#b)"/>
    <path d="M33.281 29.583H14.052c-1.22 0-2.219.999-2.219 2.22V51.03c0 1.22.999 2.219 2.22 2.219H33.28c1.22 0 2.219-.998 2.219-2.219V31.802c0-1.22-.998-2.219-2.219-2.219m-.74 17.01H14.79V36.24h17.75z" fill="#f1f1f1" fill-rule="nonzero" mask="url(#d)"/>
    <path d="M30.881 16.452 47.333 32.9V17.75z"/>
    <path d="M29.583 0v13.313a4.436 4.436 0 0 0 4.438 4.437h13.312z" fill="#fada80" fill-rule="nonzero"/>
  </g>
</svg>
