<?xml version="1.0" encoding="UTF-8" standalone="no"?>
<svg
   height="2399.5847"
   viewBox="14.32 4.8796149 25.349678 50.67"
   width="1674.0741"
   version="1.1"
   id="svg5"
   sodipodi:docname="google-maps-2020-icon.svg"
   inkscape:version="1.4.2 (f4327f4, 2025-05-13)"
   xmlns:inkscape="http://www.inkscape.org/namespaces/inkscape"
   xmlns:sodipodi="http://sodipodi.sourceforge.net/DTD/sodipodi-0.dtd"
   xmlns="http://www.w3.org/2000/svg"
   xmlns:svg="http://www.w3.org/2000/svg">
  <defs
     id="defs5" />
  <sodipodi:namedview
     id="namedview5"
     pagecolor="#ffffff"
     bordercolor="#000000"
     borderopacity="0.25"
     inkscape:showpageshadow="2"
     inkscape:pageopacity="0.0"
     inkscape:pagecheckerboard="0"
     inkscape:deskcolor="#d1d1d1"
     inkscape:zoom="0.25653834"
     inkscape:cx="-908.24631"
     inkscape:cy="576.91182"
     inkscape:window-width="3840"
     inkscape:window-height="2053"
     inkscape:window-x="-11"
     inkscape:window-y="-11"
     inkscape:window-maximized="1"
     inkscape:current-layer="svg5" />
  <path
     d="m 32.339312,5.7141657 c -1.68,-0.53 -3.48,-0.82 -5.34,-0.82 -5.43,0 -10.29,2.45 -13.54,6.3100003 l 8.35,7.02 z"
     fill="#1a73e8"
     id="path1" />
  <path
     d="m 13.459312,11.204166 a 17.615,17.615 0 0 0 -4.1400008,11.36 c 0,3.32 0.6600006,6.02 1.7500008,8.43 l 10.74,-12.77 z"
     fill="#ea4335"
     id="path2" />
  <path
     d="m 26.999312,15.814166 a 6.764,6.764 0 0 1 5.16,11.13 l 10.52,-12.51 a 17.684,17.684 0 0 0 -10.35,-8.7100003 l -10.51,12.5100003 a 6.74,6.74 0 0 1 5.18,-2.42"
     fill="#4285f4"
     id="path3" />
  <path
     d="m 26.999312,29.334166 c -3.73,0 -6.76,-3.03 -6.76,-6.76 a 6.7,6.7 0 0 1 1.58,-4.34 l -10.75,12.77 c 1.84,4.07 4.89,7.34 8.03,11.46 l 13.06,-15.52 a 6.752,6.752 0 0 1 -5.16,2.39"
     fill="#fbbc04"
     id="path4" />
  <path
     d="m 31.899312,46.694166 c 5.9,-9.22 12.77,-13.41 12.77,-24.13 0,-2.94 -0.72,-5.71 -1.99,-8.15 l -23.57,28.05 c 1,1.31 2.01,2.7 2.99,4.24 3.58,5.54 2.59,8.86 4.9,8.86 2.31,0 1.32,-3.33 4.9,-8.87"
     fill="#34a853"
     id="path5" />
</svg>
