<?xml version="1.0" encoding="UTF-8" standalone="no"?>
<!-- Generator: Adobe Illustrator 18.1.1, SVG Export Plug-In . SVG Version: 6.00 Build 0)  -->

<svg
   version="1.1"
   id="Capa_1"
   x="0px"
   y="0px"
   viewBox="0 0 146.3 146.3"
   enable-background="new 0 0 1400 980"
   xml:space="preserve"
   sodipodi:docname="icon-letter-h.svg"
   width="146.3"
   height="146.3"
   inkscape:version="1.4.2 (f4327f4, 2025-05-13)"
   xmlns:inkscape="http://www.inkscape.org/namespaces/inkscape"
   xmlns:sodipodi="http://sodipodi.sourceforge.net/DTD/sodipodi-0.dtd"
   xmlns="http://www.w3.org/2000/svg"
   xmlns:svg="http://www.w3.org/2000/svg"><defs
   id="defs68" /><sodipodi:namedview
   id="namedview68"
   pagecolor="#ffffff"
   bordercolor="#000000"
   borderopacity="0.25"
   inkscape:showpageshadow="2"
   inkscape:pageopacity="0.0"
   inkscape:pagecheckerboard="0"
   inkscape:deskcolor="#d1d1d1"
   inkscape:zoom="1.8510204"
   inkscape:cx="596.15766"
   inkscape:cy="217.17751"
   inkscape:window-width="3840"
   inkscape:window-height="2053"
   inkscape:window-x="-11"
   inkscape:window-y="-11"
   inkscape:window-maximized="1"
   inkscape:current-layer="Capa_1" />
<path
   fill="#002e82"
   d="m 34.359757,0 h 1.9 v 5.1 h 1.9 V 1.7 h 7.7 c 2.6,0 3.8,3.4 3.8,10.2 l 5.7,1.7 c 0,-3.4 1.3,-5.1 3.8,-5.1 l 1.9,1.7 v 1.7 l -9.6,45.9 28.7,-1.7 h 19.1 l 1.900003,-8.5 -1.900003,-1.7 h 3.800003 l -1.9,-11.9 v -1.7 h 3.8 l -1.9,-1.7 v -3.4 h 3.8 v -3.4 h -3.8 v -1.7 h 3.8 l -1.9,-1.7 V 8.5 l 1.9,1.7 h 1.9 V 3.4 l -1.9,-1.7 V 0 h 5.7 l -9.6,57.8 c 2.6,0 6.4,-18.7 11.5,-56.1 l 7.7,-1.7 c 1.3,9.1 3.2,13.6 5.7,13.6 h 1.9 c 0,-3.4 1.3,-5.1 3.8,-5.1 h 1.9 c -6.4,39.2 -16,85.2 -28.7,137.8 h -1.9 l -1.9,-1.7 1.9,-1.7 v -13.6 h -1.9 l -5.700003,17 h -5.7 c -2.6,0 -3.8,-3.4 -3.8,-10.2 h -1.9 v 6.8 h -1.9 c -2.6,0 -3.8,-1.7 -3.8,-5.1 0,-8.2 3.8,-27.5 11.5,-57.8 h -1.9 l -24.9,1.7 -17.2,-1.7 c -3.8,27.2 -7.7,45.4 -11.5,54.4 h -5.7 c -2.6,0 -3.8,-4.5 -3.8,-13.6 h -1.9 l -1.9,11.9 -3.8,-3.4 v -5.1 l 1.9,-1.7 v -1.7 l -1.9,-1.7 h -1.9 l -1.9,1.7 h -1.9 l -1.9,-6.8 c 5.1,-38.3 10.8,-66.1 17.2,-83.4 h 1.9 l -1.9,-1.7 v -5.1 l 5.7,-18.7 h -1.9 z m -21.1,122.4 h 1.9 v 8.5 h -1.9 z m 11.5,-57.8 v 6.8 h 1.9 v -6.8 z m 3.8,-17 -1.9,8.5 v 1.7 h 1.9 l 1.9,-6.8 v -3.4 z m 1.9,-8.5 v 6.8 h 1.9 v -6.8 z m 3.9,-18.7 -1.9,13.6 v 3.4 h 1.9 l 1.9,-13.6 v -3.4 z m 1.9,-13.6 v 11.9 h 1.9 V 6.8 Z m 57.4,88.4 v 6.8 h 1.9 v -6.8 z m 3.8,-13.6 -1.9,10.2 v 1.7 h 1.9 l 1.9,-8.5 v -3.4 z m 9.600003,32.3 -1.9,8.5 v 5.1 h 1.9 l 1.9,-11.9 v -1.7 z"
   id="path28" />

</svg>
