<?xml version="1.0" encoding="UTF-8" standalone="no"?>
<!-- Generator: Adobe Illustrator 18.1.1, SVG Export Plug-In . SVG Version: 6.00 Build 0)  -->

<svg
   version="1.1"
   id="Capa_1"
   x="0px"
   y="0px"
   viewBox="0 0 136 136"
   enable-background="new 0 0 1400 980"
   xml:space="preserve"
   sodipodi:docname="icon-letter-o.svg"
   width="136"
   height="136"
   inkscape:version="1.4.2 (f4327f4, 2025-05-13)"
   xmlns:inkscape="http://www.inkscape.org/namespaces/inkscape"
   xmlns:sodipodi="http://sodipodi.sourceforge.net/DTD/sodipodi-0.dtd"
   xmlns="http://www.w3.org/2000/svg"
   xmlns:svg="http://www.w3.org/2000/svg"><defs
   id="defs68" /><sodipodi:namedview
   id="namedview68"
   pagecolor="#ffffff"
   bordercolor="#000000"
   borderopacity="0.25"
   inkscape:showpageshadow="2"
   inkscape:pageopacity="0.0"
   inkscape:pagecheckerboard="0"
   inkscape:deskcolor="#d1d1d1"
   inkscape:zoom="1.8510204"
   inkscape:cx="606.42227"
   inkscape:cy="-29.173098"
   inkscape:window-width="3840"
   inkscape:window-height="2053"
   inkscape:window-x="-11"
   inkscape:window-y="-11"
   inkscape:window-maximized="1"
   inkscape:current-layer="Capa_1" />
<path
   fill="#bf3376"
   d="m 83.380486,0 c 15,0 29.099994,4 42.099994,11.9 l -1.9,1.7 v 1.7 l 7.7,10.2 h -3.9 l -1.9,-1.7 h -1.9 l 5.7,37.4 h 1.9 c 0,-5.7 1.3,-8.5 3.8,-8.5 v 6.8 c 0,6.4 -6.4,21.1 -19.1,44.2 h 1.9 c -9,11 -22.399994,21.2 -40.199994,30.6 l -9.6,1.7 h -1.9 c -30.3,0 -49.5,-10.8 -57.4000008,-32.3 L 1.0804851,93.6 2.9804852,91.9 1.0804851,80 v -3.4 c 0,-9.4 10.2000009,-25.9 30.6000009,-49.3 V 29 c -9.4,11.2 -17,23.7 -23.0000008,37.4 v 1.7 h 1.9000008 c 4.7,-16.6 21.9,-37.6 51.7,-62.9 l -13.4,6.8 h -1.9 c 0,-5.3 12.1,-9.3 36.4,-12 z M 6.7804852,76.5 v 13.6 h 1.9 V 76.5 Z m 24.9000008,-23.8 -5.7,10.2 h 1.9 l 5.7,-10.2 z m 42.1,-23.8 -1.9,-1.7 v 1.7 l 1.9,1.7 -13.4,10.2 c -10.6,0 -20.8,15.9 -30.6,47.6 0,9.1 5.7,17 17.2,23.8 h 1.9 c 14,0 29.9,-13 47.9,-39.1 6.399994,-12.4 9.599994,-21.5 9.599994,-27.2 V 32.3 c 0,-3.1 -6.399994,-5.4 -19.099994,-6.8 h -1.9 l -1.9,1.7 h -1.9 v -1.7 z m -38.3,90.2 v 1.7 l 9.6,5.1 v -1.7 z m 61.3,-37.5 -7.7,8.5 h 1.9 l 7.7,-8.5 z m 9.499994,-18.7 -7.699994,17 h 5.699994 l 5.7,-11.9 -1.9,-5.1 z m 13.4,6.8 -1.9,5.1 v 3.4 h 1.9 l 1.9,-6.8 v -1.7 z m 9.6,-35.7 h 3.8 v 8.5 h -3.8 z"
   id="path35" />

</svg>
