<?xml version="1.0" encoding="UTF-8" standalone="no"?>
<!-- Generator: Adobe Illustrator 18.1.1, SVG Export Plug-In . SVG Version: 6.00 Build 0)  -->

<svg
   version="1.1"
   id="Capa_1"
   x="0px"
   y="0px"
   viewBox="0 0 139.80001 139.8"
   enable-background="new 0 0 1400 980"
   xml:space="preserve"
   sodipodi:docname="icon-letter-z.svg"
   width="139.8"
   height="139.8"
   inkscape:version="1.4.2 (f4327f4, 2025-05-13)"
   xmlns:inkscape="http://www.inkscape.org/namespaces/inkscape"
   xmlns:sodipodi="http://sodipodi.sourceforge.net/DTD/sodipodi-0.dtd"
   xmlns="http://www.w3.org/2000/svg"
   xmlns:svg="http://www.w3.org/2000/svg"><defs
   id="defs68" /><sodipodi:namedview
   id="namedview68"
   pagecolor="#ffffff"
   bordercolor="#000000"
   borderopacity="0.25"
   inkscape:showpageshadow="2"
   inkscape:pageopacity="0.0"
   inkscape:pagecheckerboard="0"
   inkscape:deskcolor="#d1d1d1"
   inkscape:zoom="1.8510204"
   inkscape:cx="-166.66483"
   inkscape:cy="-267.96031"
   inkscape:window-width="3840"
   inkscape:window-height="2053"
   inkscape:window-x="-11"
   inkscape:window-y="-11"
   inkscape:window-maximized="1"
   inkscape:current-layer="Capa_1" />
<path
   fill="#001a5a"
   d="m 22.240243,0 11.6,1.7 38.4,-1.7 47.999997,12.5 v 3.6 l 1.9,1.8 -1.9,1.8 h -2 v 1.8 h 3.8 l 3.8,-3.6 h 1.9 V 25 l -74.899997,80.8 h 11.5 l 11.6,-1.9 c 15.8,3.7 25.999997,9.1 30.599997,16.2 h 2 v 7.1 l -3.9,3.7 h -1.9 l -9.599997,-3.7 1.9,1.9 v 3.4 l -15.3,-3.4 h -5.7 c -12.4,0 -29.1,3.6 -50,10.7 l -11.5,-8.9 5.7,-14.4 -3.8,-3.6 v -7.1 c 9.5,-14.3 15.2,-21.5 17.3,-21.5 l 1.9,1.8 1.9,-1.8 v -1.8 h -1.9 c 0,-3.6 2.6,-5.4 7.7,-5.4 l 7.7,-9 -1.9,-1.7 5.7,-3.6 1.9,1.8 c 11.4,-15.9 19.1,-24.3 23.1,-25.1 v 1.8 l -21.2,25.1 h 1.9 l 32.7,-35.9 h -1.9 l -7.7,5.4 -1.9,-1.8 v -1.8 l 1.9,-1.8 -19.3,1.8 h -23 c -6.1,-2.7 -10.6,-6.8 -13.5,-12.5 V 18 l 3.8,-5.4 c -2.1,-6 -5.3,-9 -9.6,-9 l 1.9,-1.8 V 0 Z m 26.9,73.5 -9.6,10.8 h 1.9 l 9.6,-10.8 z m 9.6,9 -9.6,10.7 h 1.9 l 9.6,-10.7 z m 13.5,-14.4 -11.6,12.5 h 1.9 l 11.6,-12.5 z"
   id="path46" />

</svg>
