<?xml version="1.0" encoding="UTF-8" standalone="no"?>
<!-- Generator: Adobe Illustrator 18.1.1, SVG Export Plug-In . SVG Version: 6.00 Build 0)  -->

<svg
   version="1.1"
   id="Capa_1"
   x="0px"
   y="0px"
   viewBox="0 0 158.2 158.2"
   enable-background="new 0 0 1400 980"
   xml:space="preserve"
   sodipodi:docname="icon-letter-t.svg"
   width="158.2"
   height="158.2"
   inkscape:version="1.4.2 (f4327f4, 2025-05-13)"
   xmlns:inkscape="http://www.inkscape.org/namespaces/inkscape"
   xmlns:sodipodi="http://sodipodi.sourceforge.net/DTD/sodipodi-0.dtd"
   xmlns="http://www.w3.org/2000/svg"
   xmlns:svg="http://www.w3.org/2000/svg"><defs
   id="defs68" /><sodipodi:namedview
   id="namedview68"
   pagecolor="#ffffff"
   bordercolor="#000000"
   borderopacity="0.25"
   inkscape:showpageshadow="2"
   inkscape:pageopacity="0.0"
   inkscape:pagecheckerboard="0"
   inkscape:deskcolor="#d1d1d1"
   inkscape:zoom="1.8510204"
   inkscape:cx="-318.47299"
   inkscape:cy="-27.012128"
   inkscape:window-width="3840"
   inkscape:window-height="2053"
   inkscape:window-x="-11"
   inkscape:window-y="-11"
   inkscape:window-maximized="1"
   inkscape:current-layer="Capa_1" />
<path
   fill="#336535"
   d="m 139.85976,0 5.7,1.7 v 3.4 h -5.7 l 3.8,5.1 c -2.8,5.7 -13,8.5 -30.6,8.5 l -13.400003,1.7 -1.9,5.1 h 1.9 c -3.8,8.1 -11.5,44.4 -23,108.9 l 5.7,22.1 h -1.9 c -2.9,0 -5.4,-5.7 -7.7,-17 l 1.9,-17 v -1.7 h -1.9 v 3.4 c -3.8,0 -5.7,1.1 -5.7,3.4 v 1.7 l 3.8,27.2 v 1.7 h -3.8 l -7.7,-5.1 -1.9,1.7 h -1.9 c -5.1,-9.8 -7.7,-18.3 -7.7,-25.5 l 1.9,1.7 h 1.9 l -3.8,-11.9 5.7,-1.7 v -8.5 h -3.8 v -1.7 c 3.8,0 5.7,-1.1 5.7,-3.4 v -1.7 h -3.8 c 0,-9.1 1.9,-13.6 5.7,-13.6 V 66.4 c 2,-1.6 4.6,-13.5 7.7,-35.7 l -13.4,1.7 -26.8,-1.7 V 29 l 9.6,-1.7 V 29 l 1.9,-1.7 h 28.7 v -5.1 l -30.6,3.4 -1.9,-1.7 h -1.9 l -11.5,1.7 -5.7,-3.4 1.9,-8.5 -1.9,-1.7 c 0,-5.7 7.7,-8.5 23,-8.5 z m -82.300003,100.4 -3.8,37.4 h 3.8 l -1.9,-8.5 v -3.4 l 3.8,-5.1 h -1.9 l 1.9,-1.7 v -1.7 l -1.9,-1.7 V 114 l 3.8,-6.8 -1.9,-6.8 z M 128.35976,5.1 v 1.7 h 7.7 V 5.1 Z"
   id="path40" />

</svg>
