<?xml version="1.0" encoding="UTF-8" standalone="no"?>
<!-- Generator: Adobe Illustrator 18.1.1, SVG Export Plug-In . SVG Version: 6.00 Build 0)  -->

<svg
   version="1.1"
   id="Capa_1"
   x="0px"
   y="0px"
   viewBox="0 0 153 153"
   enable-background="new 0 0 1400 980"
   xml:space="preserve"
   sodipodi:docname="icon-letter-x.svg"
   width="153"
   height="153"
   inkscape:version="1.4.2 (f4327f4, 2025-05-13)"
   xmlns:inkscape="http://www.inkscape.org/namespaces/inkscape"
   xmlns:sodipodi="http://sodipodi.sourceforge.net/DTD/sodipodi-0.dtd"
   xmlns="http://www.w3.org/2000/svg"
   xmlns:svg="http://www.w3.org/2000/svg"><defs
   id="defs68" /><sodipodi:namedview
   id="namedview68"
   pagecolor="#ffffff"
   bordercolor="#000000"
   borderopacity="0.25"
   inkscape:showpageshadow="2"
   inkscape:pageopacity="0.0"
   inkscape:pagecheckerboard="0"
   inkscape:deskcolor="#d1d1d1"
   inkscape:zoom="1.8510204"
   inkscape:cx="208.26351"
   inkscape:cy="-263.09813"
   inkscape:window-width="3840"
   inkscape:window-height="2053"
   inkscape:window-x="-11"
   inkscape:window-y="-11"
   inkscape:window-maximized="1"
   inkscape:current-layer="Capa_1" />
<path
   fill="#4a72b2"
   d="m 39.580486,0 c 14,6.4 21.1,15.5 21.1,27.2 l 11.5,15.3 5.7,-5.1 h 1.9 l -7.7,10.2 1.9,1.7 h 1.9 C 104.38048,19.8 122.88048,5.1 131.38048,5.1 c 4.7,0 8.5,2.8 11.5,8.5 3.8,0 5.7,1.1 5.7,3.4 0,4.3 -10.8,13.9 -32.5,28.9 L 89.280486,71.4 v 3.4 c 11.499994,16.8 21.099994,35.5 28.699994,56.1 l -1.9,5.1 h 1.9 l -9.6,11.9 h -5.7 v -3.4 l -5.699994,3.4 -24.9,-52.7 h -1.9 c -12.4,13.4 -25.2,32.7 -38.3,57.8 h -3.8 v -3.4 l 1.9,-1.7 -1.9,-1.7 v -1.7 c 6.4,-13.8 17.9,-32.5 34.5,-56.1 h 1.9 v -5.1 c -25.5,31.4 -38.3,51.2 -38.3,59.5 l -7.7,3.4 c -4.1,0 -8.6000008,-4 -13.4000008,-11.9 0,-6.4 15.3000008,-30.2 45.9000008,-71.5 -11.7,-19.4 -18.7,-34.2 -21.1,-44.2 h 1.9 l -7.7,-17 h 1.9 l 1.9,1.7 z M 8.9804852,134.4 51.080486,74.9 c 2.6,0 3.8,-2.3 3.8,-6.8 h -1.9 c -22.6,26.3 -37.3,48.4 -44.0000008,66.3 z M 91.280486,25.5 h 1.9 l -13.4,11.9 v -1.7 z m 3.8,25.6 -3.8,5.1 h 1.9 l 3.8,-5.1 z M 121.88048,1.7 h 1.9 L 95.080486,25.5 h -1.9 V 23.8 Z M 96.980486,134.4 v 1.7 l 1.9,6.8 h 1.899994 v -6.8 l -1.899994,-1.7 z"
   id="path44" />

</svg>
