<?xml version="1.0" encoding="UTF-8" standalone="no"?>
<!-- Generator: Adobe Illustrator 18.1.1, SVG Export Plug-In . SVG Version: 6.00 Build 0)  -->

<svg
   version="1.1"
   id="Capa_1"
   x="0px"
   y="0px"
   viewBox="0 0 158.10001 158.10001"
   enable-background="new 0 0 1400 980"
   xml:space="preserve"
   sodipodi:docname="icon-letter-p.svg"
   width="158.10001"
   height="158.10001"
   inkscape:version="1.4.2 (f4327f4, 2025-05-13)"
   xmlns:inkscape="http://www.inkscape.org/namespaces/inkscape"
   xmlns:sodipodi="http://sodipodi.sourceforge.net/DTD/sodipodi-0.dtd"
   xmlns="http://www.w3.org/2000/svg"
   xmlns:svg="http://www.w3.org/2000/svg"><defs
   id="defs68" /><sodipodi:namedview
   id="namedview68"
   pagecolor="#ffffff"
   bordercolor="#000000"
   borderopacity="0.25"
   inkscape:showpageshadow="2"
   inkscape:pageopacity="0.0"
   inkscape:pagecheckerboard="0"
   inkscape:deskcolor="#d1d1d1"
   inkscape:zoom="1.8510204"
   inkscape:cx="403.83131"
   inkscape:cy="-23.23043"
   inkscape:window-width="3840"
   inkscape:window-height="2053"
   inkscape:window-x="-11"
   inkscape:window-y="-11"
   inkscape:window-maximized="1"
   inkscape:current-layer="Capa_1" />
<path
   fill="#b20053"
   d="m 44.840243,0 1.8,1.7 v 1.7 l 1.9,-1.7 h 9.6 c 2.6,0 3.8,2.8 3.6,8.5 h 1.9 c 0.1,-3.4 1.5,-5.1 4.1,-5.1 2.6,0 3.8,1.7 3.6,5.1 l 13.5,-1.7 20.499997,3.4 7.7,-1.7 c 9.8,0 17.3,4.5 22.5,13.6 l -2,11.9 1.8,1.7 v 1.7 l -4.2,10.2 h -1.9 l 0.1,-3.4 h -1.9 c -9.9,21.3 -23.9,36.1 -41.899997,44.2 l -31.1,11.9 -1,28.9 1.6,8.5 c -2.6,0 -6,5.7 -10.2,17 l -1.9,1.7 h -1.9 l -15.1,-6.8 2.5,-13.6 -5.7,-6.7 4.7,-23.8 -1.9,-1.7 7,-32.3 -1.9,-1.7 2,-1.7 h 3.8 l -0.2,6.8 h 1.9 l 0.3,-8.5 -1.7,-5.1 h 3.8 l 0.2,-8.5 -3.7,-3.4 -0.2,6.8 h -1.9 c 0.3,-7.2 -3.3,-12.9 -10.8,-17 l -1.6,-10.2 0.3,-6.8 c 16.7,-6.1 25.1,-10 25.2,-11.9 l 0.1,-1.7 -3.7,-3.4 -1.9,1.7 -1.8,-6.8 2,-1.7 h 2.1 z m -12.4,78.2 -0.1,1.7 1.8,1.7 -1.9,1.7 -0.2,3.4 h 3.8 l 0.5,-8.5 z M 110.24024,42.5 c -4.1,6.4 -20.399997,16 -48.999997,28.9 l -1.9,1.7 v 1.7 h 3.8 c 18.8,-5.1 35.2,-15.9 48.999997,-32.3 z M 61.440243,66.3 h 3.8 c 16.4,-6.1 30.9,-16.3 43.199997,-30.6 h -5.7 C 77.140243,37.2 64.240243,40.6 64.140243,45.9 Z"
   id="path36" />

</svg>
