<?xml version="1.0" encoding="UTF-8" standalone="no"?>
<!-- Generator: Adobe Illustrator 18.1.1, SVG Export Plug-In . SVG Version: 6.00 Build 0)  -->

<svg
   version="1.1"
   id="Capa_1"
   x="0px"
   y="0px"
   viewBox="0 0 161.5 161.5"
   enable-background="new 0 0 1400 980"
   xml:space="preserve"
   sodipodi:docname="icon-letter-r.svg"
   width="161.5"
   height="161.5"
   inkscape:version="1.4.2 (f4327f4, 2025-05-13)"
   xmlns:inkscape="http://www.inkscape.org/namespaces/inkscape"
   xmlns:sodipodi="http://sodipodi.sourceforge.net/DTD/sodipodi-0.dtd"
   xmlns="http://www.w3.org/2000/svg"
   xmlns:svg="http://www.w3.org/2000/svg"><defs
   id="defs68" /><sodipodi:namedview
   id="namedview68"
   pagecolor="#ffffff"
   bordercolor="#000000"
   borderopacity="0.25"
   inkscape:showpageshadow="2"
   inkscape:pageopacity="0.0"
   inkscape:pagecheckerboard="0"
   inkscape:deskcolor="#d1d1d1"
   inkscape:zoom="1.8510204"
   inkscape:cx="23.500551"
   inkscape:cy="-29.173098"
   inkscape:window-width="3840"
   inkscape:window-height="2053"
   inkscape:window-x="-11"
   inkscape:window-y="-11"
   inkscape:window-maximized="1"
   inkscape:current-layer="Capa_1" />
<path
   fill="#58167d"
   d="m 58.5,0 h 23 c 26.8,4.5 40.2,14.7 40.2,30.6 v 10.2 l -19.1,23.8 h 1.9 l 19.1,-15.3 v 3.4 c -6.5,12.9 -14.8,21.4 -24.9,25.5 l -11.5,3.4 v 6.8 c 2.8,0 16.2,14.7 40.2,44.2 5.1,1.9 10.2,6.4 15.3,13.6 v 1.7 l -9.6,-6.8 v 1.7 c 6.4,6 9.6,10.5 9.6,13.6 h -1.9 l -9.6,5.1 h -1.9 l -3.8,-5.1 -1.9,1.7 h -1.9 C 96.2,139.6 78.3,120.8 68.1,102 L 58.5,85 c -4.5,0 -7.1,6.8 -7.7,20.4 0.8,11.3 0.2,18.2 -1.9,20.7 -3.8,2.7 -4.4,5.5 -1.9,8.2 v 3.4 h -5.7 c -2.6,0 -3.8,-2.3 -3.8,-6.8 h -1.9 c 0,4.5 -2.4,6.2 -7.2,5.1 L 20,126 22.3,110.5 v -6.8 L 33.8,56.1 h 1.9 v 6.8 h 1.9 l 9.6,-35.7 c -2.6,0 -3.8,2.3 -3.8,6.8 H 41.5 V 30.6 H 29.8 v -1.7 c 0,-2.3 3.8,-4 11.5,-5.1 V 22.1 H 37.5 L 26,25.5 h -1.9 c 0,-2.3 2.6,-3.4 7.7,-3.4 v -1.7 c -5.1,0 -7.7,-1.7 -7.7,-5.1 z M 31.7,71.4 v 6.8 h 1.9 v -6.8 z m 3.8,-22.1 h 1.9 v 6.8 H 35.5 Z M 39.3,34 h 1.9 v 5.1 l -1.9,6.8 h -1.9 v -5.1 z m 21.1,27.2 h 1.9 C 82.3,52.7 96.4,43.6 104.4,34 v -3.4 c 0,-3.9 -7.7,-7.8 -23,-11.9 l -11.5,3.4 z m 28.7,61.3 v 1.7 l 7.7,6.8 c -2.5,-5.2 -5.1,-8 -7.7,-8.5 z m 15.3,-81.7 -9.6,11.9 h 1.9 l 9.6,-10.2 V 40.8 Z M 98.7,18.7 c 2.6,5.1 5.1,8 7.7,8.5 v -3.4 z m 0,115.7 v 1.7 l 7.7,5.1 v -1.7 z m 11.5,-105.5 -1.9,8.5 h 1.9 l 1.9,-1.7 v -6.8 z m 13.4,15.3 h 3.8 l -1.9,5.1 h -1.9 z"
   id="path38" />

</svg>
