<?xml version="1.0" encoding="UTF-8" standalone="no"?>
<!-- Generator: Adobe Illustrator 18.1.1, SVG Export Plug-In . SVG Version: 6.00 Build 0)  -->

<svg
   version="1.1"
   id="Capa_1"
   x="0px"
   y="0px"
   viewBox="0 0 137.7 137.7"
   enable-background="new 0 0 1400 980"
   xml:space="preserve"
   sodipodi:docname="icon-letter-v.svg"
   width="137.7"
   height="137.7"
   inkscape:version="1.4.2 (f4327f4, 2025-05-13)"
   xmlns:inkscape="http://www.inkscape.org/namespaces/inkscape"
   xmlns:sodipodi="http://sodipodi.sourceforge.net/DTD/sodipodi-0.dtd"
   xmlns="http://www.w3.org/2000/svg"
   xmlns:svg="http://www.w3.org/2000/svg"><defs
   id="defs68" /><sodipodi:namedview
   id="namedview68"
   pagecolor="#ffffff"
   bordercolor="#000000"
   borderopacity="0.25"
   inkscape:showpageshadow="2"
   inkscape:pageopacity="0.0"
   inkscape:pagecheckerboard="0"
   inkscape:deskcolor="#d1d1d1"
   inkscape:zoom="1.8510204"
   inkscape:cx="604.2613"
   inkscape:cy="-265.2591"
   inkscape:window-width="3840"
   inkscape:window-height="2053"
   inkscape:window-x="-11"
   inkscape:window-y="-11"
   inkscape:window-maximized="1"
   inkscape:current-layer="Capa_1" />
<path
   fill="#7b057e"
   d="M 9.4597574,0 C 24.759757,0 32.459757,4.5 32.459757,13.6 h 1.9 V 8.5 h 3.8 c 5.1,13.3 9.6,31.4 13.4,54.4 h -1.9 l 1.9,1.7 v 15.3 h 3.8 l -1.9,1.7 v 8.5 h 1.9 c 5,-11.3 15.2,-26.6 30.6,-45.9 l 1.9,1.7 3.8,-5.1 h -1.8 l -3.8,3.4 V 42.5 L 107.15976,22.1 h 3.8 l 7.7,6.8 -9.6,10.2 h 5.7 c 0,-3.5 3.8,-7.5 11.5,-11.9 v 5.1 c -5.1,0.5 -7.7,2.2 -7.7,5.1 h 3.8 c 0,-3.4 1.9,-5.1 5.7,-5.1 v 5.1 c -6.5,3.4 -16.1,13.6 -28.700003,30.6 l -40.2,64.6 h -3.8 l -1.9,-1.7 c -3.8,0 -5.7,2.3 -5.7,6.8 h -3.8 c -8.9,0 -13.4,-4 -13.4,-11.9 l 1.9,-5.1 -3.8,3.4 v 5.1 l 1.9,1.7 v 1.7 l -1.9,1.7 h -3.8 l -1.9,-8.5 1.9,-5.1 h -2 l 1.9,-1.7 v -10.2 c -1.6,-62.4 -6,-93.6 -13.4,-93.6 l 1.9,-5.1 z M 26.659757,51.1 v 8.5 h 1.9 v -8.5 z m 2,13.6 v 18.7 h 1.9 V 64.7 Z m 34.4,1.7 v 1.7 l -5.7,6.8 v -1.7 z m -5.7,47.6 1.9,1.7 h 1.9 l 3.8,-10.2 c -2.6,0.5 -5.1,3.4 -7.6,8.5 z m 7.6,-54.4 h 1.9 v 5.1 l -1.9,1.7 h -1.9 v -1.7 z m 2,40.8 v 1.7 l 5.7,-5.1 v -1.7 z m 21,-68.1 V 34 l -17.2,20.5 v -1.7 c 2.9,-6.4 8.7,-13.3 17.2,-20.5 z M 101.35976,20.4 v 1.7 l -7.700003,6.8 h -1.9 c 3,-4.9 6.2,-7.7 9.600003,-8.5 z m 1.9,22.2 -5.700003,8.5 h 1.9 l 5.700003,-6.8 v -1.7 z"
   id="path42" />

</svg>
