<?xml version="1.0" encoding="UTF-8" standalone="no"?>
<!-- Generator: Adobe Illustrator 18.1.1, SVG Export Plug-In . SVG Version: 6.00 Build 0)  -->

<svg
   version="1.1"
   id="Capa_1"
   x="0px"
   y="0px"
   viewBox="0 0 134.2 134.2"
   enable-background="new 0 0 1400 980"
   xml:space="preserve"
   sodipodi:docname="icon-letter-c.svg"
   width="134.2"
   height="134.2"
   inkscape:version="1.4.2 (f4327f4, 2025-05-13)"
   xmlns:inkscape="http://www.inkscape.org/namespaces/inkscape"
   xmlns:sodipodi="http://sodipodi.sourceforge.net/DTD/sodipodi-0.dtd"
   xmlns="http://www.w3.org/2000/svg"
   xmlns:svg="http://www.w3.org/2000/svg"><defs
   id="defs68" /><sodipodi:namedview
   id="namedview68"
   pagecolor="#ffffff"
   bordercolor="#000000"
   borderopacity="0.25"
   inkscape:showpageshadow="2"
   inkscape:pageopacity="0.0"
   inkscape:pagecheckerboard="0"
   inkscape:deskcolor="#d1d1d1"
   inkscape:zoom="1.8510204"
   inkscape:cx="235.27563"
   inkscape:cy="421.92944"
   inkscape:window-width="3840"
   inkscape:window-height="2053"
   inkscape:window-x="-11"
   inkscape:window-y="-11"
   inkscape:window-maximized="1"
   inkscape:current-layer="Capa_1" />
<path
   fill="#001a5a"
   d="m 79,0 h 1.9 c 18.5,0 32.6,6.8 42.1,20.4 v 1.7 h -3.8 l 1.9,1.7 v 1.7 c -7.7,-0.8 -11.5,-1.9 -11.5,-3.4 -29.8,0 -52.1,13.6 -67,40.8 l -3.8,11.9 5.7,32.3 h 5.7 c 15.9,0 33.8,-10.2 53.6,-30.6 h 1.9 v 1.7 C 92.1,95.6 76.8,105.8 59.8,108.8 v 1.7 h 1.9 c 13.4,0 30,-10.2 49.8,-30.6 l 5.7,6.8 v 5.1 c 0,3.7 -9.6,12.2 -28.7,25.5 l -1.9,1.7 h -1.9 v 3.4 c 21.7,-9.4 32.5,-16.2 32.5,-20.4 h 3.8 v 1.7 c -16.1,17 -34.6,25.5 -55.5,25.5 v 1.7 h 9.6 l 7.7,-1.7 h 1.9 v 1.7 l -23,3.3 C 52,134.2 41.8,128 31.1,115.6 v 1.7 l 9.6,13.6 v 1.6 H 35 C 23.1,125.3 16.1,116.3 13.9,105.4 L 12,83.3 C 12,54.9 18.4,36.7 31.1,28.9 v 1.7 l -11.5,17 v 1.7 h 1.9 c 0,-10.8 16,-26.1 47.9,-45.9 L 63.7,5.1 H 61.8 V 3.4 Z M 17.7,100.4 v 5.1 l 1.9,6.8 h 1.9 v -1.7 l -1.9,-10.2 z m 23,-81.7 v 1.7 l -9.6,8.5 V 27.2 Z M 57.9,6.8 h 1.9 v 1.7 l -13.4,5.1 c 0,-2.2 3.9,-4.5 11.5,-6.8 z"
   id="path23" />

</svg>
