<?xml version="1.0" encoding="UTF-8" standalone="no"?>
<!-- Generator: Adobe Illustrator 18.1.1, SVG Export Plug-In . SVG Version: 6.00 Build 0)  -->

<svg
   version="1.1"
   id="Capa_1"
   x="0px"
   y="0px"
   viewBox="0 0 159 159"
   enable-background="new 0 0 1400 980"
   xml:space="preserve"
   sodipodi:docname="icon-letter-f.svg"
   width="159"
   height="159"
   inkscape:version="1.4.2 (f4327f4, 2025-05-13)"
   xmlns:inkscape="http://www.inkscape.org/namespaces/inkscape"
   xmlns:sodipodi="http://sodipodi.sourceforge.net/DTD/sodipodi-0.dtd"
   xmlns="http://www.w3.org/2000/svg"
   xmlns:svg="http://www.w3.org/2000/svg"><defs
   id="defs68" /><sodipodi:namedview
   id="namedview68"
   pagecolor="#ffffff"
   bordercolor="#000000"
   borderopacity="0.25"
   inkscape:showpageshadow="2"
   inkscape:pageopacity="0.0"
   inkscape:pagecheckerboard="0"
   inkscape:deskcolor="#d1d1d1"
   inkscape:zoom="1.8510204"
   inkscape:cx="-315.77178"
   inkscape:cy="429.49283"
   inkscape:window-width="3840"
   inkscape:window-height="2053"
   inkscape:window-x="-11"
   inkscape:window-y="-11"
   inkscape:window-maximized="1"
   inkscape:current-layer="Capa_1" />
<path
   fill="#b20053"
   d="m 96.480486,0 -0.2,3.4 h -5.7 l -0.1,1.7 h 1.9 L 128.88048,3.4 h 7.7 l -0.1,1.7 -3.9,3.4 1.8,1.7 -0.1,3.4 c -0.2,5.9 -2.3,9.3 -6.2,10.2 l 1.8,5.1 -2.3,5.1 -1.8,-1.7 h -1.9 c -17.9,0.8 -26.799994,1.9 -26.899994,3.4 l -1.9,-1.7 c -21.8,3.1 -32.9,8.7 -33.2,17 l -0.6,13.6 46.099994,-3.4 1.9,1.7 -0.1,1.7 h -9.599997 l -0.1,1.7 c 6.399997,0 9.499997,1.1 9.299997,3.4 v 1.7 c -0.2,5.7 -1.6,8.5 -4.2,8.5 H 93.080486 l -0.1,1.7 h 13.399994 l -0.1,3.4 c -0.1,1.9 -16.199994,5.9 -48.399994,11.9 l -2.7,18.7 1.9,1.7 v 1.7 l -2,1.7 -0.1,1.7 1.7,5.1 h -1.9 l 1.7,5.1 c 0.5,4.8 -4,13.6 -13.4,26.4 l -15.3,-1.7 2.6,-17 c -4.9,0 -7.3,-2.1 -7.3,-6.3 v -0.5 c 2,-2.9 4.3,-20.7 7,-53.6 h 3.8 l -1.8,-1.7 2.5,-13.6 1.8,1.7 h 1.9 l 2.7,-17 0.3,-6.8 c -6.4,0 -9.6,-1.1 -9.6,-3.4 l 4.1,-5.1 c -5.1,0 -7.5,-1.7 -7.3,-5.1 0.4,-10.2 2.5,-15.3 6.3,-15.3 6.4,0 9.7,-2.8 9.9,-8.5 h 1.9 l 1.8,1.7 4.1,-3.4 h 5.7 l 5.5,5.1 z m -63.5,95.3 -0.8,18.7 h 1.9 l 0.8,-18.7 z m 2.8,48.5 -0.3,6.8 h 1.9 l 0.3,-6.8 z m 48,-116.6 v 1.7 h 1.9 l 38.299994,-3.4 0.1,-1.7 -5.6,-1.7 -2,1.7 h -1.9 l -1.8,-1.7 z m 17.999994,-18.7 -0.1,1.7 h 5.7 l 21.2,-1.7 V 6.8 h -11.5 z"
   id="path26" />

</svg>
