<?xml version="1.0" encoding="UTF-8" standalone="no"?>
<!-- Generator: Adobe Illustrator 18.1.1, SVG Export Plug-In . SVG Version: 6.00 Build 0)  -->

<svg
   version="1.1"
   id="Capa_1"
   x="0px"
   y="0px"
   viewBox="0 0 146.3 146.3"
   enable-background="new 0 0 1400 980"
   xml:space="preserve"
   sodipodi:docname="icon-letter-i.svg"
   width="146.3"
   height="146.3"
   inkscape:version="1.4.2 (f4327f4, 2025-05-13)"
   xmlns:inkscape="http://www.inkscape.org/namespaces/inkscape"
   xmlns:sodipodi="http://sodipodi.sourceforge.net/DTD/sodipodi-0.dtd"
   xmlns="http://www.w3.org/2000/svg"
   xmlns:svg="http://www.w3.org/2000/svg"><defs
   id="defs68" /><sodipodi:namedview
   id="namedview68"
   pagecolor="#ffffff"
   bordercolor="#000000"
   borderopacity="0.25"
   inkscape:showpageshadow="2"
   inkscape:pageopacity="0.0"
   inkscape:pagecheckerboard="0"
   inkscape:deskcolor="#d1d1d1"
   inkscape:zoom="1.8510204"
   inkscape:cx="402.75083"
   inkscape:cy="215.55678"
   inkscape:window-width="3840"
   inkscape:window-height="2053"
   inkscape:window-x="-11"
   inkscape:window-y="-11"
   inkscape:window-maximized="1"
   inkscape:current-layer="Capa_1" />
<path
   fill="#594e41"
   d="m 86.5,0 c -0.3,3.4 2.1,5.1 7.2,5.1 l 3.5,6.8 -2,1.7 h 1.9 C 87.9,37.6 82.3,65.4 80.3,97 l -0.7,10.2 1.9,1.7 -0.1,1.7 -2,1.7 h 1.9 l -2,1.7 1.1,11.9 -0.2,3.4 c -6.8,7.3 -10.4,13 -10.7,17 h -7.7 l -9.2,-3.4 2.7,-11.9 -7.3,-6.8 3.5,-25.5 1.9,-30.6 4.2,-5.1 0.5,-6.8 -1.8,-1.7 0.1,-1.7 h 3.8 l 0.1,-1.7 -1.8,-1.7 7.8,-32.3 h -1.9 l 2,-1.7 L 67,5.2 65.2,3.5 65.3,1.8 Z m -27.3,130.9 -0.6,8.5 3.9,-3.4 0.5,-5.1 z m 0.3,-68 -0.6,10.2 h 1.9 l 0.6,-10.2 z m 3,-15.3 -0.7,10.2 h 1.9 l 0.7,-10.2 z m 2.9,-17 -0.7,11.9 h 1.9 l 0.7,-11.9 z"
   id="path29" />

</svg>
