<?xml version="1.0" encoding="UTF-8" standalone="no"?>
<!-- Generator: Adobe Illustrator 18.1.1, SVG Export Plug-In . SVG Version: 6.00 Build 0)  -->

<svg
   version="1.1"
   id="Capa_1"
   x="0px"
   y="0px"
   viewBox="0 0 152.8 152.8"
   enable-background="new 0 0 1400 980"
   xml:space="preserve"
   sodipodi:docname="icon-letter-g.svg"
   width="152.8"
   height="152.8"
   inkscape:version="1.4.2 (f4327f4, 2025-05-13)"
   xmlns:inkscape="http://www.inkscape.org/namespaces/inkscape"
   xmlns:sodipodi="http://sodipodi.sourceforge.net/DTD/sodipodi-0.dtd"
   xmlns="http://www.w3.org/2000/svg"
   xmlns:svg="http://www.w3.org/2000/svg"><defs
   id="defs68" /><sodipodi:namedview
   id="namedview68"
   pagecolor="#ffffff"
   bordercolor="#000000"
   borderopacity="0.25"
   inkscape:showpageshadow="2"
   inkscape:pageopacity="0.0"
   inkscape:pagecheckerboard="0"
   inkscape:deskcolor="#d1d1d1"
   inkscape:zoom="1.8510204"
   inkscape:cx="-490.81036"
   inkscape:cy="421.3892"
   inkscape:window-width="3840"
   inkscape:window-height="2053"
   inkscape:window-x="-11"
   inkscape:window-y="-11"
   inkscape:window-maximized="1"
   inkscape:current-layer="Capa_1" />
<path
   fill="#bf3376"
   d="m 78.1,0 1.7,1.7 h 1.9 L 81.9,0 C 103,4.8 113,11.6 112,20.4 l 2.5,10.2 h -3.8 c 0.5,-4.5 -0.5,-6.8 -3,-6.8 h -1.9 l 1,8.5 -0.3,1.7 h -3.8 c -2.6,0 -3.6,-1.7 -3.2,-5.1 l -2.1,1.7 H 95.5 C 89.1,26.1 83,23.8 77.1,23.8 64.3,23.8 49.5,35.7 32.6,59.5 l -6.1,18.7 c -1.9,15.1 5.1,25.9 20.9,32.3 l -0.5,3.4 h -3.8 l -0.2,1.7 h 3.8 c 9.1,0 22.4,-10.2 40.1,-30.6 L 87,83.3 H 85.1 C 75,94.2 65.7,102.1 57.3,107.1 H 55.4 L 79.2,85 H 65.8 c 0.3,-2.3 -1.5,-3.4 -5.3,-3.4 L 58.8,79.9 59,78.2 c 0.2,-2.3 6.8,-4 19.7,-5.1 L 79.1,69.7 77,71.4 H 65.5 l -10,-11.9 2.1,-1.7 0.1,-1.7 20.9,1.7 50.3,-5.1 0.2,-1.7 c -6.4,0 -9.4,-1.1 -9.1,-3.4 h 1.9 l 1.7,1.7 2.1,-1.7 h 1.9 c 13.6,3.5 20.2,6.3 19.9,8.5 l -0.1,1.7 -2.1,1.7 -0.2,1.7 h 7.7 l -0.4,3.4 h -1.9 l -31,3.4 -0.2,1.7 h 1.9 l 17.5,-1.7 -0.4,3.4 c -12.8,0 -19.7,4.5 -20.8,13.6 l -9.1,27.2 1.8,1.7 -0.2,1.7 -3,8.5 0.3,13.6 -4.2,3.4 1.6,1.7 c -5.3,1.5 -8.1,4.3 -8.6,8.5 h -5.7 c -2.6,0 -3.2,-5.1 -2,-15.3 H 86.5 L 85,147.9 h -5.7 l 1,-8.5 -0.4,-11.9 h -3.8 c -7.3,4.5 -14.6,6.8 -22,6.8 h -9.6 l -3.3,-3.4 0.1,-1.7 h 3.8 l 0.2,-1.7 C 18.8,127.5 4.5,119.6 2.3,103.7 0.8,96.4 0,89 0,81.7 0,77.2 0.3,72.6 0.9,68 l 0.3,-3.4 c 1.1,-8.7 5.7,-20 13.7,-34 h 1.9 L 16.4,34 9.2,45.9 9.1,47.6 H 11 C 12.3,37.3 24.7,24.2 48.3,8.5 h 1.9 l 0.2,-1.7 h -1.9 l -6,1.7 C 46.3,2.9 58.2,0 78.1,0 Z M 25.7,22.1 25.4,23.8 17,30.6 17.2,28.9 Z M 38.6,10.2 h 1.9 l -14.9,11.9 0.2,-1.7 z m 10.3,119.1 -0.1,1.7 h 9.6 l 0.1,-1.7 z m 4.6,-22.1 h 1.9 l -4.2,3.4 h -1.9 z m 9.3,17 16.2,-6.8 0.5,-3.4 h -1.9 z m 4,-110.6 -0.1,1.7 h 13.4 l 0.1,-1.7 z m 43.6,35.8 h 7.7 l -4.3,3.4 z"
   id="path27" />

</svg>
