<?xml version="1.0" encoding="UTF-8" standalone="no"?>
<!-- Generator: Adobe Illustrator 18.1.1, SVG Export Plug-In . SVG Version: 6.00 Build 0)  -->

<svg
   version="1.1"
   id="Capa_1"
   x="0px"
   y="0px"
   viewBox="0 0 156.10001 156.10001"
   enable-background="new 0 0 1400 980"
   xml:space="preserve"
   sodipodi:docname="icon-letter-w.svg"
   width="156.10001"
   height="156.10001"
   inkscape:version="1.4.2 (f4327f4, 2025-05-13)"
   xmlns:inkscape="http://www.inkscape.org/namespaces/inkscape"
   xmlns:sodipodi="http://sodipodi.sourceforge.net/DTD/sodipodi-0.dtd"
   xmlns="http://www.w3.org/2000/svg"
   xmlns:svg="http://www.w3.org/2000/svg"><defs
   id="defs68" /><sodipodi:namedview
   id="namedview68"
   pagecolor="#ffffff"
   bordercolor="#000000"
   borderopacity="0.25"
   inkscape:showpageshadow="2"
   inkscape:pageopacity="0.0"
   inkscape:pagecheckerboard="0"
   inkscape:deskcolor="#d1d1d1"
   inkscape:zoom="1.8510204"
   inkscape:cx="139.11246"
   inkscape:cy="168.01544"
   inkscape:window-width="3840"
   inkscape:window-height="2053"
   inkscape:window-x="-11"
   inkscape:window-y="-11"
   inkscape:window-maximized="1"
   inkscape:current-layer="Capa_1" />
<path
   fill="#336535"
   d="m 11.4,10.880486 h 5.7 l 1.9,8.5 c 3.8,0 5.7,-1.7 5.7,-5.1 h 1.9 l 3.8,3.4 -1.9,10.2 h 1.9 l -1.9,1.7 v 1.7 l 1.9,1.7 v 1.7 h -1.9 l 1.9,1.7 v 1.7 l -1.9,56.1 v 1.7 h 1.9 l 5.7,-17 h 3.8 L 26.5,111.18048 h 3.8 l 23,-57.799994 h -3.8 l -7.7,22.1 H 38 v -1.7 l 13.4,-27.2 h 1.9 v 3.4 l 15.3,-3.4 c 5.1,1.7 7.7,3.4 7.7,5.1 l 1.9,-1.7 h 5.7 l 7.7,40.8 h 1.9 c 0,-5.1 10.1,-34.3 30.2,-87.7000008 h 1.9 l 1.9,5.1 h 1.9 v -3.4 h 1.9 c 9.5,0 14.6,1.7 15.3,5.1 v 3.4000008 l -3.8,5.1 v 1.7 h 3.8 l 1.9,-11.9000008 h 3.8 l 3.8,3.4000008 v 1.7 l -43.6,133.599994 -5.7,1.7 v -3.4 l -1.9,1.7 H 103 l -1.9,-1.7 c 0,4.5 -1.9,6.8 -5.7,6.8 -10.2,-0.8 -15.3,-2.5 -15.3,-5.1 H 82 c -1.3,-5.7 -3.8,-9.6 -7.7,-11.9 L 66.6,97.580486 c -2.2,0.1 -9.8,15.899994 -23,47.599994 l -9.6,8.5 h -1.5 l -1.9,-6.8 c 19.5,-28.7 29.7,-50.799994 30.6,-66.299994 -3.4,3 -11.7,19.999994 -24.9,50.999994 -1.6,0 -4.1,6.8 -7.7,20.4 H 11.4 l -1.9,-6.8 -1.9,1.7 H 5.7 c 0,-6.1 -1.9,-10.7 -5.7,-13.6 v -6.8 l 7.7,5.1 -3.8,-28.9 1.9,-1.7 -1.9,-1.699994 1.9,-1.7 H 3.9 l 1.9,-1.7 v -23.8 l 1.9,-8.5 H 5.8 l 1.9,-1.7 v -44.2 l -1.9,-1.7 v -1.7 z m 112.5,0.8 c -18.8,52.1 -28.3,81.3 -28.3,87.7 v 1.699994 h 1.9 L 127.7,11.680486 Z M 109,118.08048 l -3.8,15.3 v 3.4 h 1.9 l 3.8,-17 v -1.7 z m 11.5,-40.799994 -3.8,15.3 v 1.7 h 1.9 l 3.8,-15.3 v -1.7 z"
   id="path43" />

</svg>
