<?xml version="1.0" encoding="UTF-8" standalone="no"?>
<!-- Generator: Adobe Illustrator 18.1.1, SVG Export Plug-In . SVG Version: 6.00 Build 0)  -->

<svg
   version="1.1"
   id="Capa_1"
   x="0px"
   y="0px"
   viewBox="0 0 156.30001 156.3"
   enable-background="new 0 0 1400 980"
   xml:space="preserve"
   sodipodi:docname="icon-letter-y.svg"
   width="156.3"
   height="156.3"
   inkscape:version="1.4.2 (f4327f4, 2025-05-13)"
   xmlns:inkscape="http://www.inkscape.org/namespaces/inkscape"
   xmlns:sodipodi="http://sodipodi.sourceforge.net/DTD/sodipodi-0.dtd"
   xmlns="http://www.w3.org/2000/svg"
   xmlns:svg="http://www.w3.org/2000/svg"><defs
   id="defs68" /><sodipodi:namedview
   id="namedview68"
   pagecolor="#ffffff"
   bordercolor="#000000"
   borderopacity="0.25"
   inkscape:showpageshadow="2"
   inkscape:pageopacity="0.0"
   inkscape:pagecheckerboard="0"
   inkscape:deskcolor="#d1d1d1"
   inkscape:zoom="1.8510204"
   inkscape:cx="10.53473"
   inkscape:cy="-261.4774"
   inkscape:window-width="3840"
   inkscape:window-height="2053"
   inkscape:window-x="-11"
   inkscape:window-y="-11"
   inkscape:window-maximized="1"
   inkscape:current-layer="Capa_1" />
<path
   fill="#594e41"
   d="m 111.41952,0 h 1.9 v 3.4 l 1.9,-1.7 h 1.9 c 8.9,2.7 13.4,4.9 13.4,6.8 l -9.6,10.2 h 3.8 c 5.1,-2.3 7.7,-5.2 7.7,-8.5 h 5.7 v 1.7 l -1.9,1.7 1.9,1.7 V 17 C 92.819514,60.4 70.619514,94.9 71.719514,120.7 l -3.8,16.9 1.9,1.7 v 1.7 l -9.6,15.3 -15.3,-1.7 V 141 l -5.7,-6.7 v -3.4 l 1.9,-20.4 1.9,1.7 h 1.9 l -1.9,-1.7 v -1.7 l 1.9,-1.7 v -1.7 l -1.9,-1.7 5.7,-1.7 -1.9,8.5 v 6.8 h 1.9 l 2.3,-20.5 -1.9,-5.1 h -1.9 v 5.1 h -1.9 l -1.9,-13.6 1.9,-1.7 v -1.7 l -26.4,-59.7 v -3.4 h 3.8 l -3.8,-8.5 1.9,-1.7 h 3.8 c 2.9,0 4.8,2.8 5.7,8.5 l 5.7,-3.4 h 5.7 c 0,7 6.9,21.8 20.6,44.4 7.4,-12.4 13.7,-19.8 19.1,-22.1 v 1.7 c -12.4,14.4 -18.8,22.9 -18.8,25.5 v 1.7 h 1.9 L 109.51952,8.6 V 6.9 L 87.419514,27.1 V 25.4 Z M 50.819514,144.4 v 6.8 h 1.9 v -6.8 z M 113.41952,25.5 C 85.919514,56.8 72.219514,74.9 72.219514,79.7 h 3.8 c 11,-18.9 24.100006,-37 39.300006,-54.2 z M 87.519514,27 v 1.7 l -3.8,3.4 v -1.7 z"
   id="path45" />

</svg>
