<?xml version="1.0" encoding="UTF-8" standalone="no"?>
<!-- Generator: Adobe Illustrator 18.1.1, SVG Export Plug-In . SVG Version: 6.00 Build 0)  -->

<svg
   version="1.1"
   id="Capa_1"
   x="0px"
   y="0px"
   viewBox="0 0 151.30001 151.3"
   enable-background="new 0 0 1400 980"
   xml:space="preserve"
   sodipodi:docname="icon-letter-m.svg"
   width="151.3"
   height="151.3"
   inkscape:version="1.4.2 (f4327f4, 2025-05-13)"
   xmlns:inkscape="http://www.inkscape.org/namespaces/inkscape"
   xmlns:sodipodi="http://sodipodi.sourceforge.net/DTD/sodipodi-0.dtd"
   xmlns="http://www.w3.org/2000/svg"
   xmlns:svg="http://www.w3.org/2000/svg"><defs
   id="defs68" /><sodipodi:namedview
   id="namedview68"
   pagecolor="#ffffff"
   bordercolor="#000000"
   borderopacity="0.25"
   inkscape:showpageshadow="2"
   inkscape:pageopacity="0.0"
   inkscape:pagecheckerboard="0"
   inkscape:deskcolor="#d1d1d1"
   inkscape:zoom="1.8510204"
   inkscape:cx="-251.48291"
   inkscape:cy="218.25799"
   inkscape:window-width="3840"
   inkscape:window-height="2053"
   inkscape:window-x="-11"
   inkscape:window-y="-11"
   inkscape:window-maximized="1"
   inkscape:current-layer="Capa_1" />
<path
   fill="#4a72b2"
   d="m 39.3,1.7 h 3.8 l 5.4,3.4 0.1,-1.7 c 6.8,1.1 11.7,4 14.5,8.5 4.4,0 9,11.9 13.7,35.7 l 26.5,-35.7 2,-1.7 h 1.9 L 107.1,11.9 80,54.4 h 3.8 c 20,-35.2 32,-52.7 35.8,-52.7 l 5.4,3.4 0.1,-1.7 c 5.5,0 12,5.7 19.5,17 l -0.6,5.1 -2,1.7 1.7,1.7 -0.7,6.8 h -3.8 l 2.8,10.2 -3.7,18.7 -0.6,5.1 1.8,1.7 -0.2,1.7 -4.1,3.4 3.4,3.4 -4.1,3.4 3.4,3.4 -2,1.7 H 134 l 1.8,1.7 -4.7,47.6 c -3.8,0 -5.9,1.7 -6.2,5.1 -3.8,0 -6,2.8 -6.6,8.5 h -5.7 l -10.8,-6.8 2.9,-10.2 -2.8,-10.2 13,-73.2 c -6.4,5.9 -13.4,18.4 -20.9,37.4 -0.7,6.6 -3.7,11.1 -9,13.6 h -1.9 l 0.1,-1.7 2.1,-1.7 0.2,-1.7 -1.8,-1.7 4.2,-3.4 0.5,-5.1 h -3.8 c -0.5,6.2 -3.5,10.7 -9,13.6 H 73.7 L 65,91.7 c -3.4,0 -5.4,-5.1 -6.1,-15.3 -6.5,-11.8 -9.5,-20.3 -9,-25.5 H 48 l -3.9,20.4 -1.4,13.6 -2.4,5.1 1,8.5 -3.6,37.4 c -2.6,0 -4,1.7 -4.4,5.1 l -10.4,8.5 H 21 l -13,-5.1 2.8,-8.5 -0.1,-18.7 0.8,-8.5 2,-1.7 -1.7,-1.7 0.2,-1.7 C 13.7,86.3 17.5,67.5 23.3,47.5 h 1.9 l -1.8,-1.7 0.2,-1.7 2.6,-6.8 -1.4,-6.8 0.2,-1.7 h 1.9 l -0.3,3.4 h 1.9 l 0.6,-5.1 -1.8,-1.7 7,-11.9 0.4,-5.1 -2.1,1.7 H 30.7 L 29,8.4 29.5,3.3 h 1.9 L 33.2,5 h 1.9 z m 48,76.5 1.5,5.1 h 1.9 c 0.5,-6.1 8.4,-21.4 23.6,-45.9 l 2.7,-8.5 c -9.5,10.5 -19.4,27 -29.7,49.3 z M 110.3,0 h 3.8 l -0.3,3.4 -4.5,6.8 -1.7,-1.7 h -1.9 z m -1.4,130.9 -1.4,13.6 h 1.9 l 2.8,-8.5 -1.5,-5.1 z m 12.5,-88.4 -2,1.7 -4.3,42.5 h 1.9 l 5.5,-35.7 -1.8,-1.7 h 1.9 l -1.7,-1.7 0.1,-1.7 2.1,-1.7 0.1,-1.7 z"
   id="path33" />

</svg>
