<?xml version="1.0" encoding="UTF-8" standalone="no"?>
<!-- Generator: Adobe Illustrator 18.1.1, SVG Export Plug-In . SVG Version: 6.00 Build 0)  -->

<svg
   version="1.1"
   id="Capa_1"
   x="0px"
   y="0px"
   viewBox="0 0 151.39999 151.39999"
   enable-background="new 0 0 1400 980"
   xml:space="preserve"
   sodipodi:docname="icon-letter-k.svg"
   width="151.39999"
   height="151.39999"
   inkscape:version="1.4.2 (f4327f4, 2025-05-13)"
   xmlns:inkscape="http://www.inkscape.org/namespaces/inkscape"
   xmlns:sodipodi="http://sodipodi.sourceforge.net/DTD/sodipodi-0.dtd"
   xmlns="http://www.w3.org/2000/svg"
   xmlns:svg="http://www.w3.org/2000/svg"><defs
   id="defs68" /><sodipodi:namedview
   id="namedview68"
   pagecolor="#ffffff"
   bordercolor="#000000"
   borderopacity="0.25"
   inkscape:showpageshadow="2"
   inkscape:pageopacity="0.0"
   inkscape:pagecheckerboard="0"
   inkscape:deskcolor="#d1d1d1"
   inkscape:zoom="1.8510204"
   inkscape:cx="117.50276"
   inkscape:cy="221.49945"
   inkscape:window-width="3840"
   inkscape:window-height="2053"
   inkscape:window-x="-11"
   inkscape:window-y="-11"
   inkscape:window-maximized="1"
   inkscape:current-layer="Capa_1" />
<path
   fill="#76aadb"
   d="m 44.9,3.4 1.9,15.3 c 2.6,0 4.5,-3.4 5.7,-10.2 h 1.9 l 1.9,6.8 -5.7,27.2 21.1,-13.6 h 1.9 l -23,18.7 v 1.7 l 44,-28.9 1.9,1.7 C 113.7,9.6 125.2,3.4 131,3.4 h 1.9 l 1.9,6.8 -15.3,13.6 h 1.9 C 124,19.3 127.8,17 132.9,17 l 1.9,1.7 V 17 l -1.9,-1.7 1.9,-1.7 h 5.7 l 1.9,5.1 c -9.6,4 -31.9,18.7 -67,44.2 8.6,16.7 23.9,39.4 45.9,68 v 3.4 l -1.9,11.9 -1.9,-1.7 h -1.9 l -1.8,6.9 h -7.7 V 148 h -1.9 v 3.4 h -3.8 c 0,-4 -14,-25 -42.1,-62.9 L 54.5,78.3 44.9,80 c -1.7,27.3 -5.7,44.3 -12,51 v 1.7 L 13.8,131 v -5.1 L 15.7,114 c -3.8,0 -5.7,-3.4 -5.7,-10.2 2.1,-11.3 4.2,-17 6.3,-17 L 14.4,85.1 C 18.2,53.9 22.1,35.2 25.9,29 L 24,23.9 29.7,10.3 V 8.6 L 27.8,6.9 V 5.2 h 3.8 v 11.9 h 1.9 L 35.4,12 33.5,10.3 V 8.6 c 1.2,-3.5 5,-5.2 11.4,-5.2 z M 29.6,22.1 27.7,32.3 v 6.8 h 1.9 L 31.5,23.8 V 22.1 Z M 85.1,20.4 H 87 l -11.5,8.5 h -1.9 z m -7.7,103.7 h 1.9 l 5.7,5.1 h -1.9 z m 7.7,5.1 c 3.2,0 6.4,5.7 9.6,17 v 1.7 H 92.8 Z M 94.6,13.6 h 1.9 l -7.7,6.8 H 86.9 Z M 119.5,0 l 1.9,1.7 v 1.7 l -1.9,1.7 -1.9,-1.7 h -1.9 L 98.5,13.6 h -1.9 c 0,-3 7.6,-7.6 22.9,-13.6 z m -9.5,27.2 -7.7,5.1 -1.9,1.7 v 1.7 h 1.9 l 7.7,-5.1 1.9,-1.7 v -1.7 z"
   id="path31" />

</svg>
