<?xml version="1.0" encoding="UTF-8" standalone="no"?>
<!-- Generator: Adobe Illustrator 18.1.1, SVG Export Plug-In . SVG Version: 6.00 Build 0)  -->

<svg
   version="1.1"
   id="Capa_1"
   x="0px"
   y="0px"
   viewBox="0 0 149.7 149.7"
   enable-background="new 0 0 1400 980"
   xml:space="preserve"
   sodipodi:docname="icon-mark-question.svg"
   width="149.7"
   height="149.7"
   inkscape:version="1.4.3 (0d15f75, 2025-12-25)"
   xmlns:inkscape="http://www.inkscape.org/namespaces/inkscape"
   xmlns:sodipodi="http://sodipodi.sourceforge.net/DTD/sodipodi-0.dtd"
   xmlns="http://www.w3.org/2000/svg"
   xmlns:svg="http://www.w3.org/2000/svg"><defs
   id="defs68" /><sodipodi:namedview
   id="namedview68"
   pagecolor="#ffffff"
   bordercolor="#000000"
   borderopacity="0.25"
   inkscape:showpageshadow="2"
   inkscape:pageopacity="0.0"
   inkscape:pagecheckerboard="0"
   inkscape:deskcolor="#d1d1d1"
   inkscape:zoom="1.8520408"
   inkscape:cx="-335.03581"
   inkscape:cy="-263.22314"
   inkscape:window-width="3840"
   inkscape:window-height="2054"
   inkscape:window-x="-11"
   inkscape:window-y="-11"
   inkscape:window-maximized="1"
   inkscape:current-layer="Capa_1" />
<path
   fill="#002e82"
   d="m 99.879885,0 c 31.499995,1.1 47.199995,4.5 47.199995,10 v 0.2 l -0.5,5.1 v 28.9 c -14.6,12.9 -35.1,23.7 -61.39999,32.3 l -0.1,1.7 1.8,1.7 c -0.2,3.4 -4.8,5.7 -13.8,6.8 l -0.1,1.7 h 5.7 l 2,-1.7 1.8,1.7 2,-1.7 -0.6,6.8 -15.4,3.4 0.1,-1.7 -5.9,1.7 c -10.1,-2.1 -15.1,-4.3 -15,-6.8 4.1,-2.7 6.3,-8.3 6.9,-17 l 8.2,-6.8 h -1.9 l -6,3.4 0.2,-5.1 c 13.9,-11.3 24.5,-17 31.9,-17 l -0.1,1.7 c -0.2,1.9 -4.1,4.1 -11.9,6.8 l -14.1,8.5 h 3.8 c 17.5,-4.1 36.59999,-13.1 57.39999,-27.2 h 1.9 l 0.1,-3.4 h -1.9 l -11.7,5.1 0.1,-3.4 h 3.8 l 0.3,-3.4 H 95.57989 l -28.9,1.7 c -0.3,5.5 -10.1,10 -29.5,13.6 l -14.2,11.9 h -1.9 l 0.3,-6.8 h 1.9 l 1.8,1.7 h 1.9 l 0.1,-1.7 -1.7,-1.7 2,-1.7 h -1.9 c -6.6,2.7 -10,6.1 -10.2,10.2 C 7.5798898,59.5 3.9798898,56.7 4.3798898,51 l 4.1,-3.4 c -3.6,0 -5.4,-1.5 -5.4,-4.5 v -0.5 l 2.7,-11.9 -1.8,-1.7 c 3.1,-2.3 7.6000002,-3.4 13.5000002,-3.4 1,-14.1 27.7,-22.6 80.3,-25.5 h 2.099995 z M 35.47989,17 h 1.9 c 19.8,-6.8 39.8,-10.2 60,-10.2 19.39999,0 33.89999,2.3 43.69999,6.8 l 0.2,-3.4 c -11,-3.4 -23.6,-5.1 -37.9,-5.1 h -5.69999 c -28.1,0 -48.8,4 -62.2,11.9 z m 9,66.4 h 1.9 l -4.4,8.5 h -5.7 l 0.5,-5.1 z m 42.6,23.8 1.7,1.7 -0.1,1.7 -11.6,1.7 v 1.7 h 15.3 l -0.1,1.7 h -3.8 l -0.1,1.7 h 3.8 l -0.2,1.7 c -12.1,9.1 -18.2,14.8 -18.2,17 h 3.8 c -0.7,9.1 -9.3,13.6 -25.9,13.6 l -5.6,-1.7 0.5,-5.1 c 3.8,0 5.8,-1.1 5.9,-3.4 l -7.3,-3.4 4.6,-11.9 -3.7,-3.4 c 0.1,-5.6 13.9,-10.1 41,-13.6 z m -2.9,-73.2 h 1.9 l -0.1,1.7 -7.7,1.7 c 0.1,-2.2 2,-3.4 5.9,-3.4 z m -0.3,34.1 -0.1,1.7 h 5.7 C 101.37988,63 109.27988,59.6 113.07988,59.6 l 0.1,-1.7 h -3.8 z m 10.7,-46 -0.1,1.7 h 11.49999 l 0.1,-1.7 z m 13.39999,0 -0.1,1.7 h 7.7 l 0.1,-1.7 z"
   id="path47" />

</svg>
