<?xml version="1.0" encoding="UTF-8" standalone="no"?>
<!-- Generator: Adobe Illustrator 18.1.1, SVG Export Plug-In . SVG Version: 6.00 Build 0)  -->

<svg
   version="1.1"
   id="Capa_1"
   x="0px"
   y="0px"
   viewBox="0 0 161.5 161.5"
   enable-background="new 0 0 1400 980"
   xml:space="preserve"
   sodipodi:docname="icon-letter-q.svg"
   width="161.5"
   height="161.5"
   inkscape:version="1.4.2 (f4327f4, 2025-05-13)"
   xmlns:inkscape="http://www.inkscape.org/namespaces/inkscape"
   xmlns:sodipodi="http://sodipodi.sourceforge.net/DTD/sodipodi-0.dtd"
   xmlns="http://www.w3.org/2000/svg"
   xmlns:svg="http://www.w3.org/2000/svg"><defs
   id="defs68" /><sodipodi:namedview
   id="namedview68"
   pagecolor="#ffffff"
   bordercolor="#000000"
   borderopacity="0.25"
   inkscape:showpageshadow="2"
   inkscape:pageopacity="0.0"
   inkscape:pagecheckerboard="0"
   inkscape:deskcolor="#d1d1d1"
   inkscape:zoom="1.8510204"
   inkscape:cx="223.3903"
   inkscape:cy="-28.632856"
   inkscape:window-width="3840"
   inkscape:window-height="2053"
   inkscape:window-x="-11"
   inkscape:window-y="-11"
   inkscape:window-maximized="1"
   inkscape:current-layer="Capa_1" />
<path
   fill="#7b057e"
   d="m 94.6,0 h 1.9 l 1.9,1.7 1.9,-1.7 h 1.9 c 29.4,12 44,26.8 44,44.2 v 11.9 c 0,24.2 -8.9,45.7 -26.8,64.6 v 3.4 c 6.8,4.1 13.1,10.3 19.1,18.7 v 1.7 c -8.4,11.3 -14.2,17 -17.2,17 -7.9,0 -16.2,-7.4 -24.9,-22.1 L 83,141.1 H 71.5 L 60,139.4 h -1.9 v 1.7 l 9.6,1.7 v 1.7 l -11.5,1.7 C 29.4,134.3 16,120.1 16,103.7 16,70.9 26.2,46 46.6,28.8 V 27.1 C 60.2,12.4 69.8,5 75.3,5 V 6.7 L 77.2,8.4 94.4,1.6 V 0 Z m -74.7,102.1 1.9,10.2 h 1.9 v -8.5 l -1.9,-1.7 z m 15.3,17 v 1.7 c 0,5.5 7,11.8 21.1,18.7 v -1.7 C 44.7,131.3 38.4,125.1 37.2,119.1 Z m 7.7,-27.2 v 3.4 c 0,9.7 3.8,17 11.5,22.1 h 5.7 c 7.4,0 15,-4 23,-11.9 l -7.7,-17 1.9,-1.7 h 3.8 v 3.4 L 83,88.5 h 1.9 l 13.4,3.4 C 111.1,74.2 117.4,58.3 117.4,44.3 V 35.8 C 114.2,30.1 109.1,27.3 102.1,27.3 90.3,27.3 75,38.1 56.2,59.6 47.4,74.3 42.9,85 42.9,91.9 Z m 47.9,-73.2 5.7,1.7 15.3,-3.4 v -1.7 h -7.7 l -1.9,1.7 h -1.9 v -1.7 l 1.9,-1.7 v -1.7 h -3.8 c -4.2,1.1 -6.7,3.4 -7.6,6.8 z m 21,64.6 c -7.7,7.1 -11.5,12.2 -11.5,15.3 4.1,-1.6 8.5,-6.7 13.4,-15.3 z m -3.8,-62.9 -1.9,1.7 v 1.7 l 11.5,1.7 v -3.4 z m 13.4,23.8 c 0,6.5 -2.6,16.7 -7.7,30.6 6.4,-1.9 9.6,-10.4 9.6,-25.5 v -5.1 z m -7.7,66.4 v 1.7 h 1.9 l 13.4,-17 v -1.7 c -6.3,4.5 -11.4,10.2 -15.3,17 z m 23,-68.1 c 0,15.7 -1.9,30.4 -5.7,44.2 v 1.7 h 1.9 l 7.7,-35.7 -1.9,-10.2 z"
   id="path37" />

</svg>
