<?xml version="1.0" encoding="UTF-8" standalone="no"?>
<svg
   viewBox="0 0 40 40"
   width="200"
   height="200"
   version="1.1"
   id="svg15"
   sodipodi:docname="icons8-canvas-student.svg"
   inkscape:version="1.4.3 (0d15f75, 2025-12-25)"
   xmlns:inkscape="http://www.inkscape.org/namespaces/inkscape"
   xmlns:sodipodi="http://sodipodi.sourceforge.net/DTD/sodipodi-0.dtd"
   xmlns="http://www.w3.org/2000/svg"
   xmlns:svg="http://www.w3.org/2000/svg">
  <defs
     id="defs15" />
  <sodipodi:namedview
     id="namedview15"
     pagecolor="#ffffff"
     bordercolor="#000000"
     borderopacity="0.25"
     inkscape:showpageshadow="2"
     inkscape:pageopacity="0.0"
     inkscape:pagecheckerboard="0"
     inkscape:deskcolor="#d1d1d1"
     inkscape:zoom="7.5625"
     inkscape:cx="100.03306"
     inkscape:cy="100.03306"
     inkscape:window-width="3840"
     inkscape:window-height="2054"
     inkscape:window-x="-11"
     inkscape:window-y="-11"
     inkscape:window-maximized="1"
     inkscape:current-layer="svg15" />
  <path
     fill="#e53935"
     d="M 25.93,0.89 C 25.5,3.78 23.01,6 20,6 16.99,6 14.5,3.78 14.07,0.89 15.95,0.31 17.94,0 20,0 c 2.06,0 4.05,0.31 5.93,0.89 z"
     id="path1" />
  <path
     fill="#e53935"
     d="m 10.1,10.1 c -2.12,2.12 -5.45,2.32 -7.79,0.58 1.87,-3.57 4.8,-6.5 8.37,-8.37 1.74,2.34 1.54,5.67 -0.58,7.79 z"
     id="path2" />
  <path
     fill="#e53935"
     d="M 6,20 C 6,23.01 3.78,25.5 0.89,25.93 0.31,24.05 0,22.06 0,20 0,17.94 0.31,15.95 0.89,14.07 3.78,14.5 6,16.99 6,20 Z"
     id="path3" />
  <path
     fill="#e53935"
     d="m 10.68,37.69 c -3.57,-1.87 -6.5,-4.8 -8.37,-8.37 2.34,-1.74 5.67,-1.54 7.79,0.58 2.12,2.12 2.32,5.45 0.58,7.79 z"
     id="path4" />
  <path
     fill="#e53935"
     d="M 25.93,39.11 C 24.05,39.69 22.06,40 20,40 17.94,40 15.95,39.69 14.07,39.11 14.5,36.22 16.99,34 20,34 c 3.01,0 5.5,2.22 5.93,5.11 z"
     id="path5" />
  <path
     fill="#e53935"
     d="m 37.69,29.32 c -1.87,3.57 -4.8,6.5 -8.37,8.37 -1.74,-2.34 -1.54,-5.67 0.58,-7.79 2.12,-2.12 5.45,-2.32 7.79,-0.58 z"
     id="path6" />
  <path
     fill="#e53935"
     d="m 40,20 c 0,2.06 -0.31,4.05 -0.89,5.93 C 36.22,25.5 34,23.01 34,20 34,16.99 36.22,14.5 39.11,14.07 39.69,15.95 40,17.94 40,20 Z"
     id="path7" />
  <path
     fill="#e53935"
     d="M 37.69,10.68 C 35.35,12.42 32.02,12.22 29.9,10.1 27.78,7.98 27.58,4.65 29.32,2.31 c 3.57,1.87 6.5,4.8 8.37,8.37 z"
     id="path8" />
  <circle
     cx="20"
     cy="10"
     r="2"
     fill="#e53935"
     id="circle8" />
  <circle
     cx="12.929001"
     cy="12.929001"
     r="2"
     fill="#e53935"
     id="circle9" />
  <circle
     cx="10"
     cy="20"
     r="2"
     fill="#e53935"
     id="circle10" />
  <circle
     cx="12.929001"
     cy="27.070999"
     r="2"
     fill="#e53935"
     id="circle11" />
  <circle
     cx="20"
     cy="30"
     r="2"
     fill="#e53935"
     id="circle12" />
  <circle
     cx="27.070999"
     cy="27.070999"
     r="2"
     fill="#e53935"
     id="circle13" />
  <circle
     cx="30"
     cy="20"
     r="2"
     fill="#e53935"
     id="circle14" />
  <circle
     cx="27.070999"
     cy="12.929001"
     r="2"
     fill="#e53935"
     id="circle15" />
</svg>
