<?xml version="1.0" encoding="UTF-8" standalone="no"?>
<!-- Generator: Adobe Illustrator 18.1.1, SVG Export Plug-In . SVG Version: 6.00 Build 0)  -->

<svg
   version="1.1"
   id="Capa_1"
   x="0px"
   y="0px"
   viewBox="0 0 149.60001 149.60001"
   enable-background="new 0 0 1400 980"
   xml:space="preserve"
   sodipodi:docname="icon-letter-s.svg"
   width="149.60001"
   height="149.60001"
   inkscape:version="1.4.2 (f4327f4, 2025-05-13)"
   xmlns:inkscape="http://www.inkscape.org/namespaces/inkscape"
   xmlns:sodipodi="http://sodipodi.sourceforge.net/DTD/sodipodi-0.dtd"
   xmlns="http://www.w3.org/2000/svg"
   xmlns:svg="http://www.w3.org/2000/svg"><defs
   id="defs68" /><sodipodi:namedview
   id="namedview68"
   pagecolor="#ffffff"
   bordercolor="#000000"
   borderopacity="0.25"
   inkscape:showpageshadow="2"
   inkscape:pageopacity="0.0"
   inkscape:pagecheckerboard="0"
   inkscape:deskcolor="#d1d1d1"
   inkscape:zoom="1.8510204"
   inkscape:cx="-154.77949"
   inkscape:cy="-27.55237"
   inkscape:window-width="3840"
   inkscape:window-height="2053"
   inkscape:window-x="-11"
   inkscape:window-y="-11"
   inkscape:window-maximized="1"
   inkscape:current-layer="Capa_1" />
<path
   fill="#4a72b2"
   d="m 79.6,0 c 3.4,2.3 14.1,3.4 32.2,3.4 l -0.1,1.7 H 98.3 l -0.1,1.7 c 16,0 26,3.4 30,10.2 l -0.2,3.4 h -9.6 l -0.1,1.7 13.3,1.7 -0.1,1.7 H 120 l -0.1,1.7 c 3.8,0 5.7,1.1 5.5,3.4 -22.7,0 -43.1,7.4 -60.9,22.1 l -0.1,1.7 c 24.7,5.9 44.3,18.9 58.7,39.1 l -0.1,1.7 c -4.7,14.7 -17.7,28.3 -39.1,40.8 l -11.7,1.7 -0.1,1.7 h 3.8 c -0.2,3.1 -11.9,6.5 -35.1,10.2 l 0.2,-3.4 h 9.6 l 0.2,-1.7 c -8.2,0 -15.6,-4 -22.2,-11.9 C 22.9,130 20,125 20,117.7 c 0,-0.7 0,-1.4 0.1,-2.1 l 6,-3.4 5.5,3.4 h 3.8 C 71.4,110.6 90,100.4 91.1,85 76,78.2 66,74.8 61.1,74.8 L 61,76.5 42.2,69.7 44,71.4 43.9,74.8 C 28,64.4 20.2,56.5 20.6,51 l 15,-23.8 10,-6.8 -0.2,3.4 z m -26.8,141.2 -0.1,1.7 h 7.7 l 9.7,-1.7 v -1.7 h -1.9 z m 0.7,-95.3 -0.1,1.7 33.8,-18.7 15.5,-3.4 0.2,-3.4 H 99.1 C 78.9,28.8 63.7,36.7 53.5,45.9 Z M 64,115.7 h 1.9 l 4.1,-3.4 h -1.9 z m 10.5,13.6 v 1.7 h 1.9 l 8,-5.1 z m 24,-13.6 -8.2,8.5 h 1.9 l 8.2,-8.5 z"
   id="path39" />

</svg>
