<?xml version="1.0" encoding="UTF-8" standalone="no"?>
<!-- Generator: Adobe Illustrator 18.1.1, SVG Export Plug-In . SVG Version: 6.00 Build 0)  -->

<svg
   version="1.1"
   id="Capa_1"
   x="0px"
   y="0px"
   viewBox="0 0 151.30001 151.3"
   enable-background="new 0 0 1400 980"
   xml:space="preserve"
   sodipodi:docname="icon-letter-j.svg"
   width="151.3"
   height="151.3"
   inkscape:version="1.4.2 (f4327f4, 2025-05-13)"
   xmlns:inkscape="http://www.inkscape.org/namespaces/inkscape"
   xmlns:sodipodi="http://sodipodi.sourceforge.net/DTD/sodipodi-0.dtd"
   xmlns="http://www.w3.org/2000/svg"
   xmlns:svg="http://www.w3.org/2000/svg"><defs
   id="defs68" /><sodipodi:namedview
   id="namedview68"
   pagecolor="#ffffff"
   bordercolor="#000000"
   borderopacity="0.25"
   inkscape:showpageshadow="2"
   inkscape:pageopacity="0.0"
   inkscape:pagecheckerboard="0"
   inkscape:deskcolor="#d1d1d1"
   inkscape:zoom="7.4040816"
   inkscape:cx="91.503584"
   inkscape:cy="63.748622"
   inkscape:window-width="3840"
   inkscape:window-height="2053"
   inkscape:window-x="-11"
   inkscape:window-y="-11"
   inkscape:window-maximized="1"
   inkscape:current-layer="Capa_1" />


<path
   fill="#f7ec45"
   d="m 116.2,0.1 v 8.5 h 5.7 V 3.5 h 7.7 c -12.3,92.9 -25.2,139.3 -38.7,139.3 0,2.3 -6.4,5.1 -19.1,8.5 l -1.9,-1.7 H 68 l -9.6,1.7 -1.9,-1.7 v 1.7 C 43.7,151.3 37.4,146.2 37.4,136 L 24,130.9 v -5.1 l 1.9,1.7 h 5.7 v -1.7 C 31,111.1 29.7,103.7 27.8,103.7 l 3.8,-10.2 c 3.5,0 7.3,-1.7 11.5,-5.1 h 7.7 l 1.9,10.2 h 3.8 V 95.1 L 54.6,93.4 V 91.7 L 56.5,90 h 3.8 c 0,3.4 1.9,5.1 5.7,5.1 L 64.1,107 v 5.1 c 0.8,6.8 2.7,10.2 5.7,10.2 l 5.7,-15.3 1.9,1.7 h 3.8 c 5.7,0 12.9,-32.3 21.5,-96.8 L 104.6,1.7 106.5,0 h 9.7 z m -84.7,95 v 8.5 h 1.9 v -8.5 z m 49.8,-6.8 h 1.9 c 0,3.4 1.3,5.1 3.8,5.1 0,2.3 -1.9,3.4 -5.7,3.4 l 1.9,1.7 v 1.7 l -3.8,3.4 h 1.9 l 1.9,-1.7 v 3.4 l -5.7,1.7 v -1.7 z m 1.9,-8.5 h 1.9 v 6.8 h -1.9 z"
   id="path1"
   style="fill:#803300" /></svg>
