<?xml version="1.0" encoding="UTF-8" standalone="no"?>
<!-- Generator: Adobe Illustrator 18.1.1, SVG Export Plug-In . SVG Version: 6.00 Build 0)  -->

<svg
   version="1.1"
   id="Capa_1"
   x="0px"
   y="0px"
   viewBox="0 0 160.7 160.7"
   enable-background="new 0 0 1400 980"
   xml:space="preserve"
   sodipodi:docname="icon-mark-exclamation.svg"
   width="160.7"
   height="160.7"
   inkscape:version="1.4.3 (0d15f75, 2025-12-25)"
   xmlns:inkscape="http://www.inkscape.org/namespaces/inkscape"
   xmlns:sodipodi="http://sodipodi.sourceforge.net/DTD/sodipodi-0.dtd"
   xmlns="http://www.w3.org/2000/svg"
   xmlns:svg="http://www.w3.org/2000/svg"><defs
   id="defs68" /><sodipodi:namedview
   id="namedview68"
   pagecolor="#ffffff"
   bordercolor="#000000"
   borderopacity="0.25"
   inkscape:showpageshadow="2"
   inkscape:pageopacity="0.0"
   inkscape:pagecheckerboard="0"
   inkscape:deskcolor="#d1d1d1"
   inkscape:zoom="1.8520408"
   inkscape:cx="-538.0551"
   inkscape:cy="-249.72452"
   inkscape:window-width="3840"
   inkscape:window-height="2054"
   inkscape:window-x="-11"
   inkscape:window-y="-11"
   inkscape:window-maximized="1"
   inkscape:current-layer="Capa_1" />
<path
   fill="#f7ec45"
   d="m 78.8,0 25.1,8.1 v 2 C 97,36 93.5,57 93.5,73 v 2.1 c 0,8.1 2.7,19.5 8.2,34.4 l -2,6.1 c -3.5,0 -5.5,-2.7 -6.2,-8 h -2.1 v 4 H 83 l -4.2,-10.2 -2,2.1 H 74.7 C 64.9,96.6 60.1,85.1 60.1,69 v -4 l 4.2,-40.7 h 2.1 l 2,12.2 h -4.2 v 4.1 l 4.2,4.1 h 2.1 l 4.2,-24.4 -2.1,2 h -2 v -6 l 4.2,-4.1 v 6.1 h 2.1 V 10.1 L 72.6,6.2 Z m 8,125 v 1.7 l -1.9,1.7 v 1.7 l 1.9,-1.7 h 3.8 l 5.7,10.2 1.9,5.1 -5.7,5.1 h 3.8 l 3.8,3.4 v 3.4 l -28.7,5.1 -1.9,-1.7 v -3.4 c 5.1,0 7.7,-1.1 7.7,-3.4 v -1.7 H 65.7 v -10.2 l 1.9,-1.7 v -1.7 h -1.9 l -5.7,1.7 v -1.7 C 63.9,129 72.8,125 86.8,125 Z M 62.2,52.7 v 10.2 l 2,10.1 h 2.1 V 66.9 L 64.2,52.7 Z m 4.1,-36.4 h 2 l 2.1,8 h -4.2 v -8 z m 0,30.4 v 8.1 h 2 v -8.1 z m 0,34.5 c 4.1,12.2 7.6,18.3 10.5,18.3 z"
   id="path48" />

</svg>
