<?xml version="1.0" encoding="UTF-8" standalone="no"?>
<!-- Generator: Adobe Illustrator 18.1.1, SVG Export Plug-In . SVG Version: 6.00 Build 0)  -->

<svg
   version="1.1"
   id="Capa_1"
   x="0px"
   y="0px"
   viewBox="0 0 148.1 148.10001"
   enable-background="new 0 0 1400 980"
   xml:space="preserve"
   sodipodi:docname="icon-letter-u.svg"
   width="148.10001"
   height="148.10001"
   inkscape:version="1.4.2 (f4327f4, 2025-05-13)"
   xmlns:inkscape="http://www.inkscape.org/namespaces/inkscape"
   xmlns:sodipodi="http://sodipodi.sourceforge.net/DTD/sodipodi-0.dtd"
   xmlns="http://www.w3.org/2000/svg"
   xmlns:svg="http://www.w3.org/2000/svg"><defs
   id="defs68" /><sodipodi:namedview
   id="namedview68"
   pagecolor="#ffffff"
   bordercolor="#000000"
   borderopacity="0.25"
   inkscape:showpageshadow="2"
   inkscape:pageopacity="0.0"
   inkscape:pagecheckerboard="0"
   inkscape:deskcolor="#d1d1d1"
   inkscape:zoom="1.8510204"
   inkscape:cx="-496.75303"
   inkscape:cy="-30.253583"
   inkscape:window-width="3840"
   inkscape:window-height="2053"
   inkscape:window-x="-11"
   inkscape:window-y="-11"
   inkscape:window-maximized="1"
   inkscape:current-layer="Capa_1" />
<path
   fill="#594e41"
   d="m 48.259757,0 3.8,5.1 -1.9,8.5 1.9,1.7 h 1.9 l 1.9,-8.5 h 3.8 l 1.9,5.1 c -10.2,32.7 -15.3,58.2 -15.3,76.6 1.3,12.5 3.8,18.7 7.7,18.7 l 44,-44.2 1.9,-8.5 V 6.9 l 3.800003,-3.4 c 2.6,0 3.8,2.3 3.8,6.8 h 1.9 c 0,-4.5 3.2,-6.8 9.6,-6.8 l 3.8,6.8 -1.9,8.5 c 2.6,0 3.8,-2.8 3.8,-8.5 h 3.8 l 1.9,1.7 h 1.9 l -9.6,122.5 -1.9,6.8 c -5.1,0 -7.7,2.3 -7.7,6.8 h -7.7 l 1.9,-17 h -3.8 v 10.2 l -5.700003,5.1 v -1.7 l 1.9,-17 c -3.8,0 -5.7,-2.3 -5.7,-6.8 h -1.9 l -32.5,13.6 -15.3,-3.4 v 1.7 c -13.2,0 -22.1,-17 -26.8,-51 5.1,-51 10.2,-76.6 15.3,-76.6 V 3.5 h 1.9 v 6.8 h -3.8 v 3.4 l 1.9,1.7 v 1.7 h -1.9 l 1.9,5.1 -5.7,8.5 h 1.9 l 1.9,-1.7 -5.7,30.6 v 6.8 h 1.9 c 4.2,-44.3 11.2,-66.4 21.2,-66.4 z m -23,68 -1.9,1.7 v 13.6 h 1.9 l 1.9,-15.3 z m 3.9,40.9 v 3.4 l 1.9,5.1 h 1.9 V 114 l -1.9,-5.1 z m 13.4,8.5 v 1.7 c 0,3.9 5.7,7.3 17.2,10.2 h 3.8 v -1.7 c -7.3,-0.1 -14.4,-3.5 -21,-10.2 z m 42.1,-35.8 -13.4,13.6 h 1.9 l 13.4,-13.6 z"
   id="path41" />

</svg>
