<?xml version="1.0" encoding="UTF-8" standalone="no"?>
<!-- Generator: Adobe Illustrator 18.1.1, SVG Export Plug-In . SVG Version: 6.00 Build 0)  -->

<svg
   version="1.1"
   id="Capa_1"
   x="0px"
   y="0px"
   viewBox="0 0 151.5 151.5"
   enable-background="new 0 0 1400 980"
   xml:space="preserve"
   sodipodi:docname="icon-letter-b.svg"
   width="151.5"
   height="151.5"
   inkscape:version="1.4.2 (f4327f4, 2025-05-13)"
   xmlns:inkscape="http://www.inkscape.org/namespaces/inkscape"
   xmlns:sodipodi="http://sodipodi.sourceforge.net/DTD/sodipodi-0.dtd"
   xmlns="http://www.w3.org/2000/svg"
   xmlns:svg="http://www.w3.org/2000/svg"><defs
   id="defs68" /><sodipodi:namedview
   id="namedview68"
   pagecolor="#ffffff"
   bordercolor="#000000"
   borderopacity="0.25"
   inkscape:showpageshadow="2"
   inkscape:pageopacity="0.0"
   inkscape:pagecheckerboard="0"
   inkscape:deskcolor="#d1d1d1"
   inkscape:zoom="1.8510204"
   inkscape:cx="435.16538"
   inkscape:cy="429.49283"
   inkscape:window-width="3840"
   inkscape:window-height="2053"
   inkscape:window-x="-11"
   inkscape:window-y="-11"
   inkscape:window-maximized="1"
   inkscape:current-layer="Capa_1" />
<path
   fill="#336535"
   d="m 49.080486,0.2 5.3,4 17.6,-1.7 1.7,1.9 1.9,0.2 5.9,-1.1 c 21.499994,2 36.999994,11.5 46.499994,28.4 2.6,0.3 3.5,3.2 2.8,8.8 l -1.5,11.9 -3.8,-0.4 0.2,-1.7 2.6,-4.9 -1.7,-1.9 2,-1.5 -1.7,-1.9 -3.7,-0.3 c -0.8,6.5 -8.1,13.2 -21.8,20.1 l -0.2,1.7 1.9,0.1 c 4.8,0.5 11.5,-1.6 20.2,-6.5 l -0.3,3.4 -10.9,9.2 c 7.1,0.7 17.4,10.8 31,30.3 -1.5,12.4 -22.3,25.2 -62.499994,38.4 -17.2,7.4 -30.4,10.7 -39.8,9.8 l -3.4,-3.9 -1.9,-0.1 c -0.4,3.4 -3.1,4.8 -8.2,4.3 -0.5,3.1 -1.7,4.7 -3.8,4.7 h -0.7 c -2.6,-0.3 -3.3,-4.3 -2.3,-12.2 l -1.9,-0.1 -2.9,8.2 -1.9,-0.2 c 1.4,-11.2 0.1,-17 -3.700001,-17.3 l -0.9999998,-7 2.1000008,-1.5 -1.8000008,-1.9 18.6000008,-71.9 -1.7,-1.8 1.9,0.2 -1.7,-1.8 5.1,-25.2 0.1,-1.7 -2.4,-12.2 1.9,0.1 c 7.1,-3.5 12.7,-5.2 16.8,-5.2 0.3,0.1 0.7,0.2 1.1,0.2 z m 1.5,82.4 -5.7,30.2 1.7,1.9 1.9,0.2 c 9.2,0.9 29.9,-6.2 62.299994,-21.3 l 4.3,-3 c -0.2,-4.6 -5,-7.3 -14.4,-8.2 L 85.480486,80.8 Z m 7.2,-43.9 0.6,12 17.5,-1.7 -0.3,3.4 28.299994,-10.9 -0.2,1.7 L 89.180486,52 C 104.98048,48.1 113.58048,41.6 114.78048,32.3 l -3.8,-0.4 c -0.8,5.6 -3,8.2 -6.8,7.9 l 0.3,-3.4 -1.9,-0.1 2.6,-5 1.7,1.9 1.9,0.3 0.2,-1.7 c -4.7,-3.9 -12.099994,-6.4 -22.299994,-7.3 -17.9,-1.8 -27.5,3 -28.9,14.2 z m 27.9,-38.3 9.2,2.6 -0.2,1.7 -9.5,-0.9 z m 7.9,76.2 -0.1,1.6 18.699994,3.6 1.9,0.1 0.2,-1.7 -7.4,-2.4 z m 37.899994,20.7 c -0.5,3.5 -13.1,12 -37.799994,25.4 28.199994,-10 42.599994,-17.7 43.199994,-23.1 l -1.9,-0.2 -1.6,-1.9 z m -36.899994,-75.5 -0.2,1.7 15.099994,3.2 c 0.2,-2.3 -1.5,-3.6 -5.3,-3.9 z m 7.799994,14.5 -0.1,1.7 -4.299994,2.9 -1.9,-0.1 z m 16.6,52.9 -4.6,6.5 8.2,-4.3 -1.7,-1.9 z"
   id="use68" />

</svg>
