<?xml version="1.0" encoding="UTF-8" standalone="no"?>
<!-- Generator: Adobe Illustrator 18.1.1, SVG Export Plug-In . SVG Version: 6.00 Build 0)  -->

<svg
   version="1.1"
   id="Capa_1"
   x="0px"
   y="0px"
   viewBox="0 0 170 170"
   enable-background="new 0 0 1400 980"
   xml:space="preserve"
   sodipodi:docname="icon-letter-a.svg"
   width="170"
   height="170"
   inkscape:version="1.4.2 (f4327f4, 2025-05-13)"
   xmlns:inkscape="http://www.inkscape.org/namespaces/inkscape"
   xmlns:sodipodi="http://sodipodi.sourceforge.net/DTD/sodipodi-0.dtd"
   xmlns="http://www.w3.org/2000/svg"
   xmlns:svg="http://www.w3.org/2000/svg"><defs
   id="defs68" /><sodipodi:namedview
   id="namedview68"
   pagecolor="#ffffff"
   bordercolor="#000000"
   borderopacity="0.25"
   inkscape:showpageshadow="2"
   inkscape:pageopacity="0.0"
   inkscape:pagecheckerboard="0"
   inkscape:deskcolor="#d1d1d1"
   inkscape:zoom="1.8510204"
   inkscape:cx="643.15877"
   inkscape:cy="431.65381"
   inkscape:window-width="3840"
   inkscape:window-height="2053"
   inkscape:window-x="-11"
   inkscape:window-y="-11"
   inkscape:window-maximized="1"
   inkscape:current-layer="Capa_1" />
<path
   fill="#4a72b2"
   d="m 156.5,58.2 c 0.8,3.4 5.9,5.1 15.3,5.1 l 15.3,59.5 h 13.4 v 1.7 l -11.5,1.7 v 1.7 c 3.8,0 5.7,1.1 5.7,3.4 H 210 v 1.7 c 0,2.5 -6.4,4.8 -19.1,6.8 l 3.8,10.2 -1.9,5.1 1.9,10.2 -1.9,1.7 h 1.9 l -1.9,1.7 1.9,20.4 v 10.2 l -1.9,-1.7 H 191 l 5.7,25.5 h -3.8 c 0,-3.4 -1.3,-5.1 -3.8,-5.1 v 1.7 l 1.9,5.1 h -1.9 l -1.9,-1.7 h -1.9 c 0,3.4 -1.3,5.1 -3.8,5.1 l -9.6,-28.9 H 170 v 6.8 h -2 l -3.8,-20.4 5.7,3.4 v -1.7 c -1.1,-10.2 -3,-15.3 -5.7,-15.3 l 1.9,-1.7 v -5.1 h -3.8 v 5.1 h -1.9 v -6.8 l 1.9,-1.7 h -1.9 l -1.9,1.7 v -6.8 h 1.9 l 1.9,1.7 h 1.9 l -1.9,-1.7 v -10.2 l -42.1,8.5 v 3.4 l 13.4,-3.4 7.7,1.7 9.6,-1.7 v 3.4 c -26.8,4.3 -40.2,9.9 -40.2,17 -3.4,12.5 -7.2,20.4 -11.5,23.8 v 3.4 H 93.5 L 91.6,201 h -1.9 v 1.7 l -5.7,-3.4 3.8,-10.2 h -1.9 c -3.8,0 -5.7,4.5 -5.7,13.6 l -3.8,-3.4 1.9,-10.2 -5.7,-5.1 32.5,-69.7 h 1.9 c 0,3.4 1.3,5.1 3.8,5.1 l 1.9,-8.5 -1.9,1.7 h -1.9 v -6.8 l 1.9,-8.5 1.9,1.7 h 1.9 l -1.9,-1.7 v -1.7 l 3.8,-6.8 h 1.9 l 1.9,1.7 h 1.9 v -1.7 c 0,-2.3 -1.9,-3.4 -5.7,-3.4 l 9.6,-23.8 h 7.7 l -1.9,1.7 V 65 c 8.6,-4.5 16.9,-6.8 24.6,-6.8 z m -55.5,73.2 -1.9,6.8 h 1.9 l 3.8,-6.8 z m 5.7,-8.5 -1.9,1.7 v 3.4 h 1.9 l 1.9,-5.1 z m 11.5,6.8 -1.9,6.8 h 1.9 l 1.9,-1.7 v -5.1 z m 9.6,-22.1 -3.8,11.9 -1.9,-1.7 h -1.9 l 1.9,6.8 h 1.9 l 5.7,-15.3 v -1.7 z M 145,97.3 129.7,133 h 3.8 c 12.8,0 19.8,-3.4 21.1,-10.2 l -7.7,-25.5 z m -11.5,39.2 v 1.7 h 3.8 c 11.5,-1.1 17.2,-2.8 17.2,-5.1 h -1.9 z m 26.8,37.4 h 3.8 v 10.2 h -1.9 z m 7.7,17 v 3.4 l 5.7,-1.7 v -3.4 z m 19.1,-5.1 v 3.4 l 1.9,6.8 h 1.9 v -3.4 l -1.9,-6.8 z"
   id="path21"
   transform="translate(-56.6,-58.2)" />

</svg>
