<?xml version="1.0" encoding="UTF-8" standalone="no"?>
<!-- Generator: Adobe Illustrator 18.1.1, SVG Export Plug-In . SVG Version: 6.00 Build 0)  -->

<svg
   version="1.1"
   id="Capa_1"
   x="0px"
   y="0px"
   viewBox="0 0 137.39999 137.39999"
   enable-background="new 0 0 1400 980"
   xml:space="preserve"
   sodipodi:docname="icon-letter-e.svg"
   width="137.39999"
   height="137.39999"
   inkscape:version="1.4.2 (f4327f4, 2025-05-13)"
   xmlns:inkscape="http://www.inkscape.org/namespaces/inkscape"
   xmlns:sodipodi="http://sodipodi.sourceforge.net/DTD/sodipodi-0.dtd"
   xmlns="http://www.w3.org/2000/svg"
   xmlns:svg="http://www.w3.org/2000/svg"><defs
   id="defs68" /><sodipodi:namedview
   id="namedview68"
   pagecolor="#ffffff"
   bordercolor="#000000"
   borderopacity="0.25"
   inkscape:showpageshadow="2"
   inkscape:pageopacity="0.0"
   inkscape:pagecheckerboard="0"
   inkscape:deskcolor="#d1d1d1"
   inkscape:zoom="1.8510204"
   inkscape:cx="-134.79052"
   inkscape:cy="424.09041"
   inkscape:window-width="3840"
   inkscape:window-height="2053"
   inkscape:window-x="-11"
   inkscape:window-y="-11"
   inkscape:window-maximized="1"
   inkscape:current-layer="Capa_1" />
<path
   fill="#7b057e"
   d="m 117.25976,0 9.2,5.7 c -2.7,10.1 -7.6,14.9 -14.6,14.5 l -50.000003,2 -0.2,3.4 9.5,0.6 11.6,-1 1.8,1.9 1.9,0.1 13.5,-1 3.800003,0.3 -0.1,1.7 -44.500003,4.1 -3.5,22 1.9,0.1 52.000003,-3.7 1.7,1.8 -0.1,1.7 -3.8,-0.3 v 1.7 l 13.2,2.6 -0.1,1.7 c -2.8,6.3 -21.100003,11.5 -55.000003,15.4 l -19.3,0.6 1.8,1.7 -9.2,21.6 h -1.9 l 1.1,-15.3 -1.9,-0.1 -3.7,23.6 c 38.2,-4.5 65.2,-6.3 81.000003,-5.4 l 9.3,2.3 -0.1,3.4 -3.8,-0.2 1.7,1.8 -0.3,5.1 c -3.7,4.3 -11.5,6.1 -23.400003,5.4 l -0.1,1.7 15.300003,0.9 -0.3,3.4 -89.100003,11.6 -1.9,-0.1 c -6.2,-1.2 -9.2,-3 -9.2,-5.3 v -0.3 l 0.3,-5.1 5.3,-18.4 -1.8,-1.8 3.8,0.1 -0.7,8.5 1.9,0.2 c 0.7,-5.7 2.3,-8.4 4.5,-8.2 l -1.8,-1.9 1.4,-16.9 -3.8,-0.3 -2.6,8.4 2.1,-1.6 1.9,0.1 -0.8,10.2 -1.9,-0.2 0.3,-5 -1.9,-0.1 -0.2,3.4 -1.9,-0.1 0.2,-3.4 6.1,-28.7 -1.9,-0.1 4.4,-8.2 -1.8,-1.8 0.1,-1.7 4.2,-28.7 1.8,1.8 1.9,0.1 0.2,-3.4 -1.2,-8.6 3,-15.2 0.3,-5.1 1.9,0.2 1.8,1.8 2,-1.6 1.9,0.2 1.8,1.7 2,-1.6 5.7,0.4 z m -95.800003,74.4 -0.9,11.9 1.9,0.1 0.9,-11.8 z m 63.1,2.2 h 1.9 l -0.2,1.7 -34.7,3.1 -1.8,-1.9 0.1,-1.6 17.3,-0.7 -0.1,1.7 z"
   id="path25" />

</svg>
