<?xml version="1.0" encoding="UTF-8" standalone="no"?>
<!-- Generator: Adobe Illustrator 18.1.1, SVG Export Plug-In . SVG Version: 6.00 Build 0)  -->

<svg
   version="1.1"
   id="Capa_1"
   x="0px"
   y="0px"
   viewBox="0 0 143 143"
   enable-background="new 0 0 1400 980"
   xml:space="preserve"
   sodipodi:docname="icon-letter-l.svg"
   width="143"
   height="143"
   inkscape:version="1.4.2 (f4327f4, 2025-05-13)"
   xmlns:inkscape="http://www.inkscape.org/namespaces/inkscape"
   xmlns:sodipodi="http://sodipodi.sourceforge.net/DTD/sodipodi-0.dtd"
   xmlns="http://www.w3.org/2000/svg"
   xmlns:svg="http://www.w3.org/2000/svg"><defs
   id="defs68" /><sodipodi:namedview
   id="namedview68"
   pagecolor="#ffffff"
   bordercolor="#000000"
   borderopacity="0.25"
   inkscape:showpageshadow="2"
   inkscape:pageopacity="0.0"
   inkscape:pagecheckerboard="0"
   inkscape:deskcolor="#d1d1d1"
   inkscape:zoom="1.8510204"
   inkscape:cx="-69.421169"
   inkscape:cy="217.17751"
   inkscape:window-width="3840"
   inkscape:window-height="2053"
   inkscape:window-x="-11"
   inkscape:window-y="-11"
   inkscape:window-maximized="1"
   inkscape:current-layer="Capa_1" />
<path
   fill="#336535"
   d="m 36.159757,0.1 c 2.6,0 3.8,3.4 3.8,10.2 h 3.8 l 5.7,-3.4 1.9,1.7 -9.6,95.3 c 8.1,-3.4 29.8,-7.4 65.100003,-11.9 h 1.9 v 1.7 C 64.059757,100.2 41.759757,105.3 41.759757,109 l 21.1,-5.1 v 1.7 l 36.4,-6.8 v 1.7 l 1.900003,-1.7 h 1.9 l 1.9,1.7 9.6,-1.7 h 7.7 l 13.4,1.7 v 1.7 c 0,3.4 -9.6,6.2 -28.7,8.5 v 1.7 l 1.9,-1.7 h 1.9 l 13.4,1.7 1.9,-1.7 v 5.1 l -63.200003,13.6 -40.2,13.6 h -5.6 l -7.6999996,-8.5 h -1.9 v -1.7 c 0,-2.9 2.5999996,-4.6 7.6999996,-5.1 v -5.1 L 9.4597574,115.8 17.159757,39.2 h 1.9 V 46 l -1.9,11.9 h 3.8 l -3.8,22.1 1.9,1.7 -1.9,6.8 V 97 h 1.9 l 7.7,-90.2 c 2.6,0 3.8,-1.7 3.8,-5.1 l 1.9,-1.7 h 3.7 z"
   id="path32" />

</svg>
