<?xml version="1.0" encoding="UTF-8" standalone="no"?>
<!-- Generator: Adobe Illustrator 18.1.1, SVG Export Plug-In . SVG Version: 6.00 Build 0)  -->

<svg
   version="1.1"
   id="Capa_1"
   x="0px"
   y="0px"
   viewBox="0 0 142.60001 142.60001"
   enable-background="new 0 0 1400 980"
   xml:space="preserve"
   sodipodi:docname="icon-letter-n.svg"
   width="142.60001"
   height="142.60001"
   inkscape:version="1.4.2 (f4327f4, 2025-05-13)"
   xmlns:inkscape="http://www.inkscape.org/namespaces/inkscape"
   xmlns:sodipodi="http://sodipodi.sourceforge.net/DTD/sodipodi-0.dtd"
   xmlns="http://www.w3.org/2000/svg"
   xmlns:svg="http://www.w3.org/2000/svg"><defs
   id="defs68" /><sodipodi:namedview
   id="namedview68"
   pagecolor="#ffffff"
   bordercolor="#000000"
   borderopacity="0.25"
   inkscape:showpageshadow="2"
   inkscape:pageopacity="0.0"
   inkscape:pagecheckerboard="0"
   inkscape:deskcolor="#d1d1d1"
   inkscape:zoom="1.8510204"
   inkscape:cx="-453.53363"
   inkscape:cy="215.55678"
   inkscape:window-width="3840"
   inkscape:window-height="2053"
   inkscape:window-x="-11"
   inkscape:window-y="-11"
   inkscape:window-maximized="1"
   inkscape:current-layer="Capa_1" />
<path
   fill="#3c2c17"
   d="M 38.3,1.6804852 51.7,11.880486 c 0,-3.4000008 1.3,-5.1000008 3.8,-5.1000008 h 1.9 L 84.2,67.980486 v 3.4 h -1.9 l -3.8,-10.2 h -1.9 v 3.4 l 13.4,28.9 h 1.9 c 5.1,-29.5 12.5,-60.3 22.1,-92.4000009 l 5.7,3.4000001 5.7,-1.7 11.5,5.1 v 1.7 c -3.8,0 -5.7,2.3000008 -5.7,6.8000008 h 1.9 l 1.9,1.7 h 1.9 l 1.9,-8.5000008 h 3.8 v 1.7000008 l -1.9,1.7 1.9,1.7 v 1.7 c -9.6,26.2 -18.2,63.8 -25.9,112.799994 h -3.8 l 3.8,-27.2 c -2.6,0 -6.4,10.8 -11.5,32.3 -4.7,3.4 -9.2,5.1 -13.4,5.1 v 3.4 h -1.9 c 0,-2.3 -2.6,-3.4 -7.7,-3.4 v -11.9 c 0,-5.1 -12.8,-33.499994 -38.3,-85.099994 H 42 c -5.1,20.2 -9.6,47.4 -13.4,81.699994 l -1.9,-1.7 c -7.7,2 -11.5,4.8 -11.5,8.5 h -3.8 c -2.6,-4.3 -3.8,-11.6 -3.8,-22.1 H 5.7 v 15.3 H 1.9 l -1.9,-8.5 C 0,84.780486 7.7,47.380486 23,3.2804852 Z M 11.5,44.180486 v 1.7 l 1.9,1.7 -1.9,1.7 v 3.4 h 1.9 l 1.9,-6.8 -1.9,-1.7 z m 72.8,27.2 c 3.3,0 5.9,4.5 7.7,13.6 v 1.7 h -1.9 z"
   id="path34" />

</svg>
