<?xml version="1.0" encoding="UTF-8" standalone="no"?>
<!-- Generator: Adobe Illustrator 18.1.1, SVG Export Plug-In . SVG Version: 6.00 Build 0)  -->

<svg
   version="1.1"
   id="Capa_1"
   x="0px"
   y="0px"
   viewBox="0 0 141.2 141.2"
   enable-background="new 0 0 1400 980"
   xml:space="preserve"
   sodipodi:docname="icon-letter-d.svg"
   width="141.2"
   height="141.2"
   inkscape:version="1.4.2 (f4327f4, 2025-05-13)"
   xmlns:inkscape="http://www.inkscape.org/namespaces/inkscape"
   xmlns:sodipodi="http://sodipodi.sourceforge.net/DTD/sodipodi-0.dtd"
   xmlns="http://www.w3.org/2000/svg"
   xmlns:svg="http://www.w3.org/2000/svg"><defs
   id="defs68" /><sodipodi:namedview
   id="namedview68"
   pagecolor="#ffffff"
   bordercolor="#000000"
   borderopacity="0.25"
   inkscape:showpageshadow="2"
   inkscape:pageopacity="0.0"
   inkscape:pagecheckerboard="0"
   inkscape:deskcolor="#d1d1d1"
   inkscape:zoom="1.8510204"
   inkscape:cx="56.455347"
   inkscape:cy="424.63065"
   inkscape:window-width="3840"
   inkscape:window-height="2053"
   inkscape:window-x="-11"
   inkscape:window-y="-11"
   inkscape:window-maximized="1"
   inkscape:current-layer="Capa_1" />
<path
   fill="#58167d"
   d="m 35.719514,0 h 7.7 l 5.7,3.4 13.4,-1.7 c 22.1,0 42.600006,11.3 61.300006,34 l 9.6,17 -2,1.8 1.9,8.5 v 8.5 c 0,29.2 -26.8,51.3 -80.400006,66.3 l -19.1,1.7 c 0,-2.9 -2.6,-4.6 -7.7,-5.1 v 6.8 h -5.7 V 131 l -1.9,-1.7 1.9,-1.7 v -1.7 C 12.719514,121.2 8.9195148,117.3 8.9195148,114 12.719514,62.6 19.119514,25.2 28.019514,1.7 h 1.9 l 1.9,1.7 z m -19.1,131 h 1.9 v 1.7 l -3.8,3.4 h -1.9 v -1.7 z m 11.5,-114 -9.6,49.3 V 68 h 1.9 l 9.6,-47.6 V 17 Z m 9.5,103.8 1.9,5.1 h 3.8 l 3.8,-3.4 v -1.7 h -1.9 l -5.7,1.7 z m 21.1,-91.9 c 0,2.3 -2.6,3.4 -7.7,3.4 -5.1,20.7 -8.9,44.5 -11.5,71.5 7.4,0 26.6,-5.7 57.4,-17 v -1.7 h -3.8 C 103.31952,75.8 108.41952,66.2 108.41952,56.2 v -5.1 c 0,-12.5 -9.600006,-19.8 -28.700006,-22.1 h -21 z m -5.7,90.2 v 1.7 h 7.7 l 9.6,-3.4 v -1.7 h -1.9 z m 44,-90.2 v 1.7 l 7.700006,3.4 v -1.7 l -5.700006,-3.4 z m 0,80 c 3.000006,-0.4 7.500006,-3.8 13.400006,-10.2 V 97 Z m 11.500006,-30.6 -3.8,6.8 h 1.9 l 3.8,-6.8 z m 5.7,-25.5 -1.9,20.4 h 3.8 v -5.1 l 1.9,-6.8 -1.9,-8.5 z m 13.4,13.6 -9.6,27.2 v 1.7 h 1.9 l 9.6,-25.5 v -3.4 z"
   id="path24" />

</svg>
