<svg viewBox="0 0 512 512" xmlns="http://www.w3.org/2000/svg" fill-rule="evenodd" clip-rule="evenodd" stroke-linejoin="round" stroke-miterlimit="2"><path d="M500.882 99.093v-.758c0-5.685-2.828-9.796-4.432-11.778-1.836-2.275-4.052-4.17-6.094-5.716-4.14-3.12-9.621-6.21-15.86-9.213-12.624-6.065-30.293-12.654-51.693-18.776C380 40.664 321.075 30.051 255.97 30.051S131.91 40.664 89.08 52.88c-21.37 6.093-39.068 12.712-51.694 18.777-6.24 3.003-11.721 6.094-15.86 9.213-2.042 1.545-4.258 3.441-6.094 5.714-1.546 1.954-4.373 6.065-4.373 11.75v.758H11v344.98h.059c0 6.036 3.09 10.321 5.48 12.714 2.362 2.36 5.074 3.934 7.318 5.043 4.55 2.245 10.322 4.024 16.503 5.482 12.595 3.002 30.235 5.598 51.286 7.726 42.305 4.286 100.414 6.91 164.354 6.91 63.94 0 122.018-2.624 164.353-6.91 21.05-2.128 38.69-4.724 51.286-7.726 6.181-1.487 11.954-3.237 16.501-5.482 2.247-1.109 4.958-2.712 7.319-5.043 2.39-2.393 5.482-6.678 5.482-12.713h.058V99.094h-.117zM271.977 311.586v-39.39c0-12.683 4.578-25.162 13.586-34.054 7.99-7.903 18.573-12.713 30.177-12.713 14.782 0 27.903 7.785 36.125 19.856 5.627 8.25 8.281 18.193 8.281 28.194v35.541c-26.707 1.459-56.534 2.391-88.198 2.624l.029-.058zm0-129.775c0-12.683 4.578-25.162 13.586-34.054 7.99-7.902 18.573-12.713 30.177-12.713 14.782 0 27.903 7.785 36.125 19.856 5.627 8.25 8.281 18.193 8.281 28.194v9.3c-26.707 1.459-56.534 2.391-88.198 2.625v-13.15l.029-.058zm192.722 115.284c-10.671 2.683-26.736 5.249-47.35 7.436-8.659.933-18.018 1.778-28.02 2.535v-43.18c0-14.782 6.533-29.098 18.458-37.874 6.997-5.13 15.247-8.222 23.878-8.222 4.578 0 9.01.758 13.15 2.187 16.415 5.598 26.999 21.663 26.999 39.01v36.01c-1.75.612-4.083 1.34-7.085 2.098h-.03zm-75.37-120.037c0-13.761 5.483-27.203 15.892-36.211 7.318-6.327 16.27-10.206 25.686-10.206 10.818 0 20.673 4.49 28.135 11.867 8.456 8.368 12.742 20.06 12.742 31.956v3.906c-1.75.613-4.081 1.342-7.085 2.1-10.671 2.681-26.736 5.248-47.35 7.434-8.659.934-18.018 1.78-28.02 2.537v-13.383zM83.163 130.933c16.794 0 31.314 7.814 38.369 21.692 2.77 5.452 3.936 11.545 3.936 17.67v20.35c-11.078-.816-21.4-1.75-30.876-2.74-20.614-2.187-36.678-4.754-47.35-7.435-3.003-.758-5.335-1.458-7.084-2.07.144-26.212 19.33-47.439 42.975-47.439l.03-.028zm71.462 178.205v-35.63c0-9.01 2.098-17.99 6.735-25.716 8.076-13.47 21.954-22.363 37.728-22.363 11.574 0 22.13 4.781 30.09 12.625 9.038 8.893 13.614 21.342 13.614 34.026v39.536c-31.576-.205-61.403-1.05-88.196-2.478h.029zm88.197-114.15c-31.576-.203-61.403-1.048-88.197-2.477v-9.388c0-9.01 2.098-17.99 6.735-25.716 8.076-13.47 21.954-22.363 37.728-22.363 11.574 0 22.13 4.781 30.09 12.625 9.038 8.893 13.614 21.342 13.614 34.026v13.294h.03zM40.214 263.363c0-25.163 19.243-45.572 43.005-45.572 8.63 0 16.853 3.061 23.821 8.193 11.925 8.747 18.457 23.034 18.457 37.816V307.3a1012.57 1012.57 0 01-30.877-2.74c-20.614-2.188-36.678-4.753-47.35-7.436-3.002-.758-5.336-1.457-7.085-2.098l.06-31.635-.031-.029zm-.057 180.712v-1.166c.028.378.057.758.057 1.166h-.057zm.057-61.171c0-25.162 19.243-45.571 43.005-45.571 8.63 0 16.853 3.061 23.821 8.192 11.925 8.748 18.457 23.035 18.457 37.817v65.34c-11.08-.788-21.43-1.662-30.906-2.625-20.614-2.1-36.737-4.519-47.437-7.084-2.916-.7-5.22-1.371-6.969-1.926l.06-54.113-.031-.03zm114.41 67.526v-60.324c0-9.01 2.098-17.99 6.735-25.716 8.076-13.47 21.954-22.363 37.728-22.363 11.574 0 22.13 4.781 30.09 12.625 9.038 8.893 13.614 21.342 13.614 34.026v64.115c-31.576-.175-61.403-1.02-88.196-2.363h.029zm117.353 2.334v-64.086c0-12.654 4.578-25.133 13.616-34.026 7.989-7.844 18.514-12.625 30.09-12.625 15.802 0 29.68 8.892 37.756 22.363 4.636 7.726 6.736 16.706 6.736 25.716v60.15c-26.708 1.4-56.535 2.244-88.198 2.478v.03zm199.807-8.69h-.057c0-.407 0-.787.057-1.165v1.166zm-6.967-5.101c-10.702 2.565-26.825 5.014-47.438 7.084-8.66.876-18.048 1.692-28.05 2.42v-65.048c0-14.782 6.533-29.098 18.458-37.874 6.997-5.132 15.247-8.222 23.878-8.222 4.578 0 9.01.758 13.15 2.186 16.415 5.6 26.999 21.664 26.999 39.012v58.488c-1.75.583-4.054 1.225-6.969 1.923l-.028.03z" fill-rule="nonzero"/></svg>