<svg width="135" height="40" viewBox="0 0 135 40" fill="none" xmlns="http://www.w3.org/2000/svg">
<path d="M124.249 -7.32911e-06H10.7566C10.3429 -7.32911e-06 9.9342 -7.32905e-06 9.5216 0.00199267C9.17621 0.00399267 8.83358 0.00980267 8.48488 0.0146927C7.72733 0.0225945 6.97157 0.0816689 6.22416 0.191403C5.4778 0.303525 4.75482 0.514908 4.07967 0.818403C3.40534 1.12446 2.7892 1.52216 2.25357 1.99706C1.71514 2.47063 1.26632 3.01801 0.924356 3.61815C0.581453 4.2171 0.343683 4.85893 0.219258 5.52147C0.0936495 6.18318 0.0260586 6.85251 0.0170916 7.52347C0.00662229 7.83007 0.00551669 8.13769 0 8.44433V31.5586C0.00551669 31.8691 0.00662229 32.1699 0.0170916 32.4805C0.0260614 33.1514 0.0936522 33.8207 0.219258 34.4824C0.343339 35.1453 0.581123 35.7875 0.924356 36.3867C1.26616 36.9849 1.71505 37.5301 2.25357 38.001C2.78717 38.478 3.40371 38.876 4.07967 39.1797C4.75481 39.484 5.47772 39.6966 6.22416 39.8105C6.9717 39.9193 7.72738 39.9784 8.48488 39.9873C8.83358 39.9941 9.17621 39.998 9.5216 39.998C9.93419 40 10.343 40 10.7566 40H124.249C124.655 40 125.067 40 125.472 39.998C125.816 39.998 126.169 39.9941 126.512 39.9873C127.268 39.9789 128.023 39.9198 128.769 39.8105C129.518 39.6958 130.243 39.4833 130.921 39.1797C131.597 38.8758 132.213 38.4778 132.746 38.001C133.283 37.5282 133.733 36.9834 134.079 36.3867C134.42 35.7871 134.655 35.1449 134.777 34.4824C134.903 33.8206 134.973 33.1515 134.987 32.4805C134.991 32.1699 134.991 31.8691 134.991 31.5586C135 31.1953 135 30.834 135 30.4648V9.53612C135 9.16991 135 8.80663 134.991 8.44433C134.991 8.13769 134.991 7.83007 134.987 7.52343C134.973 6.85241 134.903 6.18323 134.777 5.52143C134.655 4.85927 134.419 4.2175 134.079 3.61811C133.383 2.41519 132.278 1.43602 130.921 0.818313C130.243 0.51556 129.518 0.304233 128.769 0.191313C128.023 0.0810955 127.269 0.0220004 126.512 0.0145527C126.169 0.00967267 125.816 0.00381267 125.472 0.00186267C125.067 -0.000137329 124.655 -0.000137329 124.249 -0.000137329V-7.32911e-06Z" fill="#A6A6A6"/>
<path d="M9.52756 39.125C9.18383 39.125 8.84841 39.1211 8.50738 39.1143C7.80091 39.1061 7.09608 39.0516 6.39869 38.9512C5.74841 38.8519 5.11847 38.6673 4.52963 38.4033C3.94619 38.1415 3.41405 37.7983 2.95359 37.3867C2.48647 36.98 2.09757 36.5082 1.8023 35.9902C1.50377 35.4688 1.29718 34.9099 1.18971 34.333C1.07365 33.7131 1.01085 33.0863 1.00187 32.458C0.994715 32.2471 0.985352 31.5449 0.985352 31.5449V8.44434C0.985352 8.44434 0.995325 7.75293 1.00192 7.5498C1.01053 6.92248 1.07296 6.29665 1.18867 5.67773C1.29634 5.09925 1.50309 4.53875 1.80178 4.01563C2.09596 3.49794 2.4827 3.02586 2.94702 2.61768C3.4108 2.20562 3.94465 1.8606 4.52908 1.59521C5.11656 1.33209 5.74532 1.14873 6.39428 1.05127C7.09396 0.949836 7.80123 0.894996 8.51016 0.88721L9.52811 0.875H125.467L126.497 0.8877C127.2 0.895099 127.901 0.94945 128.594 1.05029C129.25 1.14898 129.885 1.33362 130.479 1.59814C131.65 2.13299 132.603 2.97916 133.204 4.01807C133.497 4.53758 133.701 5.09351 133.807 5.66699C133.924 6.29099 133.99 6.92174 134.003 7.5542C134.007 7.8374 134.007 8.1416 134.007 8.44434C134.016 8.81934 134.016 9.17627 134.016 9.53613V30.4648C134.016 30.8281 134.016 31.1826 134.007 31.54C134.007 31.8652 134.007 32.1631 134.002 32.4697C133.989 33.0909 133.925 33.7104 133.809 34.3232C133.704 34.9043 133.499 35.4675 133.2 35.9932C132.903 36.5056 132.516 36.9733 132.054 37.3789C131.594 37.7927 131.061 38.1379 130.476 38.4014C129.883 38.6674 129.249 38.8527 128.594 38.9512C127.897 39.0522 127.192 39.1067 126.485 39.1143C126.155 39.1211 125.809 39.125 125.473 39.125L124.25 39.127L9.52756 39.125Z" fill="black"/>
<path fill-rule="evenodd" clip-rule="evenodd" d="M30.6802 8.72021C30.777 9.98445 30.3772 11.2366 29.5657 12.2108C29.1771 12.6942 28.6839 13.083 28.1232 13.3481C27.5626 13.6132 26.949 13.7476 26.3289 13.7412C26.2893 13.1333 26.37 12.5235 26.5662 11.9467C26.7625 11.3699 27.0705 10.8375 27.4726 10.3798C28.2951 9.44299 29.4404 8.85044 30.6802 8.72021ZM32.9418 17.9208C32.5298 18.6468 32.3081 19.4652 32.2973 20.2998C32.2983 21.2387 32.5757 22.1565 33.0948 22.9388C33.6139 23.7211 34.3518 24.3333 35.2166 24.699C34.8766 25.8034 34.3641 26.8472 33.6981 27.7915C32.8038 29.1294 31.866 30.4365 30.3776 30.4607C29.6698 30.477 29.1919 30.2734 28.694 30.0613C28.1747 29.8401 27.6335 29.6096 26.7866 29.6096C25.8885 29.6096 25.3231 29.8475 24.7777 30.077C24.3065 30.2754 23.8502 30.4674 23.2072 30.494C21.7898 30.5465 20.7065 29.0661 19.7796 27.7407C17.927 25.0341 16.4844 20.1131 18.4184 16.7647C18.8649 15.9624 19.5115 15.2894 20.2954 14.8114C21.0793 14.3333 21.9736 14.0664 22.8913 14.0368C23.6952 14.0203 24.4666 14.3301 25.143 14.6018C25.6602 14.8095 26.1218 14.9949 26.4998 14.9949C26.8321 14.9949 27.2808 14.8168 27.8038 14.6093C28.6276 14.2823 29.6355 13.8823 30.6627 13.9901C31.4499 14.0147 32.2205 14.2226 32.9134 14.5971C33.6062 14.9717 34.2021 15.5026 34.6539 16.1478C33.9428 16.585 33.3538 17.1949 32.9418 17.9208Z" fill="white"/>
<path d="M82.208 29.0757C80.5733 29.0757 79.377 28.2671 79.2393 27.0357L77.3369 27.0356C77.457 29.2817 79.3164 30.7026 82.0703 30.7026C85.0137 30.7026 86.8643 29.2475 86.8643 26.9243C86.8643 25.1079 85.8057 24.0844 83.2578 23.4819L81.8897 23.146C80.2891 22.7505 79.6348 22.2339 79.6348 21.356C79.6348 20.2544 80.6592 19.4976 82.1563 19.4976C83.6533 19.4976 84.6777 20.2456 84.79 21.4849H86.666C86.6055 19.3423 84.8066 17.8706 82.1826 17.8706C79.5313 17.8706 77.6641 19.3423 77.6641 21.4849C77.6641 23.2153 78.7227 24.2817 81.003 24.8325L82.6123 25.2202C84.2217 25.6157 84.9014 26.1929 84.9014 27.1567C84.9014 28.2671 83.7744 29.0757 82.208 29.0757Z" fill="white"/>
<path fill-rule="evenodd" clip-rule="evenodd" d="M45.0977 27.1392H49.8311L50.9668 30.4956H53.0059L48.5225 18.0776H46.4395L41.9561 30.4956H43.9609L45.0977 27.1392ZM49.3399 25.5904H45.5879L47.4385 20.1431H47.4903L49.3399 25.5904Z" fill="white"/>
<path fill-rule="evenodd" clip-rule="evenodd" d="M58.9102 30.5903C61.1826 30.5903 62.6885 28.7827 62.6885 25.9692C62.6885 23.1635 61.1738 21.3471 58.876 21.3471C58.2957 21.3284 57.7211 21.4674 57.2135 21.7492C56.7059 22.0311 56.2841 22.4453 55.9932 22.9477H55.959V21.4419H54.1602V33.4907H56.0186V29.0063H56.0616C56.3397 29.5112 56.7544 29.9275 57.2582 30.2077C57.762 30.4878 58.3345 30.6204 58.9102 30.5903ZM58.3858 22.9311C59.8311 22.9311 60.7783 24.1362 60.7783 25.9692C60.7783 27.8188 59.8311 29.0151 58.3858 29.0151C56.9658 29.0151 56.0108 27.7934 56.0108 25.9692C56.0108 24.1616 56.9658 22.9311 58.3858 22.9311Z" fill="white"/>
<path fill-rule="evenodd" clip-rule="evenodd" d="M72.6533 25.9692C72.6533 28.7827 71.1475 30.5903 68.875 30.5903C68.2993 30.6204 67.7268 30.4878 67.2231 30.2077C66.7193 29.9275 66.3045 29.5112 66.0264 29.0063H65.9834V33.4907H64.125V21.4418H65.9238V22.9477H65.958C66.2489 22.4452 66.6707 22.0311 67.1783 21.7492C67.6859 21.4674 68.2605 21.3284 68.8408 21.3471C71.1387 21.3471 72.6533 23.1635 72.6533 25.9692ZM70.7432 25.9692C70.7432 24.1362 69.7959 22.9311 68.3506 22.9311C66.9307 22.9311 65.9756 24.1616 65.9756 25.9692C65.9756 27.7934 66.9307 29.0151 68.3506 29.0151C69.7959 29.0151 70.7432 27.8188 70.7432 25.9692Z" fill="white"/>
<path d="M90.875 19.2993V21.4419H92.5967V22.9136H90.875V27.9048C90.875 28.6802 91.2197 29.0415 91.9766 29.0415C92.1809 29.0379 92.385 29.0236 92.5879 28.9985V30.4614C92.2476 30.525 91.9018 30.5538 91.5557 30.5473C89.7227 30.5473 89.0078 29.8589 89.0078 28.103V22.9136H87.6914V21.4419H89.0078V19.2993H90.875Z" fill="white"/>
<path fill-rule="evenodd" clip-rule="evenodd" d="M97.8878 21.3306C95.2715 21.3306 93.5938 23.1206 93.5938 25.9692C93.5938 28.8257 95.2549 30.6079 97.8878 30.6079C100.522 30.6079 102.183 28.8257 102.183 25.9692C102.183 23.1206 100.513 21.3306 97.8878 21.3306ZM97.8877 22.8618C99.3936 22.8618 100.289 24.0151 100.289 25.9692C100.289 27.9311 99.3936 29.0757 97.8877 29.0757C96.3819 29.0757 95.4874 27.9311 95.4874 25.9692C95.4874 24.0239 96.3819 22.8618 97.8877 22.8618Z" fill="white"/>
<path d="M103.715 21.442H105.487V22.983H105.53C105.65 22.5017 105.932 22.0764 106.329 21.7785C106.725 21.4806 107.212 21.3284 107.708 21.3473C107.922 21.3465 108.136 21.3698 108.345 21.4166V23.1549C108.074 23.0723 107.792 23.0343 107.51 23.0426C107.24 23.0316 106.971 23.0792 106.721 23.1821C106.471 23.285 106.246 23.4408 106.062 23.6386C105.878 23.8365 105.739 24.0719 105.655 24.3286C105.571 24.5852 105.543 24.8571 105.573 25.1256V30.4957H103.715L103.715 21.442Z" fill="white"/>
<path fill-rule="evenodd" clip-rule="evenodd" d="M113.015 30.6079C115.062 30.6079 116.663 29.48 116.913 27.8364L115.148 27.8364C114.984 28.2455 114.691 28.5904 114.314 28.8199C113.937 29.0493 113.497 29.151 113.058 29.1099C112.723 29.1222 112.39 29.0632 112.081 28.9369C111.771 28.8106 111.491 28.6198 111.261 28.3773C111.031 28.1347 110.855 27.846 110.744 27.5301C110.634 27.2143 110.593 26.8786 110.622 26.5454V26.4331H117.017V25.7964C117.017 23.0513 115.441 21.3306 112.937 21.3306C110.39 21.3306 108.746 23.1724 108.746 26.0122C108.746 28.8433 110.381 30.6079 113.015 30.6079ZM115.157 25.1343H110.631C110.63 24.8316 110.689 24.5319 110.805 24.2522C110.921 23.9726 111.091 23.7186 111.305 23.5049C111.519 23.2913 111.774 23.1222 112.054 23.0075C112.334 22.8928 112.634 22.8346 112.937 22.8364C113.237 22.83 113.535 22.8856 113.812 22.9998C114.09 23.114 114.34 23.2844 114.549 23.5001C114.757 23.7159 114.919 23.9725 115.024 24.2537C115.128 24.5349 115.174 24.8347 115.157 25.1343Z" fill="white"/>
<path d="M67.5107 8.43701H66.6221V14.6978H67.5107V8.43701Z" fill="white"/>
<path fill-rule="evenodd" clip-rule="evenodd" d="M45.3545 8.73114C45.7441 8.70318 46.1351 8.76204 46.4992 8.90347C46.8633 9.0449 47.1915 9.26538 47.4601 9.54901C47.7286 9.83263 47.9309 10.1723 48.0523 10.5436C48.1737 10.9149 48.2112 11.3085 48.1621 11.696C48.1621 13.6022 47.1318 14.698 45.3545 14.698H43.1992V8.73114H45.3545ZM44.126 13.8541H45.251C45.5294 13.8708 45.808 13.8251 46.0665 13.7205C46.3251 13.6159 46.557 13.455 46.7455 13.2494C46.934 13.0438 47.0743 12.7988 47.1562 12.5322C47.238 12.2656 47.2594 11.9841 47.2187 11.7081C47.2564 11.4333 47.2329 11.1535 47.1498 10.8889C47.0667 10.6242 46.926 10.3812 46.738 10.1773C46.5499 9.97334 46.3191 9.81353 46.062 9.70929C45.8049 9.60506 45.528 9.55897 45.251 9.57435H44.126V13.8541Z" fill="white"/>
<path fill-rule="evenodd" clip-rule="evenodd" d="M49.209 12.4445C49.1807 12.1486 49.2145 11.85 49.3084 11.568C49.4022 11.2859 49.554 11.0266 49.7539 10.8066C49.9539 10.5866 50.1976 10.4108 50.4694 10.2906C50.7413 10.1703 51.0353 10.1082 51.3325 10.1082C51.6298 10.1082 51.9238 10.1703 52.1956 10.2906C52.4675 10.4108 52.7112 10.5866 52.9111 10.8066C53.1111 11.0266 53.2628 11.2859 53.3567 11.568C53.4505 11.85 53.4844 12.1486 53.4561 12.4445C53.4849 12.7408 53.4515 13.0397 53.3579 13.3223C53.2643 13.6048 53.1126 13.8646 52.9126 14.085C52.7126 14.3054 52.4687 14.4816 52.1966 14.6021C51.9245 14.7226 51.6301 14.7849 51.3325 14.7849C51.0349 14.7849 50.7406 14.7226 50.4684 14.6021C50.1963 14.4816 49.9524 14.3054 49.7524 14.085C49.5524 13.8646 49.4008 13.6048 49.3072 13.3223C49.2136 13.0397 49.1801 12.7408 49.209 12.4445ZM52.542 12.4445C52.542 11.4685 52.1035 10.8977 51.334 10.8977C50.5615 10.8977 50.127 11.4685 50.127 12.4445C50.127 13.4284 50.5616 13.9948 51.334 13.9948C52.1035 13.9948 52.542 13.4245 52.542 12.4445Z" fill="white"/>
<path d="M58.1797 14.6978H59.1016L60.3379 10.1948H59.4492L58.6465 13.6308H58.5762L57.6504 10.1948H56.7979L55.8721 13.6308H55.8057L54.999 10.1948H54.0977L55.3389 14.6978H56.252L57.1787 11.3813H57.249L58.1797 14.6978Z" fill="white"/>
<path d="M61.3818 10.1949H62.2373V10.9102H62.3037C62.4164 10.6533 62.6064 10.4379 62.8472 10.2941C63.0881 10.1503 63.3679 10.0852 63.6475 10.1079C63.8666 10.0915 64.0866 10.1245 64.2912 10.2046C64.4958 10.2847 64.6797 10.4098 64.8294 10.5707C64.9791 10.7315 65.0907 10.924 65.1559 11.1338C65.2211 11.3436 65.2382 11.5654 65.2061 11.7827V14.6977H64.3174V12.0059C64.3174 11.2823 64.0029 10.9224 63.3457 10.9224C63.1969 10.9155 63.0484 10.9408 62.9104 10.9966C62.7723 11.0525 62.648 11.1375 62.5459 11.2459C62.4437 11.3543 62.3663 11.4834 62.3187 11.6246C62.2712 11.7657 62.2547 11.9154 62.2705 12.0635V14.6978H61.3818L61.3818 10.1949Z" fill="white"/>
<path fill-rule="evenodd" clip-rule="evenodd" d="M68.7461 12.4444C68.7178 12.1484 68.7517 11.8499 68.8455 11.5678C68.9394 11.2857 69.0912 11.0263 69.2911 10.8064C69.4911 10.5864 69.7348 10.4106 70.0067 10.2903C70.2786 10.17 70.5726 10.1079 70.8699 10.1079C71.1671 10.1079 71.4611 10.17 71.733 10.2903C72.0049 10.4106 72.2486 10.5864 72.4486 10.8064C72.6485 11.0263 72.8003 11.2857 72.8942 11.5678C72.988 11.8499 73.0219 12.1484 72.9936 12.4444C73.0224 12.7406 72.989 13.0396 72.8953 13.3221C72.8017 13.6046 72.65 13.8645 72.45 14.0849C72.25 14.3053 72.0061 14.4814 71.734 14.6019C71.4618 14.7225 71.1675 14.7847 70.8699 14.7847C70.5722 14.7847 70.2779 14.7225 70.0057 14.6019C69.7336 14.4814 69.4897 14.3053 69.2897 14.0849C69.0897 13.8645 68.938 13.6046 68.8444 13.3221C68.7507 13.0396 68.7173 12.7406 68.7461 12.4444ZM72.0791 12.4444C72.0791 11.4683 71.6406 10.8975 70.8711 10.8975C70.0986 10.8975 69.6641 11.4683 69.6641 12.4444C69.6641 13.4283 70.0986 13.9947 70.8711 13.9947C71.6406 13.9947 72.0791 13.4244 72.0791 12.4444Z" fill="white"/>
<path fill-rule="evenodd" clip-rule="evenodd" d="M75.604 12.0801C74.5327 12.1465 73.9292 12.6138 73.9292 13.4243C73.9299 13.6144 73.9705 13.8021 74.0483 13.9756C74.126 14.149 74.2393 14.3042 74.3807 14.4311C74.5221 14.5581 74.6886 14.654 74.8693 14.7127C75.0501 14.7714 75.2411 14.7916 75.4302 14.7719C75.698 14.7843 75.9643 14.7254 76.202 14.6012C76.4396 14.477 76.64 14.2919 76.7827 14.0649H76.853V14.6977H77.7085V11.6211C77.7085 10.6699 77.0718 10.1079 75.9429 10.1079C74.9214 10.1079 74.1938 10.604 74.103 11.3774H74.9634C75.062 11.0591 75.4058 10.877 75.9019 10.877C76.5093 10.877 76.8237 11.1455 76.8237 11.6211V12.0098L75.604 12.0801ZM76.8237 12.6631V13.0395C76.8141 13.1816 76.776 13.3202 76.7117 13.4473C76.6474 13.5743 76.5582 13.6871 76.4494 13.7789C76.3406 13.8707 76.2145 13.9398 76.0785 13.9819C75.9425 14.0239 75.7994 14.0382 75.6577 14.0239C75.1743 14.0239 74.8227 13.7881 74.8227 13.3828C74.8227 12.9858 75.104 12.7749 75.7241 12.7334L76.8237 12.6631Z" fill="white"/>
<path fill-rule="evenodd" clip-rule="evenodd" d="M78.8765 12.4444C78.8765 11.0215 79.6079 10.1201 80.7456 10.1201C81.027 10.1072 81.3063 10.1746 81.5508 10.3145C81.7954 10.4544 81.995 10.661 82.1265 10.9101H82.1929V8.43701H83.0815V14.6978H82.23V13.9863H82.1597C82.0181 14.2338 81.8115 14.4378 81.5622 14.5763C81.3129 14.7148 81.0306 14.7825 80.7456 14.772C79.6001 14.772 78.8765 13.8706 78.8765 12.4444ZM79.7945 12.4444C79.7945 13.3994 80.2447 13.9741 80.9976 13.9741C81.7466 13.9741 82.2095 13.3911 82.2095 12.4483C82.2095 11.5098 81.7417 10.9185 80.9976 10.9185C80.2495 10.9185 79.7945 11.4971 79.7945 12.4444Z" fill="white"/>
<path fill-rule="evenodd" clip-rule="evenodd" d="M86.8577 11.568C86.7638 11.85 86.73 12.1486 86.7583 12.4445C86.7295 12.7408 86.7629 13.0397 86.8565 13.3223C86.9501 13.6048 87.1018 13.8646 87.3017 14.085C87.5017 14.3054 87.7456 14.4816 88.0178 14.6021C88.2899 14.7226 88.5842 14.7849 88.8818 14.7849C89.1795 14.7849 89.4738 14.7226 89.7459 14.6021C90.018 14.4816 90.2619 14.3054 90.4619 14.085C90.6619 13.8646 90.8136 13.6048 90.9072 13.3223C91.0008 13.0397 91.0342 12.7408 91.0054 12.4445C91.0337 12.1486 90.9998 11.85 90.906 11.568C90.8121 11.2859 90.6604 11.0266 90.4604 10.8066C90.2605 10.5866 90.0168 10.4108 89.7449 10.2906C89.4731 10.1703 89.1791 10.1082 88.8818 10.1082C88.5846 10.1082 88.2906 10.1703 88.0187 10.2906C87.7469 10.4108 87.5032 10.5866 87.3032 10.8066C87.1033 11.0266 86.9515 11.2859 86.8577 11.568ZM88.8833 10.8977C89.6528 10.8977 90.0913 11.4685 90.0913 12.4445C90.0913 13.4245 89.6528 13.9948 88.8833 13.9948C88.1109 13.9948 87.6763 13.4284 87.6763 12.4445C87.6763 11.4685 88.1108 10.8977 88.8833 10.8977Z" fill="white"/>
<path d="M92.1978 10.1949H93.0532V10.9102H93.1196C93.2323 10.6533 93.4223 10.4379 93.6632 10.2941C93.904 10.1503 94.1838 10.0852 94.4634 10.1079C94.6825 10.0915 94.9025 10.1245 95.1071 10.2046C95.3117 10.2847 95.4956 10.4098 95.6453 10.5707C95.795 10.7315 95.9066 10.924 95.9718 11.1338C96.037 11.3436 96.0541 11.5654 96.022 11.7827V14.6977H95.1333V12.0059C95.1333 11.2823 94.8189 10.9224 94.1616 10.9224C94.0129 10.9155 93.8644 10.9408 93.7263 10.9966C93.5883 11.0525 93.4639 11.1375 93.3618 11.2459C93.2596 11.3543 93.1822 11.4834 93.1346 11.6246C93.0871 11.7657 93.0707 11.9154 93.0864 12.0635V14.6978H92.1978V10.1949Z" fill="white"/>
<path d="M101.043 10.2153V9.07373H100.154V10.2153H99.439V10.9638H100.154V13.5068C100.154 14.375 100.547 14.7226 101.536 14.7226C101.698 14.721 101.859 14.7058 102.019 14.6772V13.937C101.907 13.9503 101.793 13.9572 101.68 13.9575C101.238 13.9575 101.043 13.751 101.043 13.2793V10.9639H102.019V10.2153H101.043Z" fill="white"/>
<path d="M103.233 8.43701H104.114V10.9185H104.184C104.302 10.6591 104.497 10.4425 104.743 10.2982C104.989 10.1539 105.273 10.0888 105.557 10.1118C105.775 10.1 105.993 10.1364 106.195 10.2184C106.397 10.3004 106.579 10.4261 106.727 10.5864C106.875 10.7468 106.986 10.9378 107.052 11.146C107.118 11.3541 107.137 11.5742 107.108 11.7905V14.6978H106.218V12.0098C106.218 11.2905 105.883 10.9263 105.255 10.9263C105.103 10.9137 104.949 10.9347 104.805 10.9878C104.661 11.0408 104.531 11.1247 104.423 11.2334C104.315 11.3421 104.232 11.4732 104.18 11.6173C104.128 11.7614 104.108 11.9152 104.122 12.0679V14.6977H103.233L103.233 8.43701Z" fill="white"/>
<path fill-rule="evenodd" clip-rule="evenodd" d="M111.551 14.4877C111.907 14.2495 112.169 13.8935 112.29 13.482L111.434 13.482C111.33 13.669 111.172 13.8207 110.981 13.9179C110.791 14.0151 110.575 14.0534 110.363 14.0279C110.197 14.0297 110.033 13.9969 109.88 13.9315C109.728 13.8661 109.591 13.7696 109.478 13.6481C109.365 13.5267 109.279 13.383 109.225 13.2262C109.17 13.0695 109.15 12.9031 109.164 12.7379V12.6881H112.343V12.378C112.343 10.964 111.587 10.108 110.334 10.108C110.037 10.1054 109.742 10.1669 109.471 10.2881C109.199 10.4093 108.956 10.5874 108.76 10.8105C108.563 11.0336 108.416 11.2964 108.33 11.581C108.243 11.8657 108.219 12.1656 108.258 12.4605C108.218 12.7545 108.242 13.0538 108.328 13.3376C108.415 13.6214 108.562 13.883 108.76 14.1041C108.958 14.3253 109.202 14.5007 109.474 14.6182C109.747 14.7357 110.042 14.7926 110.338 14.7847C110.765 14.831 111.194 14.7258 111.551 14.4877ZM111.438 12.0308H109.164C109.162 11.8771 109.19 11.7246 109.248 11.5822C109.306 11.4398 109.392 11.3104 109.501 11.2017C109.609 11.093 109.739 11.0072 109.881 10.9492C110.023 10.8913 110.176 10.8624 110.33 10.8643C110.481 10.8609 110.632 10.8891 110.772 10.9473C110.911 11.0055 111.038 11.0923 111.142 11.2021C111.246 11.312 111.327 11.4425 111.378 11.5852C111.429 11.7279 111.449 11.8797 111.438 12.0308Z" fill="white"/>
</svg>
