<svg width="135" height="40" viewBox="0 0 135 40" fill="none" xmlns="http://www.w3.org/2000/svg">
<path d="M130 0H5C2.23858 0 0 2.23858 0 5V35C0 37.7614 2.23858 40 5 40H130C132.761 40 135 37.7614 135 35V5C135 2.23858 132.761 0 130 0Z" fill="black"/>
<path d="M130 0.8C132.32 0.8 134.2 2.68 134.2 5V35C134.2 37.32 132.32 39.2 130 39.2H5C2.68 39.2 0.800001 37.32 0.800001 35V5C0.800001 2.68 2.68 0.8 5 0.8H130ZM130 0H5C2.25 0 0 2.25 0 5V35C0 37.75 2.25 40 5 40H130C132.75 40 135 37.75 135 35V5C135 2.25 132.75 0 130 0Z" fill="#A6A6A6"/>
<path d="M47.4203 10.24C47.4203 11.08 47.1703 11.75 46.6703 12.24C46.1103 12.83 45.3804 13.13 44.4704 13.13C43.5604 13.13 42.8604 12.83 42.2604 12.23C41.6604 11.63 41.3604 10.88 41.3604 10C41.3604 9.12 41.6604 8.37 42.2604 7.77C42.8604 7.17 43.6004 6.86 44.4704 6.86C44.9104 6.86 45.3304 6.94 45.7204 7.09C46.1104 7.25 46.4304 7.47 46.6804 7.75L46.1303 8.3C45.9503 8.08 45.7103 7.9 45.4103 7.78C45.1203 7.65 44.8004 7.59 44.4704 7.59C43.8204 7.59 43.2603 7.82 42.8103 8.27C42.3603 8.73 42.1404 9.3 42.1404 9.99C42.1404 10.68 42.3603 11.25 42.8103 11.71C43.2603 12.16 43.8104 12.39 44.4704 12.39C45.0704 12.39 45.5603 12.22 45.9603 11.89C46.3603 11.56 46.5904 11.09 46.6504 10.51H44.4704V9.79H47.3803C47.4103 9.95 47.4203 10.1 47.4203 10.24Z" fill="white" stroke="white" stroke-width="0.2" stroke-miterlimit="10"/>
<path d="M52.0303 7V7.74H49.3003V9.64H51.7603V10.36H49.3003V12.26H52.0303V13H48.5303V7H52.0303Z" fill="white" stroke="white" stroke-width="0.2" stroke-miterlimit="10"/>
<path d="M55.2801 7.74V13H54.5101V7.74H52.8301V7H56.9501V7.74H55.2701H55.2801Z" fill="white" stroke="white" stroke-width="0.2" stroke-miterlimit="10"/>
<path d="M60.7104 13H59.9404V7H60.7104V13Z" fill="white" stroke="white" stroke-width="0.2" stroke-miterlimit="10"/>
<path d="M64.1307 7.74V13H63.3607V7.74H61.6807V7H65.8007V7.74H64.1207H64.1307Z" fill="white" stroke="white" stroke-width="0.2" stroke-miterlimit="10"/>
<path d="M74.4905 10C74.4905 10.89 74.1905 11.63 73.6005 12.23C73.0005 12.83 72.2706 13.13 71.4006 13.13C70.5306 13.13 69.8005 12.83 69.2005 12.23C68.6105 11.63 68.3105 10.89 68.3105 10C68.3105 9.11 68.6105 8.37 69.2005 7.77C69.7905 7.17 70.5206 6.86 71.4006 6.86C72.2806 6.86 73.0005 7.16 73.6005 7.77C74.1905 8.37 74.4905 9.11 74.4905 9.99V10ZM69.1105 10C69.1105 10.69 69.3306 11.27 69.7606 11.72C70.2006 12.17 70.7506 12.4 71.4006 12.4C72.0506 12.4 72.6005 12.17 73.0305 11.72C73.4705 11.27 73.6905 10.7 73.6905 10C73.6905 9.3 73.4705 8.73 73.0305 8.28C72.5905 7.83 72.0506 7.6 71.4006 7.6C70.7506 7.6 70.2006 7.83 69.7606 8.28C69.3206 8.73 69.1105 9.31 69.1105 10Z" fill="white" stroke="white" stroke-width="0.2" stroke-miterlimit="10"/>
<path d="M76.3403 13H75.5703V7H76.5103L79.4303 11.67H79.4603L79.4303 10.51V7H80.2003V13H79.4003L76.3503 8.11H76.3203L76.3503 9.27V13.01L76.3403 13Z" fill="white" stroke="white" stroke-width="0.2" stroke-miterlimit="10"/>
<path d="M68.1398 21.75C65.7898 21.75 63.8698 23.54 63.8698 26C63.8698 28.46 65.7898 30.25 68.1398 30.25C70.4898 30.25 72.4098 28.45 72.4098 26C72.4098 23.55 70.4898 21.75 68.1398 21.75ZM68.1398 28.58C66.8498 28.58 65.7398 27.52 65.7398 26C65.7398 24.48 66.8498 23.42 68.1398 23.42C69.4298 23.42 70.5398 24.47 70.5398 26C70.5398 27.53 69.4298 28.58 68.1398 28.58ZM58.8298 21.75C56.4798 21.75 54.5598 23.54 54.5598 26C54.5598 28.46 56.4798 30.25 58.8298 30.25C61.1798 30.25 63.0998 28.45 63.0998 26C63.0998 23.55 61.1798 21.75 58.8298 21.75ZM58.8298 28.58C57.5398 28.58 56.4298 27.52 56.4298 26C56.4298 24.48 57.5398 23.42 58.8298 23.42C60.1198 23.42 61.2298 24.47 61.2298 26C61.2298 27.53 60.1198 28.58 58.8298 28.58ZM47.7498 23.05V24.85H52.0698C51.9398 25.86 51.5998 26.61 51.0898 27.12C50.4598 27.75 49.4798 28.44 47.7598 28.44C45.0998 28.44 43.0198 26.3 43.0198 23.64C43.0198 20.98 45.0998 18.84 47.7598 18.84C49.1898 18.84 50.2398 19.4 51.0098 20.13L52.2798 18.86C51.1998 17.83 49.7698 17.04 47.7498 17.04C44.1098 17.04 41.0498 20 41.0498 23.65C41.0498 27.3 44.1098 30.26 47.7498 30.26C49.7198 30.26 51.1998 29.62 52.3598 28.41C53.5498 27.22 53.9198 25.54 53.9198 24.19C53.9198 23.77 53.8898 23.38 53.8198 23.06H47.7498V23.05ZM93.0598 24.45C92.7098 23.5 91.6298 21.74 89.4198 21.74C87.2098 21.74 85.4098 23.46 85.4098 25.99C85.4098 28.37 87.2098 30.24 89.6298 30.24C91.5798 30.24 92.7098 29.05 93.1698 28.36L91.7198 27.39C91.2398 28.1 90.5798 28.57 89.6298 28.57C88.6798 28.57 87.9998 28.14 87.5698 27.28L93.2598 24.93L93.0698 24.45H93.0598ZM87.2598 25.87C87.2098 24.23 88.5298 23.39 89.4798 23.39C90.2198 23.39 90.8498 23.76 91.0598 24.29L87.2598 25.87ZM82.6398 29.99H84.5098V17.49H82.6398V29.99ZM79.5798 22.69H79.5198C79.0998 22.19 78.2998 21.74 77.2798 21.74C75.1498 21.74 73.1998 23.61 73.1998 26.01C73.1998 28.41 75.1498 30.25 77.2798 30.25C78.2898 30.25 79.0998 29.8 79.5198 29.28H79.5798V29.89C79.5798 31.52 78.7098 32.39 77.3098 32.39C76.1698 32.39 75.4598 31.57 75.1698 30.88L73.5398 31.56C74.0098 32.69 75.2498 34.07 77.3098 34.07C79.4998 34.07 81.3498 32.78 81.3498 29.64V22H79.5798V22.69ZM77.4398 28.57C76.1498 28.57 75.0698 27.49 75.0698 26.01C75.0698 24.53 76.1498 23.42 77.4398 23.42C78.7298 23.42 79.7098 24.52 79.7098 26.01C79.7098 27.5 78.7098 28.57 77.4398 28.57ZM101.82 17.49H97.3498V29.99H99.2198V25.25H101.83C103.9 25.25 105.93 23.75 105.93 21.37C105.93 18.99 103.9 17.49 101.83 17.49H101.82ZM101.87 23.52H99.2198V19.23H101.87C103.27 19.23 104.06 20.39 104.06 21.37C104.06 22.35 103.27 23.51 101.87 23.51V23.52ZM113.4 21.72C112.05 21.72 110.65 22.32 110.07 23.63L111.73 24.32C112.08 23.63 112.74 23.4 113.43 23.4C114.39 23.4 115.38 23.98 115.39 25.01V25.14C115.05 24.95 114.33 24.66 113.44 24.66C111.65 24.66 109.84 25.64 109.84 27.47C109.84 29.14 111.3 30.22 112.94 30.22C114.19 30.22 114.89 29.66 115.32 29H115.38V29.96H117.18V25.17C117.18 22.95 115.52 21.71 113.38 21.71L113.4 21.72ZM113.17 28.57C112.56 28.57 111.71 28.26 111.71 27.51C111.71 26.55 112.77 26.18 113.69 26.18C114.51 26.18 114.9 26.36 115.39 26.6C115.25 27.76 114.25 28.58 113.17 28.58V28.57ZM123.75 21.99L121.61 27.41H121.55L119.33 21.99H117.32L120.65 29.57L118.75 33.78H120.7L125.83 21.99H123.76H123.75ZM106.94 29.99H108.81V17.49H106.94V29.99Z" fill="white"/>
<path d="M20.7193 19.42L10.0693 30.72C10.3993 31.95 11.5193 32.85 12.8493 32.85C13.3793 32.85 13.8793 32.71 14.3093 32.45L14.3393 32.43L26.3193 25.52L20.7093 19.41L20.7193 19.42Z" fill="#EA4335"/>
<path d="M31.4895 17.5H31.4795L26.3095 14.49L20.4795 19.68L26.3295 25.53L31.4795 22.56C32.3795 22.07 32.9895 21.12 32.9895 20.03C32.9895 18.94 32.3895 17.99 31.4895 17.51V17.5Z" fill="#FBBC04"/>
<path d="M10.0697 9.28C10.0097 9.52 9.96973 9.76 9.96973 10.02V29.98C9.96973 30.24 9.99973 30.48 10.0697 30.72L21.0797 19.71L10.0697 9.27V9.28Z" fill="#4285F4"/>
<path d="M20.7993 20L26.3093 14.49L14.3393 7.55C13.9093 7.29 13.3993 7.14 12.8493 7.14C11.5193 7.14 10.3993 8.05 10.0693 9.27L20.7993 19.99V20Z" fill="#34A853"/>
</svg>
