<?xml version="1.0" encoding="UTF-8" standalone="no"?>
<!-- License: PD. Made by puppylinux: https://github.com/puppylinux-woof-CE/puppy_icon_theme -->

<svg
   width="718.68823"
   height="610.19519"
   viewBox="0 0 89.836029 76.274399"
   version="1.1"
   id="svg5"
   sodipodi:docname="setup-computers.svg"
   inkscape:version="1.4.2 (f4327f4, 2025-05-13)"
   xmlns:inkscape="http://www.inkscape.org/namespaces/inkscape"
   xmlns:sodipodi="http://sodipodi.sourceforge.net/DTD/sodipodi-0.dtd"
   xmlns="http://www.w3.org/2000/svg"
   xmlns:svg="http://www.w3.org/2000/svg">
  <defs
     id="defs5" />
  <sodipodi:namedview
     id="namedview5"
     pagecolor="#ffffff"
     bordercolor="#000000"
     borderopacity="0.25"
     inkscape:showpageshadow="2"
     inkscape:pageopacity="0.0"
     inkscape:pagecheckerboard="0"
     inkscape:deskcolor="#d1d1d1"
     inkscape:zoom="2.2675"
     inkscape:cx="358.10364"
     inkscape:cy="274.75193"
     inkscape:window-width="3840"
     inkscape:window-height="2053"
     inkscape:window-x="-11"
     inkscape:window-y="-11"
     inkscape:window-maximized="1"
     inkscape:current-layer="svg5" />
  <path
     style="fill:#94776d;stroke:none"
     d="m 22,30 h 148 a 12,12 0 0 1 12,12 v 108 a 12,12 0 0 1 -12,12 H 22 A 12,12 0 0 1 10,150 V 42 A 12,12 0 0 1 22,30 Z"
     id="path1"
     transform="matrix(0.521,0,0,0.521,-5.21,-15.63)" />
  <path
     style="fill:#3e2723"
     d="m 88,30 v 32 h -4 v 24 h 24 V 62 h -4 V 30 H 98 V 62 H 94 V 30 Z m 0,44 h 16 v 6 H 88 Z"
     id="path2"
     transform="matrix(0.521,0,0,0.521,-5.21,-15.63)" />
  <path
     style="display:inline;fill:#9e9e9e;stroke:none"
     d="m 96,8 a 88,88 1 1 0 0.1,0 z m -0.1,104 a 16,16 0 1 1 0.1,0 z"
     id="path3"
     transform="matrix(0.3126,0,0,0.3126,32.302,18.756)" />
</svg>
