<?xml version="1.0" encoding="UTF-8" standalone="no"?>
<svg
   width="159.99699"
   height="159.996"
   viewBox="0 0 159.99699 159.996"
   version="1.1"
   xml:space="preserve"
   style="clip-rule:evenodd;fill-rule:evenodd;stroke-linejoin:round;stroke-miterlimit:1.41421"
   id="svg20"
   sodipodi:docname="stackedit.svg"
   inkscape:version="1.4.2 (f4327f4, 2025-05-13)"
   xmlns:inkscape="http://www.inkscape.org/namespaces/inkscape"
   xmlns:sodipodi="http://sodipodi.sourceforge.net/DTD/sodipodi-0.dtd"
   xmlns="http://www.w3.org/2000/svg"
   xmlns:svg="http://www.w3.org/2000/svg"><sodipodi:namedview
     id="namedview20"
     pagecolor="#ffffff"
     bordercolor="#000000"
     borderopacity="0.25"
     inkscape:showpageshadow="2"
     inkscape:pageopacity="0.0"
     inkscape:pagecheckerboard="0"
     inkscape:deskcolor="#d1d1d1"
     inkscape:zoom="7.4508852"
     inkscape:cx="102.33683"
     inkscape:cy="72.273292"
     inkscape:window-width="3840"
     inkscape:window-height="2054"
     inkscape:window-x="-11"
     inkscape:window-y="-11"
     inkscape:window-maximized="1"
     inkscape:current-layer="svg20" /><clipPath
     id="_clip1"><path
       d="m 159.997,40.003 c 0,-22.076 -17.923,-39.999 -39.999,-39.999 H 39.999 C 17.923,0.004 0,17.927 0,40.003 v 79.998 C 0,142.077 17.923,160 39.999,160 h 79.999 c 22.076,0 39.999,-17.923 39.999,-39.999 z"
       id="path3" /></clipPath><path
     id="path4"
     style="clip-rule:evenodd;display:inline;fill:#ffd700;fill-rule:evenodd;stroke-linejoin:round;stroke-miterlimit:1.41421"
     inkscape:label="path4"
     d="M 32.648438 0.004 C 23.634754 0.004 15.468968 3.6654758 9.5585938 9.5801719 L 79.990234 80.011813 L 150.46094 9.5391562 C 144.55378 3.6482021 136.40525 0.004 127.41211 0.004 L 32.648438 0.004 z "
     transform="translate(0,-0.004)" /><path
     id="path5"
     style="clip-rule:evenodd;display:inline;fill:#a5c700;fill-rule:evenodd;stroke-linejoin:round;stroke-miterlimit:1.41421"
     d="M 9.5585938 9.5801719 C 3.6538486 15.489204 0 23.647362 0 32.652437 L 0 127.41611 C 0 136.40937 3.6440619 144.55807 9.5351562 150.46494 L 79.990234 80.009859 L 9.5585938 9.5801719 z "
     transform="translate(0,-0.004)" /><path
     id="path6"
     style="clip-rule:evenodd;display:inline;fill:#ff8a00;fill-rule:evenodd;stroke-linejoin:round;stroke-miterlimit:1.41421"
     d="M 79.990234 80.011813 L 9.5351562 150.46494 C 15.065071 156.00963 22.574717 159.57927 30.908203 160.01767 L 129.15234 160.01767 C 137.46555 159.58034 144.95831 156.02755 150.48438 150.50595 L 79.990234 80.011813 z "
     transform="translate(0,-0.004)" /><path
     id="path7"
     style="clip-rule:evenodd;display:inline;fill:#66aefd;fill-rule:evenodd;stroke-linejoin:round;stroke-miterlimit:1.41421"
     d="M 150.46094 9.5391562 L 79.990234 80.011813 L 150.48438 150.50595 C 155.94596 145.04879 159.4856 137.6681 159.99609 129.47275 L 159.99609 30.595797 C 159.48488 22.388833 155.93567 14.998874 150.46094 9.5391562 z "
     transform="translate(0,-0.004)" /><path
     d="m 145.013,39.002 c 0,-14.636 -11.883,-26.519 -26.519,-26.519 H 41.52 c -14.636,0 -26.519,11.883 -26.519,26.519 v 76.974 c 0,14.636 11.883,26.518 26.519,26.518 h 76.974 c 14.636,0 26.519,-11.882 26.519,-26.518 z"
     style="display:inline;fill:#ffffff"
     id="path12" /><path
     d="m 30.89,40.073 h 9.135 V 27.881 h 9.323 V 40.073 H 60.66 V 27.881 h 9.323 v 12.192 h 9.136 v 11.272 h -9.136 v 12.681 h 9.136 V 75.298 H 69.983 V 87.49 H 60.66 V 75.298 H 49.348 V 87.49 H 40.025 V 75.298 H 30.89 V 64.026 h 9.135 V 51.345 H 30.89 Z M 49.348,51.345 V 64.026 H 60.66 V 51.345 Z"
     style="clip-rule:evenodd;display:inline;fill:#737373;fill-rule:evenodd;stroke-linejoin:round;stroke-miterlimit:1.41421"
     id="path13" /><defs
     id="defs20"><linearGradient
       id="_Linear2"
       x1="0"
       y1="0"
       x2="1"
       y2="0"
       gradientUnits="userSpaceOnUse"
       gradientTransform="matrix(-20.0015,-20.0018,20.0018,-20.0015,159.997,20.0053)"><stop
         offset="0"
         style="stop-color:#66aefd;stop-opacity:1"
         id="stop13" /><stop
         offset="1"
         style="stop-color:#ffd700;stop-opacity:1"
         id="stop14" /></linearGradient><linearGradient
       id="_Linear3"
       x1="0"
       y1="0"
       x2="1"
       y2="0"
       gradientUnits="userSpaceOnUse"
       gradientTransform="matrix(20.0018,-20.0015,20.0015,20.0018,140.004,160.018)"><stop
         offset="0"
         style="stop-color:#ff8a00;stop-opacity:1"
         id="stop15" /><stop
         offset="1"
         style="stop-color:#66aefd;stop-opacity:1"
         id="stop16" /></linearGradient><linearGradient
       id="_Linear4"
       x1="0"
       y1="0"
       x2="1"
       y2="0"
       gradientUnits="userSpaceOnUse"
       gradientTransform="matrix(20.0015,20.0018,-20.0018,20.0015,-0.0173131,140.007)"><stop
         offset="0"
         style="stop-color:#a5c700;stop-opacity:1"
         id="stop17" /><stop
         offset="1"
         style="stop-color:#ff8a00;stop-opacity:1"
         id="stop18" /></linearGradient><linearGradient
       id="_Linear5"
       x1="0"
       y1="0"
       x2="1"
       y2="0"
       gradientUnits="userSpaceOnUse"
       gradientTransform="matrix(-20.0018,20.0015,-20.0015,-20.0018,19.9845,0.00353669)"><stop
         offset="0"
         style="stop-color:#ffd700;stop-opacity:1"
         id="stop19" /><stop
         offset="1"
         style="stop-color:#a5c700;stop-opacity:1"
         id="stop20" /></linearGradient></defs></svg>
