<?xml version="1.0" encoding="UTF-8" standalone="no"?>
<svg
   width="2479"
   height="2508"
   viewBox="0 0 256.82881 259.8288"
   preserveAspectRatio="xMidYMid"
   version="1.1"
   id="svg1"
   sodipodi:docname="steam-1.svg"
   inkscape:version="1.4.2 (f4327f4, 2025-05-13)"
   xmlns:inkscape="http://www.inkscape.org/namespaces/inkscape"
   xmlns:sodipodi="http://sodipodi.sourceforge.net/DTD/sodipodi-0.dtd"
   xmlns="http://www.w3.org/2000/svg"
   xmlns:svg="http://www.w3.org/2000/svg">
  <defs
     id="defs1" />
  <sodipodi:namedview
     id="namedview1"
     pagecolor="#ffffff"
     bordercolor="#000000"
     borderopacity="0.25"
     inkscape:showpageshadow="2"
     inkscape:pageopacity="0.0"
     inkscape:pagecheckerboard="0"
     inkscape:deskcolor="#d1d1d1"
     inkscape:zoom="0.51307668"
     inkscape:cx="614.91783"
     inkscape:cy="1547.527"
     inkscape:window-width="3840"
     inkscape:window-height="2053"
     inkscape:window-x="-11"
     inkscape:window-y="-11"
     inkscape:window-maximized="1"
     inkscape:current-layer="svg1" />
  <path
     d="M 128.1934,0.41440712 C 60.834408,0.41440712 5.6544072,52.826408 0.41440712,119.4284 l 68.72400088,28.674 a 35.812,35.812 0 0 1 20.426,-6.366 c 0.682,0 1.356,0.019 2.02,0.056 L 122.1504,97.082408 v -0.626 c 0,-26.903 21.69,-48.796 48.353,-48.796 26.662,0 48.352,21.893 48.352,48.796 0,26.901992 -21.69,48.803992 -48.352,48.803992 -0.37,0 -0.73,-0.009 -1.098,-0.018 l -43.593,31.377 c 0.028,0.582 0.046,1.163 0.046,1.735 0,20.204 -16.283,36.636 -36.293992,36.636 -17.566,0 -32.263,-12.658 -35.584,-29.412 l -49.1560008,-20.51 c 15.2230008,54.313 64.6730008,94.132 123.3689928,94.132 70.818,0 128.221,-57.938 128.221,-129.393 0,-71.462992 -57.403,-129.39299288 -128.221,-129.39299288 z M 80.766408,196.7464 l -15.749,-6.568 c 2.787,5.867 7.621,10.775 14.033,13.47 13.857,5.83 29.835992,-0.803 35.611992,-14.799 a 27.555,27.555 0 0 0 0.046,-21.035 c -2.768,-6.79 -7.999,-12.086 -14.70599,-14.909 -6.670002,-2.795 -13.811002,-2.694 -20.085002,-0.304 l 16.275,6.79 c 10.221992,4.3 15.055992,16.145 10.793992,26.46 -4.253,10.314 -15.997992,15.195 -26.219992,10.895 z M 202.7234,96.456408 c 0,-17.925 -14.457,-32.52 -32.217,-32.52 -17.769,0 -32.226,14.595 -32.226,32.52 0,17.925992 14.457,32.511992 32.226,32.511992 17.76,0 32.217,-14.586 32.217,-32.511992 z m -56.37,-0.055 c 0,-13.488 10.84,-24.42 24.2,-24.42 13.368,0 24.208,10.932 24.208,24.42 0,13.487992 -10.84,24.420992 -24.209,24.420992 -13.359,0 -24.2,-10.933 -24.2,-24.419992 z"
     fill="#1a1918"
     id="path1"
     style="fill:#003380" />
</svg>
