<?xml version="1.0" encoding="UTF-8" standalone="no"?>
<!-- Created with Inkscape (http://www.inkscape.org/) -->
<svg width="113.78759mm" height="102.87849mm" viewBox="0 0 113.78759 102.87849" version="1.1" id="svg5" xml:space="preserve" xmlns="http://www.w3.org/2000/svg" xmlns:svg="http://www.w3.org/2000/svg"><defs id="defs2"/><g id="layer1" transform="translate(-65.094066,-95.428259)"><g id="g8520" transform="translate(1.1039338,-59.659664)"><path class="st0" d="m 172.60265,216.73416 c 7.32896,-7.67291 6.48229,-14.73729 -0.0794,-20.79625 -9.65729,-9.04875 -21.06083,-16.3777 -32.99354,-23.28333 -11.58875,-6.74687 -23.86541,-12.27667 -36.48604,-16.80104 -7.17021,-2.46063 -14.9225,1.19062 -17.4625,8.36083 -0.26458,0.68792 -0.42333,1.37584 -0.50271,2.03729 -4.97416,26.61709 -4.97416,53.89563 -0.10583,80.48625 1.37583,7.40834 8.51958,12.35604 15.92792,11.00667 0.68791,-0.15875 1.4552,-0.34396 2.14312,-0.60854 12.85875,-4.60375 25.24125,-10.39813 36.98875,-17.30375 11.77396,-6.74688 23.44208,-13.6525 32.57021,-23.09813 z" id="path189" style="fill:#30a3f9;fill-opacity:1;stroke-width:0.264583"/><path class="st1" d="m 84.97265,167.20416 c -0.34396,-0.0794 -0.68792,-0.15875 -1.03187,-0.34395 -7.24959,-2.2225 -13.62605,0.34395 -16.53646,8.17562 -3.57188,9.78958 -3.41313,20.79625 -3.41313,31.53833 0,10.74209 -0.0794,21.56354 3.33375,31.37959 3.14854,9.02229 9.28688,10.39812 16.53646,8.17562 0.34396,-0.0794 1.27,-0.50271 1.53458,-0.60854 -2.30187,-12.7 -4.10104,-25.47938 -4.10104,-38.86729 0.18521,-13.20271 1.29646,-26.40542 3.67771,-39.44938 z" id="path196" style="fill:#fc7734;fill-opacity:1;stroke-width:0.264583"/><path class="st2" d="m 84.89328,167.12479 c -4.68313,26.08791 -4.7625,52.83729 -0.0794,78.92521 11.43,-3.4925 22.59542,-7.9375 33.3375,-13.30855 10.82146,-5.37104 21.21958,-11.08604 30.08312,-18.15041 6.64105,-5.29167 5.97959,-11.43 -0.0794,-16.37771 -8.96938,-7.22313 -19.55271,-12.85875 -30.61229,-18.22979 -10.39813,-5.18583 -21.40479,-9.44563 -32.64958,-12.85875 z" id="path203" style="fill:#74c713;fill-opacity:1;stroke-width:0.264583"/><path class="st3" d="m 96.5614,190.22291 c 0,0 -1.11125,1.61396 -1.11125,16.27188 0,14.65791 1.11125,16.45708 1.11125,16.45708 0.34396,1.79917 1.19063,2.38125 3.14854,1.95792 0,0 3.33375,-0.50271 16.53646,-7.17021 13.20271,-6.6675 15.42521,-9.2075 15.42521,-9.2075 1.45521,-1.45521 1.79916,-2.38125 0,-3.91583 0,0 -3.57188,-3.33375 -15.42521,-9.36625 -11.66813,-5.95313 -16.53646,-6.985 -16.53646,-6.985 -1.69333,-0.50271 -2.72521,0 -3.14854,1.95791 z" id="path212" style="fill:#ffffff;stroke-width:0.264583"/></g></g><style type="text/css" id="style182">
	.st0{fill:url(#SVGID_1_);}
	.st1{fill:url(#SVGID_2_);}
	.st2{fill:url(#SVGID_3_);}
	.st3{fill:url(#SVGID_4_);}
</style><style type="text/css" id="style8522">
	.st0{fill:#424242;}
	.st1{fill:url(#SVGID_1_);}
	.st2{fill:url(#SVGID_2_);}
	.st3{fill:url(#SVGID_3_);}
	.st4{fill:url(#SVGID_4_);}
</style></svg>