<svg width="418" height="56" viewBox="0 0 418 56" fill="none" xmlns="http://www.w3.org/2000/svg">
<g clip-path="url(#clip0_1841_6132)">
<path d="M23.6007 43.4464C21.9794 44.257 19.7151 44.8906 17.9168 44.8906C14.6648 44.8906 12.7733 43.3532 12.7733 39.5608V27.0094H24.2344V17.8033H12.8571V7.06897H0.492188V40.828C0.492188 50.3976 6.26933 55.364 15.932 55.364C20.2649 55.364 23.5169 54.19 26.4986 52.7457L23.6101 43.4464H23.6007ZM85.8075 17.8126V20.7012C82.8258 18.176 78.9495 16.7317 74.0762 16.7317C64.0594 16.7317 55.6639 24.5868 55.6639 36.0479C55.6639 47.509 64.0594 55.364 74.0762 55.364C78.9495 55.364 82.8351 53.9198 85.8075 51.3946V54.2832H97.8184V17.8126H85.8075ZM76.5921 45.5243C71.3554 45.5243 67.4698 41.7318 67.4698 36.0479C67.4698 30.3639 71.2622 26.5715 76.5921 26.5715C81.4654 26.5715 85.8914 30.4571 85.8914 36.0479C85.7982 41.7318 81.4654 45.5243 76.5921 45.5243ZM131.214 0.658203V19.8905C128.232 17.2722 124.356 15.8279 119.483 15.8279C109.466 15.8279 101.07 23.86 101.07 35.6006C101.07 47.3413 109.466 55.3734 119.483 55.3734C124.356 55.3734 128.242 53.9291 131.214 51.3107V54.2925H143.225V0.658203H131.214ZM121.915 45.254C116.678 45.254 112.792 41.3684 112.792 35.5913C112.792 29.8142 116.585 25.9286 121.915 25.9286C126.788 25.9286 131.214 29.898 131.214 35.5913C131.214 41.2846 126.788 45.254 121.915 45.254ZM185.379 36.0479C185.109 24.1302 176.714 16.7317 166.147 16.7317C155.581 16.7317 146.468 24.5868 146.468 36.0479C146.468 47.509 155.403 55.364 166.147 55.364C174.272 55.364 180.86 51.935 184.205 44.8906L173.555 42.7289C171.57 45.5243 168.682 46.0647 166.24 46.0647C162.271 46.0647 159.196 43.3532 158.208 39.0203H185.389V37.4237V36.6733L185.379 36.0479ZM158.292 31.8921C159.373 28.1928 162.802 26.1149 166.147 26.1149C169.492 26.1149 172.558 27.9226 173.639 31.8921H158.292ZM55.6546 16.7317H55.2912C48.9736 16.7317 44.8178 19.9837 41.9292 24.5868V17.2722H29.6481V55.3734H42.0131V43.4557C42.0131 33.6159 46.6161 29.283 55.198 29.1899L55.6453 16.7317H55.6546Z" fill="#4854D3"/>
<path d="M238.736 16.75C232.688 16.75 228.085 19.2752 225.01 23.0676C222.392 19.005 217.789 16.75 212.375 16.75C207.409 16.75 203.616 18.4645 200.914 21.2599V17.8309H188.633V55.2053H200.914V36.97C200.914 30.7363 203.896 27.4936 208.312 27.4936C212.012 27.4936 214.9 30.2052 214.9 34.4448V55.2985H227.181V36.97C227.181 30.7363 230.163 27.4936 234.766 27.4936C238.381 27.4936 241.27 30.2052 241.27 34.4448V55.2985H253.551V31.8265C253.551 22.7974 246.963 16.75 238.745 16.75H238.736ZM295.696 36.0662C295.426 24.1485 287.031 16.75 276.464 16.75C265.897 16.75 256.784 24.605 256.784 36.0662C256.784 47.5273 265.72 55.3823 276.464 55.3823C284.589 55.3823 291.177 51.9533 294.522 44.9089L283.872 42.7472C281.887 45.5425 278.998 46.083 276.557 46.083C272.588 46.083 269.513 43.3715 268.525 39.0386H295.696V36.0568V36.0662ZM268.618 31.9103C269.699 28.2111 273.128 26.1332 276.473 26.1332C279.818 26.1332 282.791 27.9409 283.965 31.9103H268.618Z" fill="#F9AF2C"/>
<path d="M377.181 44.7525C373.662 44.1962 370.078 44.2038 366.562 44.775L366.378 44.8051C362.806 45.3994 359.352 46.5658 356.151 48.2593C350.46 50.8377 354.414 57.3176 358.876 54.7617C364.138 51.721 369.829 49.8454 376.245 50.1611C380.439 50.4694 380.623 45.2261 377.181 44.7525Z" fill="#4854D3"/>
<path d="M308.193 54.1913C310.587 51.5518 312.546 48.5488 313.997 45.2946L314.072 45.1255C315.531 41.8118 316.447 38.285 316.786 34.6802C317.752 28.5048 310.163 28.2605 309.855 33.391C309.516 39.45 307.975 45.2458 304.179 50.4402C301.623 53.7779 305.908 56.8074 308.19 54.1989" fill="#4854D3"/>
<path d="M415.833 21.1153L415.732 21.089L414.228 20.747C413.274 20.5327 411.898 20.2358 410.241 19.9238C409.41 19.7622 408.508 19.6081 407.553 19.4502C406.598 19.2924 405.584 19.1458 404.546 18.9917C403.509 18.8376 402.407 18.7173 401.295 18.6158C400.182 18.5143 399.059 18.4166 397.912 18.3302C396.766 18.2437 395.657 18.1986 394.529 18.1723C393.402 18.146 392.312 18.1385 391.248 18.1309H391.008C391.486 19.7131 391.614 21.3805 391.383 23.0172H391.492C392.496 22.9608 393.537 22.8856 394.593 22.8631C395.649 22.8405 396.728 22.818 397.803 22.818C398.878 22.818 399.961 22.8368 401.021 22.8931C402.08 22.9495 403.129 22.9984 404.14 23.066C405.151 23.1337 406.132 23.2239 407.061 23.3254C407.989 23.4269 408.865 23.5171 409.692 23.6261C411.312 23.829 412.657 24.0358 413.601 24.1899L415.104 24.4304H415.138C415.571 24.5076 416.017 24.4144 416.382 24.1703C416.748 23.9263 417.005 23.5503 417.1 23.121C417.194 22.6917 417.119 22.2424 416.89 21.8672C416.661 21.492 416.296 21.2199 415.871 21.1078" fill="#F9AF2C"/>
<path d="M391.004 18.1319C389.91 14.5274 387.02 11.5204 382.832 10.2012C366.798 5.1533 345.396 4.39781 331.512 10.577C325.746 13.1479 320.958 17.9327 319.071 24.484C317.784 28.9297 317.966 33.672 319.591 38.0057C321.215 42.3395 324.195 46.0332 328.087 48.5377C331.979 51.0421 336.575 52.2235 341.193 51.9062C345.81 51.5889 350.201 49.7898 353.714 46.7765C360.562 40.8604 366.05 34.3993 380.231 33.1401C385.926 32.6327 389.598 29.6258 391.019 24.7133C391.185 24.1606 391.31 23.5966 391.395 23.0256C391.627 21.389 391.499 19.7212 391.019 18.1394" fill="#4854D3"/>
<path d="M386.435 23.2985C386.079 24.5297 385.366 25.6277 384.386 26.4536C383.406 27.2795 382.203 27.7962 380.929 27.9383C379.656 28.0805 378.368 27.8418 377.23 27.2524C376.092 26.6629 375.154 25.7492 374.536 24.6268C373.917 23.5044 373.645 22.2238 373.754 20.9468C373.863 19.6698 374.348 18.4539 375.149 17.4527C375.949 16.4516 377.028 15.7102 378.249 15.3224C379.471 14.9345 380.78 14.9176 382.011 15.2738C383.662 15.7514 385.055 16.8652 385.885 18.37C386.715 19.8749 386.913 21.6477 386.435 23.2985Z" fill="white"/>
<path d="M384.014 19.0266C383.412 18.4901 382.636 18.1896 381.83 18.1809C381.024 18.1721 380.242 18.4558 379.629 18.9792C379.016 19.5027 378.614 20.2305 378.496 21.028C378.379 21.8254 378.554 22.6385 378.989 23.3167C379.425 23.9949 380.092 24.4922 380.866 24.7167C381.64 24.9411 382.47 24.8774 383.201 24.5374C383.931 24.1974 384.514 23.6041 384.842 22.8673C385.169 22.1306 385.218 21.3003 384.98 20.5301C384.965 20.8314 384.862 21.1218 384.684 21.3652C384.506 21.6086 384.26 21.7944 383.977 21.8995C383.694 22.0045 383.387 22.0243 383.093 21.9563C382.799 21.8883 382.532 21.7356 382.324 21.517C382.116 21.2984 381.977 21.0236 381.924 20.7267C381.87 20.4297 381.905 20.1237 382.025 19.8465C382.144 19.5694 382.341 19.3333 382.593 19.1675C382.846 19.0017 383.141 18.9135 383.442 18.9139C383.638 18.9149 383.831 18.9518 384.014 19.0229" fill="#333333"/>
</g>
<defs>
<clipPath id="clip0_1841_6132">
<rect width="418" height="56" fill="white"/>
</clipPath>
</defs>
</svg>
