<?xml version="1.0" encoding="UTF-8" standalone="no"?>
<svg
   width="283.20844"
   height="283.2106"
   viewBox="300 0 65.862427 30.736035"
   fill="none"
   version="1.1"
   id="svg5"
   sodipodi:docname="trademe-logo-2025-v2.svg"
   inkscape:version="1.4.2 (f4327f4, 2025-05-13)"
   xmlns:inkscape="http://www.inkscape.org/namespaces/inkscape"
   xmlns:sodipodi="http://sodipodi.sourceforge.net/DTD/sodipodi-0.dtd"
   xmlns="http://www.w3.org/2000/svg"
   xmlns:svg="http://www.w3.org/2000/svg">
  <defs
     id="defs5" />
  <sodipodi:namedview
     id="namedview5"
     pagecolor="#ffffff"
     bordercolor="#000000"
     borderopacity="0.25"
     inkscape:showpageshadow="2"
     inkscape:pageopacity="0.0"
     inkscape:pagecheckerboard="0"
     inkscape:deskcolor="#d1d1d1"
     inkscape:zoom="5.6568543"
     inkscape:cx="190.30011"
     inkscape:cy="128.42827"
     inkscape:window-width="3840"
     inkscape:window-height="2053"
     inkscape:window-x="-11"
     inkscape:window-y="-11"
     inkscape:window-maximized="1"
     inkscape:current-layer="svg5"
     showguides="true" />
  <path
     d="m 362.22744,48.299484 c 2.00727,0 3.63499,-1.627725 3.63499,-3.634991 V -13.92821 c 0,-2.008005 -1.62772,-3.635238 -3.63499,-3.635238 h -58.59245 c -2.00801,0 -3.63499,1.627233 -3.63499,3.635238 v 58.592703 c 0,2.007266 1.62698,3.634991 3.63499,3.634991 z"
     style="fill:#ffdd55;fill-opacity:1;fill-rule:nonzero;stroke:none;stroke-width:0.259663"
     id="path4680" />
  <path
     d="m 354.68641,-16.061533 -0.0771,0.03547 -1.12445,0.556628 a 95.174581,95.174581 0 0 0 -4.87706,2.609733 c -0.68362,0.390768 -1.39828,0.819402 -2.13219,1.255318 a 47.994019,47.994019 0 0 0 -2.244,1.432352 c -0.75455,0.5072364 -1.51331,1.0221301 -2.28107,1.5569197 a 52.874767,52.874767 0 0 0 -2.21532,1.6376681 160.25121,160.25121 0 0 0 -2.09091,1.6590981 l -0.1514,0.1232541 a 9.2734207,9.2734207 0 0 1 2.74577,2.8897786 l 0.0688,-0.05597 c 0.60462,-0.5509341 1.22282,-1.1328532 1.8772,-1.6896735 a 122.01869,122.01869 0 0 1 2.00193,-1.6768875 c 0.67817,-0.5520677 1.37115,-1.0962567 2.0686,-1.6052931 0.69685,-0.5085239 1.38377,-1.016327 2.0565,-1.4926296 a 56.942057,56.942057 0 0 1 1.97624,-1.3360609 c 0.63679,-0.413489 1.23615,-0.805952 1.81385,-1.161896 1.12624,-0.70389 2.08105,-1.264028 2.75566,-1.65167 l 1.07144,-0.620463 0.0215,-0.01747 a 1.3828785,1.3828785 0 0 0 -0.21098,-2.516626 1.3828785,1.3828785 0 0 0 -1.03314,0.04387"
     fill="#f9af2c"
     id="path2"
     style="stroke-width:0.813458"
     transform="translate(6.6599524,1.43888)" />
  <path
     d="m 337.49097,-5.1924105 c -2.54149,-1.712412 -5.90891,-2.1252318 -9.22781,-0.8059458 -12.70806,5.04908958 -26.59736,15.5638166 -32.18292,26.5920203 -2.31769,4.582435 -2.88037,10.060594 -0.70651,15.162401 a 17.481211,17.481211 0 0 0 18.04073,10.544426 17.489346,17.489346 0 0 0 15.26258,-14.271714 c 1.28142,-7.249573 1.42549,-14.1439 9.7251,-22.2208177 3.33236,-3.244518 4.10462,-7.027263 2.47798,-10.8564116 q -0.26916,-0.6514843 -0.62916,-1.257349 a 9.1920748,9.1920748 0 0 0 -2.74693,-2.8898967"
     fill="#4854d3"
     id="path3"
     style="stroke-width:0.813458"
     transform="translate(6.6599524,1.43888)" />
  <path
     d="m 337.26212,0.41363558 a 5.2712234,5.2712234 0 1 1 -9.70294,4.12263212 5.2712234,5.2712234 0 0 1 9.70294,-4.12263212"
     fill="#ffffff"
     id="path4"
     style="stroke-width:0.813458"
     transform="translate(6.6599524,1.43888)" />
  <path
     d="m 333.54094,-1.038073 a 2.7169495,2.7169495 0 0 0 -2.79096,2.2216427 2.7128823,2.7128823 0 0 0 5.10773,1.6718896 2.7120689,2.7120689 0 0 0 -0.93551,-3.44144692 1.2608598,1.2608598 0 0 1 0.0708,1.3793634 1.2535387,1.2535387 0 1 1 -1.45415,-1.83397378"
     fill="#333333"
     id="path5"
     style="stroke-width:0.813458"
     transform="translate(6.6599524,1.43888)" />
</svg>
