<svg width="135" height="40" viewBox="0 0 135 40" fill="none" xmlns="http://www.w3.org/2000/svg">
<path d="M130 0.00012207H5C2.23858 0.00012207 0 2.2387 0 5.00012V35.0001C0 37.7615 2.23858 40.0001 5 40.0001H130C132.761 40.0001 135 37.7615 135 35.0001V5.00012C135 2.2387 132.761 0.00012207 130 0.00012207Z" fill="black"/>
<path d="M130 0.800122C132.32 0.800122 134.2 2.68012 134.2 5.00012V35.0001C134.2 37.3201 132.32 39.2001 130 39.2001H5C2.68 39.2001 0.800001 37.3201 0.800001 35.0001V5.00012C0.800001 2.68012 2.68 0.800122 5 0.800122H130ZM130 0.00012207H5C2.25 0.00012207 0 2.25012 0 5.00012V35.0001C0 37.7501 2.25 40.0001 5 40.0001H130C132.75 40.0001 135 37.7501 135 35.0001V5.00012C135 2.25012 132.75 0.00012207 130 0.00012207Z" fill="#A6A6A6"/>
<path d="M8.00486 19.9952C8.01943 13.4881 13.2457 8.25209 19.6814 8.26675C26.1414 8.28142 31.3386 13.5516 31.3143 20.0392C31.29 26.5365 26.0394 31.7725 19.6134 31.7334C13.1729 31.6992 8.00486 26.4534 8 19.9952H8.00486ZM9.16086 20.577C9.21914 21.6134 9.41829 22.6108 9.76314 23.5788C10.108 24.5468 10.584 25.4463 11.1814 26.253C11.672 25.9694 12.1431 25.6859 12.6337 25.4316C13.1194 25.1774 13.6246 24.9623 14.1297 24.7228C13.6683 23.3881 13.4011 21.9996 13.338 20.5721H9.16571L9.16086 20.577ZM28.1377 26.2774C29.3666 24.5712 30.0466 22.6792 30.168 20.577H26.1511C26.088 22.029 25.816 23.437 25.3351 24.8059C26.3211 25.2019 27.244 25.6908 28.1329 26.2774H28.1377ZM13.3331 19.4183C13.3866 18.0885 13.6246 16.8028 14.018 15.5659C13.4983 15.3165 12.9786 15.0868 12.4831 14.8228C11.9877 14.5588 11.5117 14.2556 11.0163 13.9672C9.89914 15.6001 9.27743 17.4188 9.16086 19.4183H13.3331ZM25.4323 15.4925C25.8549 16.7783 26.0977 18.0788 26.156 19.4134H30.1729C30.0514 17.409 29.4297 15.5903 28.3029 13.9476C27.3946 14.5685 26.4474 15.077 25.4323 15.4925ZM24.2714 24.4196C24.7086 23.1681 24.9611 21.8921 25.0194 20.577H20.2449V23.7205C21.6146 23.7792 22.9551 24.0041 24.2714 24.4196ZM19.0937 20.577H14.4746C14.5377 21.8823 14.7854 23.1436 15.2129 24.3708C16.4854 23.9796 17.7726 23.7694 19.0937 23.7156V20.577ZM20.2449 16.6072V19.4134H25.0097C25.068 18.7876 24.5969 16.2748 24.3491 15.8836C23.0183 16.3139 21.6534 16.5485 20.2449 16.6072ZM14.4746 19.4134H19.0937V16.6072C17.7337 16.5485 16.4077 16.3236 15.1011 15.9179C14.7369 17.057 14.528 18.2156 14.4746 19.4134ZM20.2449 15.4534C21.0803 15.4779 23.538 15.0379 23.9557 14.7885C23.0911 12.7401 21.8234 10.9801 20.2691 9.41564L20.2449 9.42542V15.4534ZM19.0937 9.47431C17.5637 11.0583 16.33 12.8085 15.4946 14.8423C16.67 15.2041 17.8649 15.4094 19.0937 15.4632V9.4792V9.47431ZM20.2497 24.8694V30.5796C20.2934 30.5552 20.3226 30.5454 20.3469 30.5259C21.804 29.0494 22.9989 27.397 23.8489 25.4903C23.2611 25.2214 21.0171 24.8352 20.2497 24.8694ZM19.0889 30.477V24.8645C17.9086 24.9134 16.7623 25.1041 15.6306 25.4414C16.4709 27.3432 17.6511 28.9908 19.0889 30.477ZM11.7303 13.0432C12.5803 13.6152 13.4691 14.0894 14.4163 14.4708C15.1351 12.701 16.1406 11.1219 17.384 9.66009C15.1254 10.1881 13.2603 11.3174 11.7303 13.0432ZM25.0291 14.4219C25.9374 14.0503 26.7826 13.5956 27.5937 13.0432C26.8651 12.2023 26.0346 11.4983 25.0971 10.9312C24.1889 10.3836 22.4403 9.68453 22.0954 9.71875C23.3097 11.1316 24.3054 12.6863 25.034 14.4219H25.0291ZM17.384 30.3303C16.228 28.9614 15.2614 27.4752 14.5426 25.8179C13.6197 26.1796 12.7503 26.6245 11.9149 27.1672C13.4254 28.7854 15.2371 29.8463 17.3791 30.3303H17.384ZM24.9174 25.8716C24.2083 27.4948 23.2563 28.9516 22.1003 30.3059C24.1937 29.7828 25.9471 28.7365 27.4043 27.1721C26.6077 26.6539 25.7869 26.2236 24.9174 25.8765V25.8716Z" fill="white"/>
<path d="M43.3074 10.1291V14.1086C43.3074 14.7686 43.0937 15.282 42.6711 15.6535C42.2437 16.0251 41.6997 16.2109 41.0294 16.2109C40.3591 16.2109 39.8539 16.0251 39.4411 15.6535C39.0282 15.282 38.8242 14.7686 38.8242 14.1135V10.134H39.6305V14.1135C39.6305 14.5731 39.7617 14.93 40.0191 15.1891C40.2765 15.4482 40.6165 15.5802 41.0245 15.5802C41.4617 15.5802 41.8162 15.4482 42.0882 15.1891C42.3602 14.93 42.5011 14.5731 42.5011 14.1135V10.134H43.3074V10.1291Z" fill="white"/>
<path d="M47.0423 14.92C47.0423 14.744 46.9743 14.5973 46.8383 14.4849C46.7023 14.3724 46.4497 14.2747 46.0709 14.1867C45.5512 14.0742 45.148 13.9178 44.8712 13.7124C44.5943 13.5071 44.4534 13.2382 44.4534 12.896C44.4534 12.5342 44.6089 12.2213 44.9149 11.9671C45.2209 11.7129 45.6192 11.5809 46.1049 11.5809C46.5906 11.5809 47.0132 11.7178 47.324 11.9916C47.6349 12.2653 47.7854 12.5831 47.7709 12.9498L47.7612 12.9742H46.9937C46.9937 12.7836 46.9112 12.6076 46.7412 12.4511C46.576 12.2947 46.3623 12.2164 46.1049 12.2164C45.8232 12.2164 45.6094 12.28 45.4686 12.412C45.3277 12.544 45.2597 12.6956 45.2597 12.8716C45.2597 13.0476 45.318 13.1844 45.4394 13.2773C45.5609 13.3751 45.8086 13.4631 46.1874 13.5413C46.7314 13.6587 47.1394 13.82 47.4212 14.0302C47.7029 14.2404 47.8437 14.5191 47.8437 14.8564C47.8437 15.2524 47.6834 15.5751 47.3677 15.8244C47.052 16.0738 46.6343 16.2009 46.1243 16.2009C45.5609 16.2009 45.114 16.0591 44.7934 15.7707C44.468 15.4822 44.3174 15.1449 44.332 14.7636L44.3417 14.7391H45.1092C45.1237 15.0276 45.2306 15.2378 45.4297 15.3698C45.6289 15.5018 45.862 15.5702 46.1292 15.5702C46.4157 15.5702 46.6392 15.5116 46.7994 15.3893C46.9597 15.2671 47.0423 15.1107 47.0423 14.92Z" fill="white"/>
<path d="M50.6807 16.206C50.0444 16.206 49.549 16.0007 49.1944 15.5949C48.8399 15.1842 48.6602 14.6465 48.6602 13.9816V13.8007C48.6602 13.1602 48.8447 12.6322 49.209 12.2167C49.5733 11.7962 50.025 11.5909 50.5496 11.5909C51.1422 11.5909 51.5842 11.7767 51.8804 12.1482C52.1767 12.5198 52.3224 13.0087 52.3224 13.6247V14.0549H49.4956L49.4859 14.0745C49.4859 14.5194 49.583 14.886 49.7822 15.1647C49.9764 15.4434 50.2776 15.5802 50.6807 15.5802C50.9527 15.5802 51.1907 15.5411 51.3996 15.4629C51.6036 15.3847 51.7833 15.2771 51.929 15.1402L52.2447 15.6682C52.0844 15.8198 51.8804 15.9518 51.6182 16.0545C51.3607 16.162 51.045 16.2109 50.6807 16.2109V16.206ZM50.5544 12.2216C50.2727 12.2216 50.0396 12.3291 49.855 12.5491C49.6704 12.7691 49.5587 13.0478 49.5199 13.3851L49.5296 13.4047H51.5259V13.3411C51.5259 13.0185 51.4482 12.7496 51.2879 12.5394C51.1276 12.3291 50.8847 12.2216 50.5544 12.2216Z" fill="white"/>
<path d="M56.1832 10.5251H55.377V9.69885H56.1832V10.5251ZM56.1832 16.118H55.377V11.6642H56.1832V16.118Z" fill="white"/>
<path d="M58.1417 11.6692L58.2 12.3292C58.3457 12.0946 58.5303 11.9088 58.7537 11.7817C58.9771 11.6497 59.2297 11.5861 59.5114 11.5861C59.9874 11.5861 60.3565 11.7279 60.6188 12.0066C60.8811 12.2852 61.0123 12.7204 61.0123 13.307V16.1181H60.206V13.3266C60.206 12.9355 60.1283 12.6568 59.9728 12.4906C59.8174 12.3244 59.5843 12.2461 59.2685 12.2461C59.0208 12.2461 58.812 12.295 58.6371 12.3977C58.4623 12.4955 58.3263 12.6372 58.2243 12.8181V16.123H57.418V11.6692H58.1368H58.1417Z" fill="white"/>
<path d="M65.6163 14.4702L65.7572 15.0275H65.7814L66.8694 11.664H67.7632L65.9029 16.7973C65.7912 17.0955 65.6309 17.3546 65.422 17.5795C65.2132 17.8044 64.9314 17.912 64.5769 17.912C64.5137 17.912 64.4263 17.9022 64.3292 17.8875C64.2272 17.8729 64.1494 17.8582 64.096 17.8435L64.1786 17.208C64.1786 17.208 64.2126 17.208 64.3243 17.2177C64.436 17.2275 64.5089 17.2324 64.538 17.2324C64.708 17.2324 64.8489 17.1542 64.9606 17.0026C65.0674 16.8511 65.1597 16.68 65.2326 16.4942L65.4269 16.0297L63.7852 11.6689H64.6837L65.6163 14.4702Z" fill="white"/>
<path d="M68.2246 13.8493C68.2246 13.1893 68.3995 12.6466 68.754 12.2213C69.1086 11.796 69.5895 11.5809 70.1966 11.5809C70.8037 11.5809 71.2943 11.796 71.6489 12.2164C72.0035 12.6418 72.1832 13.1844 72.1832 13.8444V13.9373C72.1832 14.6022 72.0083 15.1449 71.6537 15.5653C71.2992 15.9858 70.8183 16.2009 70.2063 16.2009C69.5943 16.2009 69.1135 15.9906 68.7589 15.5653C68.4043 15.14 68.2246 14.5973 68.2246 13.9373V13.8444V13.8493ZM69.0309 13.9422C69.0309 14.4164 69.128 14.8026 69.3272 15.1106C69.5263 15.4186 69.8177 15.5702 70.2063 15.5702C70.5949 15.5702 70.8815 15.4186 71.0806 15.1106C71.2797 14.8026 71.3769 14.4164 71.3769 13.9422V13.8493C71.3769 13.3849 71.2749 12.9938 71.0757 12.6858C70.8766 12.3778 70.5803 12.2213 70.1966 12.2213C69.8129 12.2213 69.5215 12.3778 69.3223 12.6858C69.1232 12.9938 69.026 13.3849 69.026 13.8493V13.9422H69.0309Z" fill="white"/>
<path d="M75.9763 15.4628C75.8354 15.7024 75.6606 15.8833 75.442 16.0153C75.2234 16.1424 74.9709 16.2108 74.6843 16.2108C74.2034 16.2108 73.8246 16.0544 73.5574 15.7464C73.2854 15.4384 73.1543 14.9544 73.1543 14.2993V11.674H73.9606V14.3091C73.9606 14.7833 74.0286 15.1108 74.1694 15.2868C74.3103 15.4628 74.524 15.5557 74.8203 15.5557C75.1166 15.5557 75.3449 15.4971 75.5294 15.3797C75.714 15.2624 75.8549 15.0962 75.952 14.886V11.6788H76.7583V16.1326H76.0346L75.9812 15.4726L75.9763 15.4628Z" fill="white"/>
<path d="M80.0173 12.383L79.6044 12.3586C79.3907 12.3586 79.211 12.4075 79.0653 12.5101C78.9195 12.6128 78.8078 12.7546 78.7301 12.9403V16.123H77.9238V11.6692H78.6427L78.7204 12.3195C78.8467 12.0897 79.0021 11.9088 79.1867 11.7817C79.3713 11.6546 79.5801 11.5861 79.823 11.5861C79.8813 11.5861 79.9395 11.5861 79.993 11.6008C80.0464 11.6106 80.0901 11.6203 80.129 11.6301L80.0173 12.383Z" fill="white"/>
<path d="M47.144 26.8741H47.1877L48.5283 19.9563H50.6217L48.2563 30.1497H46.3717L44.5066 23.4372H44.4629L42.6074 30.1497H40.7229L38.3574 19.9563H40.4509L41.8011 26.8643H41.8449L43.6663 19.9563H45.308L47.144 26.8741Z" fill="white"/>
<path d="M54.5944 30.301C53.4724 30.301 52.5981 29.9539 51.9667 29.2596C51.3352 28.5654 51.0195 27.6756 51.0195 26.5805V26.3019C51.0195 25.1676 51.3255 24.2388 51.9375 23.5152C52.5495 22.7916 53.3898 22.4348 54.4632 22.4348C55.4735 22.4348 56.2507 22.7476 56.7898 23.3685C57.329 23.9894 57.601 24.8303 57.601 25.8863V26.9423H53.113L53.0935 26.9863C53.1275 27.5045 53.283 27.925 53.5647 28.2476C53.8464 28.5703 54.2592 28.7316 54.813 28.7316C55.2695 28.7316 55.6532 28.6828 55.969 28.5899C56.2847 28.497 56.615 28.3552 56.955 28.1645L57.5038 29.4259C57.2027 29.6752 56.7947 29.8805 56.2798 30.0468C55.765 30.213 55.2064 30.301 54.5944 30.301ZM54.4632 24.0139C54.0552 24.0139 53.7395 24.1556 53.521 24.4392C53.3024 24.7228 53.1664 25.0943 53.1227 25.5636L53.1372 25.5979H55.6144V25.4463C55.6144 25.0014 55.5221 24.6543 55.3424 24.4001C55.1627 24.1459 54.8712 24.0188 54.4681 24.0188L54.4632 24.0139Z" fill="white"/>
<path d="M65.5676 26.5757C65.5676 27.705 65.3151 28.6094 64.8148 29.2841C64.3145 29.9588 63.5908 30.301 62.6436 30.301C62.2016 30.301 61.8179 30.2081 61.4925 30.0223C61.1671 29.8365 60.8902 29.5628 60.6619 29.201L60.4968 30.1543H58.7773V19.2325H60.8028V23.3832C61.0213 23.0801 61.2836 22.8454 61.5848 22.6841C61.8859 22.5228 62.2356 22.4397 62.6291 22.4397C63.5859 22.4397 64.3145 22.8014 64.8148 23.5299C65.3151 24.2534 65.5676 25.2214 65.5676 26.4339V26.5805V26.5757ZM63.5422 26.429C63.5422 25.6908 63.4353 25.109 63.2168 24.6739C63.0031 24.2437 62.6339 24.0285 62.1142 24.0285C61.7985 24.0285 61.5313 24.097 61.3128 24.229C61.0942 24.361 60.9242 24.5517 60.7979 24.801V28.0081C60.9242 28.2379 61.0942 28.4139 61.3176 28.5312C61.5362 28.6534 61.8082 28.7121 62.1288 28.7121C62.6533 28.7121 63.0176 28.5263 63.2265 28.1548C63.4353 27.7832 63.5373 27.2601 63.5373 26.5757V26.429H63.5422Z" fill="white"/>
<path d="M70.5215 30.1544V19.9611H73.8389C75.0289 19.9611 75.9615 20.1958 76.6269 20.6651C77.2924 21.1344 77.6275 21.8286 77.6275 22.7526C77.6275 23.222 77.5061 23.6375 77.2681 24.0042C77.0252 24.3709 76.6755 24.6495 76.2092 24.8353C76.8406 24.9526 77.3166 25.2264 77.6372 25.6615C77.9578 26.0966 78.1181 26.6002 78.1181 27.182C78.1181 28.1598 77.7975 28.898 77.1564 29.3966C76.5152 29.9002 75.6118 30.1495 74.4363 30.1495H70.5215V30.1544ZM72.5518 24.234H73.9069C74.4509 24.234 74.8686 24.1215 75.1601 23.8966C75.4515 23.6718 75.5972 23.3442 75.5972 22.9189C75.5972 22.4495 75.4515 22.0975 75.1552 21.8775C74.8589 21.6526 74.4218 21.5402 73.8389 21.5402H72.5518V24.234ZM72.5518 25.6469V28.5851H74.4363C74.9755 28.5851 75.3835 28.4678 75.6652 28.2331C75.9469 27.9984 76.0878 27.6464 76.0878 27.1869C76.0878 26.6931 75.9469 26.3118 75.6701 26.0478C75.3932 25.7838 74.9706 25.6469 74.4121 25.6469H72.5469H72.5518Z" fill="white"/>
<path d="M83.4029 24.3367L82.6598 24.3171C82.3586 24.3171 82.1109 24.3807 81.9166 24.5078C81.7223 24.6349 81.5718 24.8109 81.4698 25.0407V30.1594H79.4443V22.5865H81.3289L81.4212 23.706C81.5961 23.31 81.8243 23.002 82.1061 22.7771C82.3878 22.5571 82.7083 22.4447 83.0775 22.4447C83.1795 22.4447 83.2718 22.4545 83.3592 22.4691C83.4466 22.4838 83.5341 22.5034 83.6215 22.5278L83.4078 24.3416L83.4029 24.3367Z" fill="white"/>
<path d="M84.0049 26.2968C84.0049 25.1674 84.3157 24.2434 84.9423 23.5199C85.5689 22.7963 86.4335 22.4394 87.5457 22.4394C88.658 22.4394 89.5323 22.7963 90.1589 23.5199C90.7855 24.2434 91.106 25.1674 91.106 26.2968V26.4434C91.106 27.5825 90.7903 28.5114 90.1637 29.2252C89.5372 29.9439 88.6677 30.3008 87.5603 30.3008C86.4529 30.3008 85.5786 29.9439 84.9472 29.2252C84.3206 28.5065 84.0049 27.5825 84.0049 26.4434V26.2968ZM86.0303 26.4434C86.0303 27.1328 86.1517 27.6901 86.3897 28.1057C86.6326 28.5212 87.0212 28.7314 87.5603 28.7314C88.0995 28.7314 88.4686 28.5212 88.7115 28.1008C88.9543 27.6803 89.0757 27.1279 89.0757 26.4434V26.2968C89.0757 25.627 88.9543 25.0745 88.7066 24.6541C88.4589 24.2337 88.0752 24.0185 87.5457 24.0185C87.0163 24.0185 86.6375 24.2337 86.3946 24.659C86.1517 25.0843 86.0303 25.6319 86.0303 26.3017V26.4483V26.4434Z" fill="white"/>
<path d="M98.9067 27.3383H98.9504L99.8636 22.5765H101.84L99.9267 30.1494H98.2316L96.8327 25.7788H96.789L95.3901 30.1494H93.6998L91.7861 22.5765H93.763L94.6858 27.3139H94.7296L96.1333 22.5765H97.4884L98.9067 27.3383Z" fill="white"/>
<path d="M106.911 28.0519C106.911 27.827 106.805 27.6363 106.586 27.475C106.372 27.3137 105.969 27.1719 105.386 27.0497C104.507 26.8737 103.837 26.6048 103.38 26.243C102.924 25.8861 102.695 25.3972 102.695 24.7812C102.695 24.131 102.967 23.5786 103.516 23.1239C104.065 22.6692 104.789 22.4395 105.702 22.4395C106.615 22.4395 107.412 22.6692 107.985 23.1239C108.558 23.5835 108.83 24.1506 108.811 24.8301L108.796 24.8741H106.834C106.834 24.571 106.737 24.3217 106.542 24.131C106.348 23.9403 106.066 23.8426 105.702 23.8426C105.377 23.8426 105.119 23.9257 104.93 24.087C104.74 24.2483 104.643 24.4488 104.643 24.6883C104.643 24.9279 104.74 25.1137 104.939 25.2603C105.139 25.407 105.537 25.539 106.139 25.6563C107.062 25.8421 107.747 26.1159 108.203 26.4777C108.66 26.8395 108.883 27.3381 108.883 27.9737C108.883 28.6532 108.592 29.2106 108.014 29.6457C107.436 30.0808 106.669 30.2959 105.717 30.2959C104.716 30.2959 103.924 30.0417 103.341 29.5283C102.759 29.015 102.482 28.4332 102.511 27.783L102.525 27.739H104.381C104.395 28.1448 104.527 28.4381 104.779 28.619C105.032 28.7999 105.357 28.8928 105.76 28.8928C106.134 28.8928 106.421 28.8146 106.62 28.663C106.819 28.5115 106.916 28.3061 106.916 28.0421L106.911 28.0519Z" fill="white"/>
<path d="M113.449 30.3009C112.327 30.3009 111.453 29.9538 110.821 29.2596C110.19 28.5653 109.874 27.6756 109.874 26.5804V26.3018C109.874 25.1676 110.18 24.2387 110.792 23.5151C111.404 22.7916 112.244 22.4347 113.318 22.4347C114.328 22.4347 115.105 22.7476 115.644 23.3684C116.183 23.9893 116.455 24.8302 116.455 25.8862V26.9422H111.967L111.948 26.9862C111.982 27.5044 112.137 27.9249 112.419 28.2476C112.701 28.5702 113.114 28.7316 113.667 28.7316C114.124 28.7316 114.508 28.6827 114.823 28.5898C115.139 28.4969 115.469 28.3551 115.809 28.1644L116.358 29.4258C116.057 29.6751 115.649 29.8804 115.134 30.0467C114.619 30.2129 114.061 30.3009 113.449 30.3009ZM113.318 24.0138C112.91 24.0138 112.594 24.1556 112.375 24.4391C112.157 24.7227 112.021 25.0942 111.977 25.5636L111.992 25.5978H114.469V25.4462C114.469 25.0013 114.377 24.6542 114.197 24.4C114.017 24.1458 113.726 24.0187 113.323 24.0187L113.318 24.0138Z" fill="white"/>
<path d="M121.594 24.3367L120.851 24.3171C120.55 24.3171 120.302 24.3807 120.108 24.5078C119.914 24.6349 119.763 24.8109 119.661 25.0407V30.1594H117.636V22.5865H119.52L119.613 23.706C119.787 23.31 120.016 23.002 120.297 22.7771C120.579 22.5571 120.9 22.4447 121.269 22.4447C121.371 22.4447 121.463 22.4545 121.551 22.4691C121.638 22.4838 121.725 22.5034 121.813 22.5278L121.599 24.3416L121.594 24.3367Z" fill="white"/>
</svg>
