<?xml version="1.0" encoding="UTF-8" standalone="no"?>
<svg
   viewBox="-2.002 -2.015 60.76632 71.999363"
   width="2005.7893"
   height="2367.4656"
   version="1.1"
   id="svg6"
   sodipodi:docname="youku-1.svg"
   inkscape:version="1.4.2 (f4327f4, 2025-05-13)"
   xmlns:inkscape="http://www.inkscape.org/namespaces/inkscape"
   xmlns:sodipodi="http://sodipodi.sourceforge.net/DTD/sodipodi-0.dtd"
   xmlns="http://www.w3.org/2000/svg"
   xmlns:svg="http://www.w3.org/2000/svg">
  <defs
     id="defs6" />
  <sodipodi:namedview
     id="namedview6"
     pagecolor="#ffffff"
     bordercolor="#000000"
     borderopacity="0.25"
     inkscape:showpageshadow="2"
     inkscape:pageopacity="0.0"
     inkscape:pagecheckerboard="0"
     inkscape:deskcolor="#d1d1d1"
     inkscape:zoom="0.7256"
     inkscape:cx="1021.2238"
     inkscape:cy="1183.8479"
     inkscape:window-width="3840"
     inkscape:window-height="2053"
     inkscape:window-x="-11"
     inkscape:window-y="-11"
     inkscape:window-maximized="1"
     inkscape:current-layer="svg6" />
  <linearGradient
     id="a"
     x1="12.375435"
     x2="34.019752"
     y1="65.246472"
     y2="53.678813"
     gradientTransform="matrix(1.1756281,0,0,0.85060915,-2.1288838,-2.0153187)"
     gradientUnits="userSpaceOnUse">
    <stop
       offset="0"
       stop-color="#ff8000"
       id="stop1" />
    <stop
       offset="1"
       stop-color="#ff6400"
       id="stop2" />
  </linearGradient>
  <linearGradient
     id="b"
     x1="10.320164"
     x2="54.511274"
     y1="18.163328"
     y2="40.658022"
     gradientTransform="matrix(1.0789797,0,0,0.92680153,-2.1288838,-2.0153187)"
     gradientUnits="userSpaceOnUse">
    <stop
       offset="0"
       stop-color="#00c1ff"
       id="stop3" />
    <stop
       offset=".398"
       stop-color="#09b2ff"
       id="stop4" />
    <stop
       offset="1"
       stop-color="#2c78ff"
       id="stop5" />
  </linearGradient>
  <path
     d="m 18.965116,32.649681 2.298,1.335 28.208,16.39 -30.446,17.705 c -6.746,3.92 -15.3699998,1.596 -19.26299981,-5.197 -3.89299999,-6.794 -1.58399999,-15.479 5.16200001,-19.399 l 14.0009998,-8.14 c 0.463,-0.274 0.774,-0.78 0.774,-1.359 0,-0.563 -0.293,-1.056 -0.734,-1.335 z"
     fill="url(#a)"
     id="path5"
     style="fill:url(#a)" />
  <path
     d="m 49.471116,17.587681 -30.446,-17.69799968 C 12.279116,-4.0303187 3.6551162,-1.7063187 -0.23788381,5.0866813 -4.1308838,11.880681 -1.8218838,20.565681 4.9241162,24.485681 l 16.3439998,9.502 28.203,16.394 c 12.533,-7.287 12.533,-25.507 0,-32.794 z"
     fill="url(#b)"
     id="path6"
     style="fill:url(#b)" />
</svg>
